<svg xmlns="http://www.w3.org/2000/svg" width="93" height="69" viewBox="0 0 93 69">
  <g id="Grupo_1113096" data-name="Grupo 1113096" transform="translate(-820.051 -1544)">
    <rect id="Rectángulo_404459" data-name="Rectángulo 404459" width="93" height="69" rx="12" transform="translate(820.051 1544)" fill="#008db6"/>
    <g id="Grupo_1113090" data-name="Grupo 1113090" transform="translate(105)">
      <g id="Grupo_1112956" data-name="Grupo 1112956" transform="translate(4.333 -187.667)">
        <g id="Grupo_1112955" data-name="Grupo 1112955" transform="translate(733.821 1747.08)">
          <g id="Grupo_1112953" data-name="Grupo 1112953" transform="translate(34.447 11.64)">
            <rect id="Rectángulo_404724" data-name="Rectángulo 404724" width="13.409" height="4.814" fill="#e0e7ef"/>
            <rect id="Rectángulo_404725" data-name="Rectángulo 404725" width="13.409" height="4.814" transform="translate(0 4.814)" fill="#e0e7ef"/>
            <path id="Trazado_983675" data-name="Trazado 983675" d="M375.138,285.563h2.416v-4.814H364.146v4.814h10.992Z" transform="translate(-364.146 -271.12)" fill="#e0e7ef"/>
          </g>
          <g id="Grupo_1112954" data-name="Grupo 1112954" transform="translate(34.447 11.64)">
            <rect id="Rectángulo_404726" data-name="Rectángulo 404726" width="13.409" height="4.814" fill="none" stroke="#000" stroke-linecap="round" stroke-linejoin="round" stroke-miterlimit="10" stroke-width="2"/>
            <rect id="Rectángulo_404727" data-name="Rectángulo 404727" width="13.409" height="4.814" transform="translate(0 4.814)" fill="none" stroke="#000" stroke-linecap="round" stroke-linejoin="round" stroke-miterlimit="10" stroke-width="2"/>
            <path id="Trazado_983676" data-name="Trazado 983676" d="M375.138,285.563h2.416v-4.814H364.146v4.814h2.436" transform="translate(-364.146 -271.12)" fill="none" stroke="#000" stroke-linecap="round" stroke-linejoin="round" stroke-miterlimit="10" stroke-width="2"/>
          </g>
          <path id="Trazado_983677" data-name="Trazado 983677" d="M24.949,70.243H11.667A1.667,1.667,0,0,1,10,68.576V63.747a1.667,1.667,0,0,1,1.667-1.667H24.949a1.667,1.667,0,0,1,1.667,1.667v4.829A1.667,1.667,0,0,1,24.949,70.243Z" transform="translate(-10 -62.08)" fill="#61eaf9"/>
          <path id="Trazado_983678" data-name="Trazado 983678" d="M24.949,222.606H11.667A1.667,1.667,0,0,1,10,220.939v-4.732a1.667,1.667,0,0,1,1.667-1.667H24.949a1.667,1.667,0,0,1,1.667,1.667v4.732A1.667,1.667,0,0,1,24.949,222.606Z" transform="translate(-10 -199.711)" fill="#ffce62"/>
          <path id="Trazado_983679" data-name="Trazado 983679" d="M24.949,374.162H11.667A1.667,1.667,0,0,1,10,372.5v-4.829A1.667,1.667,0,0,1,11.667,366H24.949a1.667,1.667,0,0,1,1.667,1.667V372.5A1.667,1.667,0,0,1,24.949,374.162Z" transform="translate(-10 -336.438)" fill="#ff7e96"/>
          <path id="Trazado_983680" data-name="Trazado 983680" d="M24.949,70.243H11.667A1.667,1.667,0,0,1,10,68.576V63.747a1.667,1.667,0,0,1,1.667-1.667H24.949a1.667,1.667,0,0,1,1.667,1.667v4.829A1.667,1.667,0,0,1,24.949,70.243Z" transform="translate(-10 -62.08)" fill="none" stroke="#000" stroke-linecap="round" stroke-linejoin="round" stroke-miterlimit="10" stroke-width="2"/>
          <path id="Trazado_983681" data-name="Trazado 983681" d="M24.949,222.606H11.667A1.667,1.667,0,0,1,10,220.939v-4.732a1.667,1.667,0,0,1,1.667-1.667H24.949a1.667,1.667,0,0,1,1.667,1.667v4.732A1.667,1.667,0,0,1,24.949,222.606Z" transform="translate(-10 -199.711)" fill="none" stroke="#000" stroke-linecap="round" stroke-linejoin="round" stroke-miterlimit="10" stroke-width="2"/>
          <path id="Trazado_983682" data-name="Trazado 983682" d="M24.949,374.162H11.667A1.667,1.667,0,0,1,10,372.5v-4.829A1.667,1.667,0,0,1,11.667,366H24.949a1.667,1.667,0,0,1,1.667,1.667V372.5A1.667,1.667,0,0,1,24.949,374.162Z" transform="translate(-10 -336.438)" fill="none" stroke="#000" stroke-linecap="round" stroke-linejoin="round" stroke-miterlimit="10" stroke-width="2"/>
          <path id="Trazado_983683" data-name="Trazado 983683" d="M236.691,141.049h3.286V112.3h-3.286" transform="translate(-214.641 -107.413)" fill="none" stroke="#000" stroke-linecap="round" stroke-linejoin="round" stroke-miterlimit="10" stroke-width="2"/>
          <line id="Línea_590" data-name="Línea 590" x2="6.644" transform="translate(22.05 19.652)" fill="none" stroke="#000" stroke-linecap="round" stroke-linejoin="round" stroke-miterlimit="10" stroke-width="2"/>
          <line id="Línea_591" data-name="Línea 591" x2="8.109" transform="translate(4.174 4.139)" fill="none" stroke="#000" stroke-linecap="round" stroke-linejoin="round" stroke-miterlimit="10" stroke-width="2"/>
          <line id="Línea_592" data-name="Línea 592" x2="8.109" transform="translate(4.174 18.862)" fill="none" stroke="#000" stroke-linecap="round" stroke-linejoin="round" stroke-miterlimit="10" stroke-width="2"/>
          <line id="Línea_593" data-name="Línea 593" x2="8.109" transform="translate(4.174 33.585)" fill="none" stroke="#000" stroke-linecap="round" stroke-linejoin="round" stroke-miterlimit="10" stroke-width="2"/>
          <line id="Línea_594" data-name="Línea 594" transform="translate(41.151 26.084)" fill="none" stroke="#000" stroke-linecap="round" stroke-linejoin="round" stroke-miterlimit="10" stroke-width="2"/>
        </g>
        <rect id="Rectángulo_404728" data-name="Rectángulo 404728" width="52" height="52" transform="translate(731.718 1739.667)" fill="none"/>
      </g>
      <rect id="Rectángulo_404784" data-name="Rectángulo 404784" width="63" height="63" transform="translate(730.051 1547)" fill="none"/>
    </g>
  </g>
</svg>
