<svg xmlns="http://www.w3.org/2000/svg" width="85" height="85" viewBox="0 0 85 85">
  <g id="Grupo_1112963" data-name="Grupo 1112963" transform="translate(-390.051 -3041)">
    <rect id="Rectángulo_404746" data-name="Rectángulo 404746" width="85" height="85" transform="translate(390.051 3041)" fill="none"/>
    <g id="Grupo_1112962" data-name="Grupo 1112962" transform="translate(352.051 3052)">
      <rect id="Rectángulo_404730" data-name="Rectángulo 404730" width="38" height="14" transform="translate(62 19)" fill="#00abd5"/>
      <g id="Grupo_1112961" data-name="Grupo 1112961" transform="translate(62 1)">
        <circle id="Elipse_12018" data-name="Elipse 12018" cx="4" cy="4" r="4" transform="translate(0 5)" fill="#afb6bb"/>
        <path id="Trazado_983743" data-name="Trazado 983743" d="M385,17h-9V8Z" transform="translate(-342 -8)" fill="#afb6bb"/>
      </g>
      <rect id="Rectángulo_404731" data-name="Rectángulo 404731" width="48" height="5" transform="translate(57 58)" fill="#e7eced"/>
      <path id="Trazado_983744" data-name="Trazado 983744" d="M112,17V65H64V8h39v9Zm-5,23V26H69V40ZM77,17a4,4,0,1,0-4,4A4,4,0,0,0,77,17Z" transform="translate(-7 -7)" fill="#f1f2f2"/>
      <path id="Trazado_983745" data-name="Trazado 983745" d="M105.707,9.293l-9-9A1,1,0,0,0,96,0H57a1,1,0,0,0-1,1V63a1,1,0,0,0,1,1h48a1,1,0,0,0,1-1V10A1,1,0,0,0,105.707,9.293ZM97,3.414,102.586,9H97ZM95,2v8a1,1,0,0,0,1,1h8V57H58V2ZM58,62V59h46v3Z"/>
      <path id="Trazado_983746" data-name="Trazado 983746" d="M97,160h38a1,1,0,0,0,1-1V145a1,1,0,0,0-1-1H97a1,1,0,0,0-1,1v14A1,1,0,0,0,97,160Zm1-14h36v12H98Z" transform="translate(-35 -126)"/>
      <path id="Trazado_983747" data-name="Trazado 983747" d="M101,50a5,5,0,1,0-5-5A5.006,5.006,0,0,0,101,50Zm0-8a3,3,0,1,1-3,3A3,3,0,0,1,101,42Z" transform="translate(-35 -35)"/>
      <rect id="Rectángulo_404732" data-name="Rectángulo 404732" width="8" height="2" transform="translate(74 8)"/>
      <rect id="Rectángulo_404733" data-name="Rectángulo 404733" width="14" height="2" transform="translate(74 12)"/>
      <rect id="Rectángulo_404734" data-name="Rectángulo 404734" width="2" height="2" transform="translate(84 8)"/>
      <rect id="Rectángulo_404735" data-name="Rectángulo 404735" width="2" height="2" transform="translate(61 36.999)"/>
      <rect id="Rectángulo_404736" data-name="Rectángulo 404736" width="34" height="2" transform="translate(65 36.999)"/>
      <rect id="Rectángulo_404737" data-name="Rectángulo 404737" width="30" height="2" transform="translate(65 40.999)"/>
      <rect id="Rectángulo_404738" data-name="Rectángulo 404738" width="2" height="2" transform="translate(65 45.999)"/>
      <rect id="Rectángulo_404739" data-name="Rectángulo 404739" width="12" height="2" transform="translate(69 45.999)"/>
      <rect id="Rectángulo_404740" data-name="Rectángulo 404740" width="2" height="2" transform="translate(83 45.999)"/>
      <rect id="Rectángulo_404741" data-name="Rectángulo 404741" width="12" height="2" transform="translate(87 45.999)"/>
      <rect id="Rectángulo_404742" data-name="Rectángulo 404742" width="2" height="2" transform="translate(65 51.999)"/>
      <rect id="Rectángulo_404743" data-name="Rectángulo 404743" width="12" height="2" transform="translate(69 51.999)"/>
      <rect id="Rectángulo_404744" data-name="Rectángulo 404744" width="2" height="2" transform="translate(83 51.999)"/>
      <rect id="Rectángulo_404745" data-name="Rectángulo 404745" width="12" height="2" transform="translate(87 51.999)"/>
    </g>
  </g>
</svg>
