<svg xmlns="http://www.w3.org/2000/svg" width="85" height="85" viewBox="0 0 85 85">
  <g id="Grupo_1113053" data-name="Grupo 1113053" transform="translate(-279.051 -5227)">
    <rect id="Rectángulo_404762" data-name="Rectángulo 404762" width="85" height="85" transform="translate(279.051 5227)" fill="none"/>
    <g id="Grupo_1113002" data-name="Grupo 1113002" transform="translate(281.048 5229)">
      <g id="Grupo_1113000" data-name="Grupo 1113000" transform="translate(1.177 1.176)">
        <g id="Grupo_1112978" data-name="Grupo 1112978" transform="translate(0 25.186)">
          <path id="Trazado_983838" data-name="Trazado 983838" d="M10.635,168.345H60.153a3.132,3.132,0,0,1,3.132,3.132v46.377a3.132,3.132,0,0,1-3.132,3.132H10.635A3.132,3.132,0,0,1,7.5,217.853V171.477a3.132,3.132,0,0,1,3.132-3.132Z" transform="translate(-7.503 -168.345)" fill="#e8edf2"/>
        </g>
        <g id="Grupo_1112979" data-name="Grupo 1112979" transform="translate(11.406 25.186)">
          <path id="Trazado_983839" data-name="Trazado 983839" d="M124.718,171.477a3.132,3.132,0,0,0-3.132-3.132H83.977l-2.216,3.915a7.232,7.232,0,0,0,4.024,10.423l-3.216,4.769-.235.348.011.008a7.1,7.1,0,0,0-.887,2.442L80.415,196.6a5.484,5.484,0,0,0,5.41,6.372h0a5.476,5.476,0,0,0,2.848-.8l5.5-3.349a6.991,6.991,0,0,0,1.931-1.737l.011.007,1.949-2.891a6.789,6.789,0,0,0,4.524,1.723h1.3a6.779,6.779,0,0,0,2.9-.649,6.779,6.779,0,0,0,2.9.649h1.3a6.828,6.828,0,0,0,6.3-4.215q.628.052,1.264.052h6.161V171.477Z" transform="translate(-80.342 -168.345)" fill="#c5d3dd"/>
        </g>
        <g id="Grupo_1112980" data-name="Grupo 1112980" transform="translate(0 25.186)">
          <path id="Trazado_983840" data-name="Trazado 983840" d="M11.487,217.853V171.477a3.132,3.132,0,0,1,3.132-3.132H10.635A3.132,3.132,0,0,0,7.5,171.477v46.377a3.132,3.132,0,0,0,3.132,3.132h3.984A3.132,3.132,0,0,1,11.487,217.853Z" transform="translate(-7.503 -168.345)" fill="#c5d3dd"/>
        </g>
        <g id="Grupo_1112981" data-name="Grupo 1112981" transform="translate(15.798 16.244)">
          <path id="Trazado_983841" data-name="Trazado 983841" d="M153.118,117.9a7.332,7.332,0,0,1-3.886-1.114l-8.871-5.545H121.952a8.164,8.164,0,0,0-7.105,4.143l-6.023,10.643a3.307,3.307,0,0,0,2.878,4.936h2.277v1.09a3.915,3.915,0,0,0,3.915,3.915h5.45l2.593,3.543h9.753l1.86-.835.139.061a11.225,11.225,0,0,0,4.523.951h9.676a11.224,11.224,0,0,0,3.221-.472l4.174-1.25V117.9Z" transform="translate(-108.39 -111.241)" fill="#ffb8a9"/>
        </g>
        <g id="Grupo_1112982" data-name="Grupo 1112982" transform="translate(30.752 40.97)">
          <path id="Trazado_983842" data-name="Trazado 983842" d="M211.211,269.141h-7.328v4.98a2.9,2.9,0,0,0,2.9,2.9h1.3a2.9,2.9,0,0,0,2.9-2.9,2.9,2.9,0,0,0,2.9,2.9h1.3a2.9,2.9,0,0,0,2.9-2.9v-2.272l-5.487-2.415A3.456,3.456,0,0,0,211.211,269.141Z" transform="translate(-203.883 -269.141)" fill="#ff947e"/>
        </g>
        <g id="Grupo_1112983" data-name="Grupo 1112983" transform="translate(15.798 16.244)">
          <path id="Trazado_983843" data-name="Trazado 983843" d="M111.857,126.025l6.023-10.643a8.164,8.164,0,0,1,7.105-4.143h-3.035a8.164,8.164,0,0,0-7.105,4.143l-6.023,10.643a3.307,3.307,0,0,0,2.878,4.936h3.035A3.307,3.307,0,0,1,111.857,126.025Z" transform="translate(-108.389 -111.24)" fill="#ff947e"/>
        </g>
        <g id="Grupo_1112984" data-name="Grupo 1112984" transform="translate(15.321 43.584)">
          <path id="Trazado_983844" data-name="Trazado 983844" d="M108.852,285.836l-1.953,2.9a3.133,3.133,0,0,0-.494,1.244l-1.043,6.355a1.566,1.566,0,0,0,2.36,1.591l5.5-3.349a3.134,3.134,0,0,0,.968-.924l1.953-2.9Z" transform="translate(-105.34 -285.836)" fill="#4a80aa"/>
        </g>
        <g id="Grupo_1112987" data-name="Grupo 1112987" transform="translate(18.833)">
          <g id="Grupo_1112986" data-name="Grupo 1112986">
            <g id="Grupo_1112985" data-name="Grupo 1112985">
              <path id="Trazado_983845" data-name="Trazado 983845" d="M135.059,56.007l-7.291-4.917L156.693,8.2a1.566,1.566,0,0,1,2.174-.423l4.695,3.166a1.566,1.566,0,0,1,.423,2.174Z" transform="translate(-127.768 -7.506)" fill="#dd636e"/>
            </g>
          </g>
        </g>
        <g id="Grupo_1112988" data-name="Grupo 1112988" transform="translate(15.32 43.584)">
          <path id="Trazado_983846" data-name="Trazado 983846" d="M109.021,291.742a3.134,3.134,0,0,1,.494-1.244l1.953-2.9-2.617-1.765-1.953,2.9a3.134,3.134,0,0,0-.494,1.244l-1.043,6.355a1.566,1.566,0,0,0,2.36,1.591l.318-.194Z" transform="translate(-105.339 -285.836)" fill="#407093"/>
        </g>
        <g id="Grupo_1112991" data-name="Grupo 1112991" transform="translate(18.833 0)">
          <g id="Grupo_1112990" data-name="Grupo 1112990">
            <g id="Grupo_1112989" data-name="Grupo 1112989">
              <path id="Trazado_983847" data-name="Trazado 983847" d="M161.485,9.539l-2.617-1.765a1.566,1.566,0,0,0-2.174.423L127.769,51.09l2.617,1.765L159.311,9.961a1.566,1.566,0,0,1,2.174-.423Z" transform="translate(-127.769 -7.506)" fill="#c63d4f"/>
            </g>
          </g>
        </g>
        <g id="Grupo_1112992" data-name="Grupo 1112992" transform="translate(21.387 28.693)">
          <path id="Trazado_983848" data-name="Trazado 983848" d="M166.965,193.512a3.445,3.445,0,0,1-2.314.893H147.5a3.42,3.42,0,0,0-3.42,3.42V199.1a3.915,3.915,0,0,0,3.915,3.915h12.778l9.249-12.277Z" transform="translate(-144.078 -190.741)" fill="#ffb8a9"/>
        </g>
        <g id="Grupo_1112993" data-name="Grupo 1112993" transform="translate(21.387 32.358)">
          <path id="Trazado_983849" data-name="Trazado 983849" d="M146.7,218.839v-1.278a3.42,3.42,0,0,1,3.42-3.42H147.5a3.42,3.42,0,0,0-3.42,3.42v1.278a3.915,3.915,0,0,0,3.915,3.915h2.619A3.915,3.915,0,0,1,146.7,218.839Z" transform="translate(-144.078 -214.141)" fill="#ff947e"/>
        </g>
        <g id="Grupo_1112996" data-name="Grupo 1112996" transform="translate(65.424 18.151)">
          <g id="Grupo_1112995" data-name="Grupo 1112995">
            <g id="Grupo_1112994" data-name="Grupo 1112994">
              <path id="Trazado_983850" data-name="Trazado 983850" d="M425.3,124.987v28.461a1.566,1.566,0,0,0,1.566,1.566h9.27a1.566,1.566,0,0,0,1.566-1.566V124.987a1.566,1.566,0,0,0-1.566-1.566h-9.27A1.566,1.566,0,0,0,425.3,124.987Z" transform="translate(-425.303 -123.421)" fill="#90d8f9"/>
            </g>
          </g>
        </g>
        <g id="Grupo_1112999" data-name="Grupo 1112999" transform="translate(65.424 18.151)">
          <g id="Grupo_1112998" data-name="Grupo 1112998">
            <g id="Grupo_1112997" data-name="Grupo 1112997">
              <path id="Trazado_983851" data-name="Trazado 983851" d="M428.4,153.447V124.987a1.566,1.566,0,0,1,1.566-1.566h-3.1a1.566,1.566,0,0,0-1.566,1.566v28.461a1.566,1.566,0,0,0,1.566,1.566h3.1A1.566,1.566,0,0,1,428.4,153.447Z" transform="translate(-425.303 -123.421)" fill="#75cef9"/>
            </g>
          </g>
        </g>
      </g>
      <g id="Grupo_1113001" data-name="Grupo 1113001" transform="translate(0.003 0)">
        <path id="Trazado_983852" data-name="Trazado 983852" d="M1.177,175.355a1.174,1.174,0,0,0,1.174-1.174v-9.029a1.96,1.96,0,0,1,1.957-1.957h9.58a1.174,1.174,0,0,0,0-2.349H4.309A4.311,4.311,0,0,0,0,165.151v9.029a1.174,1.174,0,0,0,1.174,1.174Z" transform="translate(-0.003 -135.658)"/>
        <path id="Trazado_983853" data-name="Trazado 983853" d="M56.959,281.155a1.174,1.174,0,0,0-1.174,1.174v24.638a1.96,1.96,0,0,1-1.957,1.957H4.309a1.96,1.96,0,0,1-1.957-1.957V275.179a1.174,1.174,0,0,0-2.349,0v31.788a4.311,4.311,0,0,0,4.306,4.306H53.827a4.311,4.311,0,0,0,4.306-4.306V282.33A1.174,1.174,0,0,0,56.959,281.155Z" transform="translate(-0.003 -231.098)"/>
        <path id="Trazado_983854" data-name="Trazado 983854" d="M161.522,28.455A1.174,1.174,0,0,0,162.7,27.28V20.893a2.744,2.744,0,0,0-2.74-2.74h-9.27a2.744,2.744,0,0,0-2.74,2.74V22.9h-3.723a6.149,6.149,0,0,1-3.263-.936l-7.766-4.853,4.027-5.972h0l2.5-3.7a2.74,2.74,0,0,0-.74-3.8L134.283.47a2.74,2.74,0,0,0-3.8.74L120.34,16.246h-7.284a9.354,9.354,0,0,0-8.127,4.739L98.905,31.627a4.482,4.482,0,0,0,3.9,6.689h1.1a5.055,5.055,0,0,0,.352,1.775L99.6,47a4.336,4.336,0,0,0-.679,1.71l-1.043,6.355a2.735,2.735,0,0,0,4.129,2.785l5.5-3.349a4.277,4.277,0,0,0,1.331-1.27l4.433-6.574v.469A4.082,4.082,0,0,0,117.35,51.2h1.3a4.065,4.065,0,0,0,2.9-1.218,4.065,4.065,0,0,0,2.9,1.218h1.3a4.082,4.082,0,0,0,4.078-4.078v-.589a12.328,12.328,0,0,0,3.488.5h9.676a12.39,12.39,0,0,0,3.558-.521l1.4-.418v3.252a2.744,2.744,0,0,0,2.74,2.74h9.27a2.744,2.744,0,0,0,2.74-2.74V33.468a1.174,1.174,0,1,0-2.349,0V49.354a.392.392,0,0,1-.391.391h-9.27a.392.392,0,0,1-.391-.391V20.893a.392.392,0,0,1,.391-.391h9.27a.392.392,0,0,1,.391.391V27.28a1.174,1.174,0,0,0,1.174,1.174Zm-49.215,3.9L129.272,7.2l5.344,3.6L120.081,32.359ZM132.426,2.523a.391.391,0,0,1,.543-.106l4.695,3.166a.392.392,0,0,1,.106.544l-1.84,2.729-5.344-3.6ZM100.963,34.908a2.112,2.112,0,0,1-.014-2.124l6.023-10.642a7,7,0,0,1,6.083-3.547h5.7l-9.282,13.764H108.5a4.6,4.6,0,0,0-4.487,3.608h-1.21a2.113,2.113,0,0,1-1.842-1.059Zm8.54,13.138-5.344-3.6,1.565-2.32A5.065,5.065,0,0,0,109,43.32h3.692Zm-2.61,3.871a1.942,1.942,0,0,1-.605.578l-5.5,3.349a.392.392,0,0,1-.59-.4l1.043-6.355a1.973,1.973,0,0,1,.309-.777l1.3-1.923,5.344,3.6Zm11.755-3.062h-1.3a1.731,1.731,0,0,1-1.729-1.729V43.32h4.754v3.806A1.731,1.731,0,0,1,118.647,48.855Zm7.1,0h-1.3a1.731,1.731,0,0,1-1.729-1.729v-3.6l4.754,2.093v1.506a1.731,1.731,0,0,1-1.729,1.729Zm20.125-4.585a10.046,10.046,0,0,1-2.884.422h-9.676a9.993,9.993,0,0,1-4.05-.852l-5.627-2.477a4.6,4.6,0,0,0-1.864-.392H109a2.744,2.744,0,0,1-2.74-2.74V36.953a2.248,2.248,0,0,1,2.246-2.246h17.152a4.612,4.612,0,0,0,3.1-1.2l3.055-2.771A1.174,1.174,0,0,0,130.235,29L127.18,31.77a2.266,2.266,0,0,1-1.526.589h-2.741l8.965-13.3,7.835,4.9a8.5,8.5,0,0,0,4.508,1.293h3.723v18.4Z" transform="translate(-82.521 0)"/>
        <path id="Trazado_983855" data-name="Trazado 983855" d="M42.757,359.355h2.988a1.174,1.174,0,1,0,0-2.349H42.757a1.174,1.174,0,1,0,0,2.349Z" transform="translate(-35.072 -301.102)"/>
        <path id="Trazado_983856" data-name="Trazado 983856" d="M85.152,396.946H42.757a1.174,1.174,0,1,0,0,2.349H85.152a1.174,1.174,0,0,0,0-2.349Z" transform="translate(-35.072 -334.787)"/>
        <path id="Trazado_983857" data-name="Trazado 983857" d="M85.152,436.887H42.757a1.174,1.174,0,0,0,0,2.349H85.152a1.174,1.174,0,0,0,0-2.349Z" transform="translate(-35.072 -368.474)"/>
      </g>
    </g>
  </g>
</svg>
