<svg xmlns="http://www.w3.org/2000/svg" width="116" height="116" viewBox="0 0 116 116">
  <g id="Grupo_1113058" data-name="Grupo 1113058" transform="translate(-1267.718 -842)">
    <rect id="Rectángulo_404767" data-name="Rectángulo 404767" width="116" height="116" transform="translate(1267.718 842)" fill="none"/>
    <g id="Layer_x0020_1" transform="translate(1274.718 855)">
      <path id="Trazado_983980" data-name="Trazado 983980" d="M851.2,549.309a1.2,1.2,0,0,1-1.2-1.2v-8.148a1.2,1.2,0,1,1,2.4,0v8.148A1.165,1.165,0,0,1,851.2,549.309Z" transform="translate(-799.076 -513.063)" fill-rule="evenodd"/>
      <path id="Trazado_983981" data-name="Trazado 983981" d="M760.986,189.765a1.159,1.159,0,0,1-1.138-.959c-1.138-5.751.6-8.807,6.53-8.807,3.115,0,5.871,1.8,6.231,3.834a12.452,12.452,0,0,1-.12,4.793c-.479,2.336-4.134-.06-5.512-1.258A14.288,14.288,0,0,1,760.986,189.765Zm5.392-7.369c-3.595,0-4.793,1.018-4.373,4.733,3.774-1.2,4.733-3.355,5.931-2.157a13.435,13.435,0,0,0,2.4,1.917,9.449,9.449,0,0,0-.06-2.456C769.673,183.055,768.355,182.4,766.378,182.4Z" transform="translate(-714.016 -175.806)" fill-rule="evenodd"/>
      <path id="Trazado_983982" data-name="Trazado 983982" d="M770.115,310.005c-3.475,0-6.351-3.175-6.351-7.129,0-1.018-.24-2.7,1.2-2.7,1.5,0,1.2,1.678,1.2,2.7,0,6.231,7.968,6.231,7.968,0,0-1.138-.3-2.876,1.2-2.876s1.2,1.737,1.2,2.876C776.526,306.83,773.65,310.005,770.115,310.005Z" transform="translate(-717.993 -288.617)" fill-rule="evenodd"/>
      <path id="Trazado_983983" data-name="Trazado 983983" d="M809.577,485.727a1.25,1.25,0,0,1-.959-.479l-2.636-3.535a1.2,1.2,0,0,1,1.917-1.438l1.678,2.217c1.138-1.438,2.1-3.415,3.415-2.456a1.217,1.217,0,0,1,.24,1.677l-2.7,3.535A1.088,1.088,0,0,1,809.577,485.727Z" transform="translate(-757.455 -457.629)" fill-rule="evenodd"/>
      <path id="Trazado_983984" data-name="Trazado 983984" d="M586.093,146.246a18.123,18.123,0,1,1,18.153-18.153A18.167,18.167,0,0,1,586.093,146.246Zm0-33.849a15.727,15.727,0,1,0,15.756,15.7A15.751,15.751,0,0,0,586.093,112.4Z" transform="translate(-533.971 -110)" fill-rule="evenodd"/>
      <path id="Trazado_983985" data-name="Trazado 983985" d="M688.2,489.988a1.2,1.2,0,0,1-1.2-1.2V484.6c0-4.433,9.526-7.369,9.526-4.314,0,1.258-1.258,1.2-1.917,1.2-1.977,0-5.212,1.678-5.212,3.115v4.194A1.2,1.2,0,0,1,688.2,489.988Zm19.591,0c-1.917,0-.959-3.055-1.2-5.332-.12-1.438-3.056-3.175-5.931-3.175a1.2,1.2,0,1,1,0-2.4c3.535,0,7.848,2.1,8.328,5.332v4.373A1.2,1.2,0,0,1,707.789,489.988Z" transform="translate(-645.841 -456.918)" fill-rule="evenodd"/>
      <path id="Trazado_983986" data-name="Trazado 983986" d="M851.2,1432.014a1.2,1.2,0,0,1-1.2-1.2v-8.148a1.2,1.2,0,0,1,2.4,0v8.148A1.165,1.165,0,0,1,851.2,1432.014Z" transform="translate(-799.076 -1342.927)" fill-rule="evenodd"/>
      <path id="Trazado_983987" data-name="Trazado 983987" d="M760.986,1071.766a1.159,1.159,0,0,1-1.138-.959c-1.138-5.692.6-8.807,6.53-8.807,3.115,0,5.871,1.8,6.231,3.894a12.392,12.392,0,0,1-.12,4.793c-.479,2.277-4.134-.12-5.512-1.318A14.588,14.588,0,0,1,760.986,1071.766Zm5.392-7.369c-3.595,0-4.793,1.018-4.373,4.733,3.774-1.2,4.733-3.355,5.931-2.1a16.206,16.206,0,0,0,2.4,1.857,9.609,9.609,0,0,0-.06-2.456C769.673,1065.055,768.355,1064.4,766.378,1064.4Z" transform="translate(-714.016 -1004.965)" fill-rule="evenodd"/>
      <path id="Trazado_983988" data-name="Trazado 983988" d="M770.115,1192c-3.475,0-6.351-3.175-6.351-7.129,0-1.018-.24-2.7,1.2-2.7,1.5,0,1.2,1.678,1.2,2.7,0,6.291,7.968,6.291,7.968,0,0-1.138-.3-2.876,1.2-2.876s1.2,1.737,1.2,2.876C776.526,1188.83,773.65,1192,770.115,1192Z" transform="translate(-717.993 -1117.776)" fill-rule="evenodd"/>
      <path id="Trazado_983989" data-name="Trazado 983989" d="M809.845,1367.733a1.25,1.25,0,0,1-.959-.479l-2.636-3.535a1.2,1.2,0,0,1,1.917-1.438l1.677,2.277c1.138-1.5,2.1-3.475,3.415-2.516a1.226,1.226,0,0,1,.24,1.677l-2.7,3.535A1.088,1.088,0,0,1,809.845,1367.733Z" transform="translate(-757.723 -1286.794)" fill-rule="evenodd"/>
      <path id="Trazado_983990" data-name="Trazado 983990" d="M688.2,1372.562a1.2,1.2,0,0,1-1.2-1.2v-4.194c0-4.373,9.526-7.309,9.526-4.314,0,1.258-1.258,1.2-1.917,1.2-1.977,0-5.212,1.677-5.212,3.115v4.194A1.2,1.2,0,0,1,688.2,1372.562Zm19.591,0c-1.917,0-.959-3.055-1.2-5.332-.12-1.438-3.056-3.175-5.931-3.175a1.2,1.2,0,1,1,0-2.4c3.535,0,7.848,2.1,8.328,5.332v4.373A1.2,1.2,0,0,1,707.789,1372.562Z" transform="translate(-645.841 -1286.65)" fill-rule="evenodd"/>
      <path id="Trazado_983991" data-name="Trazado 983991" d="M283.2,991.014a1.2,1.2,0,0,1-1.2-1.2v-8.148a1.2,1.2,0,0,1,2.4,0v8.148A1.2,1.2,0,0,1,283.2,991.014Z" transform="translate(-265.105 -928.348)" fill-rule="evenodd"/>
      <path id="Trazado_983992" data-name="Trazado 983992" d="M192.48,630.765a1.277,1.277,0,0,1-1.2-.959c-1.078-5.751.659-8.807,6.59-8.807,3,0,5.152,1.258,6.171,3.595.06.18,1.018,5.751-1.078,5.991-1.5.18-3.415-1.258-4.493-2.217A14.584,14.584,0,0,1,192.48,630.765Zm5.392-7.369c-3.595,0-4.793,1.018-4.373,4.733,3.774-1.2,4.733-3.355,5.931-2.157a13.433,13.433,0,0,0,2.4,1.917,9.448,9.448,0,0,0-.06-2.456C201.167,624.055,199.849,623.4,197.872,623.4Z" transform="translate(-179.539 -590.386)" fill-rule="evenodd"/>
      <path id="Trazado_983993" data-name="Trazado 983993" d="M202.115,751.005c-3.475,0-6.351-3.175-6.351-7.129,0-1.018-.24-2.7,1.2-2.7s1.2,1.677,1.2,2.7c0,6.231,7.968,6.231,7.968,0,0-1.138-.3-2.876,1.2-2.876s1.2,1.737,1.2,2.876C208.526,747.83,205.65,751.005,202.115,751.005Z" transform="translate(-184.023 -703.197)" fill-rule="evenodd"/>
      <path id="Trazado_983994" data-name="Trazado 983994" d="M241.5,926.728a1.25,1.25,0,0,1-.959-.479l-2.636-3.535a1.2,1.2,0,0,1,1.917-1.438l1.677,2.217c1.138-1.438,2.1-3.415,3.415-2.456a1.217,1.217,0,0,1,.24,1.677l-2.7,3.535A1.088,1.088,0,0,1,241.5,926.728Z" transform="translate(-223.402 -872.209)" fill-rule="evenodd"/>
      <path id="Trazado_983995" data-name="Trazado 983995" d="M18.093,587.246a18.123,18.123,0,1,1,18.153-18.153A18.167,18.167,0,0,1,18.093,587.246Zm0-33.849a15.727,15.727,0,1,0,15.756,15.7A15.751,15.751,0,0,0,18.093,553.4Z" transform="translate(0 -524.579)" fill-rule="evenodd"/>
      <path id="Trazado_983996" data-name="Trazado 983996" d="M120.2,931.562a1.2,1.2,0,0,1-1.2-1.2V926.17c0-4.373,9.526-7.309,9.526-4.314,0,1.258-1.258,1.2-1.917,1.2-1.977,0-5.212,1.677-5.212,3.115v4.194A1.2,1.2,0,0,1,120.2,931.562Zm19.591,0c-1.917,0-.959-3.055-1.2-5.332-.12-1.438-3.055-3.175-5.931-3.175a1.2,1.2,0,1,1,0-2.4c3.535,0,7.848,2.1,8.328,5.332v4.374A1.2,1.2,0,0,1,139.789,931.562Z" transform="translate(-111.871 -872.071)" fill-rule="evenodd"/>
      <path id="Trazado_983997" data-name="Trazado 983997" d="M1385.2,991.014a1.2,1.2,0,0,1-1.2-1.2v-8.148a1.2,1.2,0,0,1,2.4,0v8.148A1.2,1.2,0,0,1,1385.2,991.014Z" transform="translate(-1301.084 -928.348)" fill-rule="evenodd"/>
      <path id="Trazado_983998" data-name="Trazado 983998" d="M1294.133,630.765a1.224,1.224,0,0,1-1.2-.959c-1.138-5.692.659-8.807,6.59-8.807,3.115,0,5.871,1.8,6.231,3.894a12.052,12.052,0,0,1-.12,4.733c-.479,2.336-4.134-.06-5.512-1.258A14.584,14.584,0,0,1,1294.133,630.765Zm5.392-7.369c-3.654,0-4.793,1.018-4.433,4.733,3.834-1.2,4.793-3.355,5.991-2.157a13.438,13.438,0,0,0,2.4,1.917,9.445,9.445,0,0,0-.06-2.456C1302.82,624.055,1301.5,623.4,1299.525,623.4Z" transform="translate(-1215.171 -590.386)" fill-rule="evenodd"/>
      <path id="Trazado_983999" data-name="Trazado 983999" d="M1304.116,751.005c-3.475,0-6.351-3.175-6.351-7.129,0-1.018-.24-2.7,1.2-2.7s1.2,1.677,1.2,2.7c0,6.231,7.968,6.231,7.968,0,0-1.138-.3-2.876,1.2-2.876,1.438,0,1.2,1.737,1.2,2.876C1310.526,747.83,1307.65,751.005,1304.116,751.005Z" transform="translate(-1220.001 -703.197)" fill-rule="evenodd"/>
      <path id="Trazado_984000" data-name="Trazado 984000" d="M1343.495,926.728a1.25,1.25,0,0,1-.958-.479l-2.636-3.535a1.2,1.2,0,0,1,1.917-1.438l1.677,2.217c1.138-1.438,2.1-3.415,3.355-2.456a1.165,1.165,0,0,1,.24,1.677l-2.636,3.535A1.164,1.164,0,0,1,1343.495,926.728Z" transform="translate(-1259.381 -872.209)" fill-rule="evenodd"/>
      <path id="Trazado_984001" data-name="Trazado 984001" d="M1120.093,587.246a18.123,18.123,0,1,1,18.153-18.153A18.167,18.167,0,0,1,1120.093,587.246Zm0-33.849a15.727,15.727,0,1,0,15.756,15.7A15.75,15.75,0,0,0,1120.093,553.4Z" transform="translate(-1035.979 -524.579)" fill-rule="evenodd"/>
      <path id="Trazado_984002" data-name="Trazado 984002" d="M1221.2,931.562a1.2,1.2,0,0,1-1.2-1.2V926.17c.06-4.373,9.586-7.309,9.586-4.314,0,1.258-1.258,1.2-1.917,1.2-2.037,0-5.272,1.677-5.272,3.115v4.194A1.2,1.2,0,0,1,1221.2,931.562Zm19.651,0c-1.917,0-.958-3.055-1.2-5.332-.12-1.438-3.055-3.175-5.991-3.175a1.2,1.2,0,0,1,0-2.4c3.534,0,7.908,2.1,8.387,5.332v4.374A1.2,1.2,0,0,1,1240.849,931.562Z" transform="translate(-1146.909 -872.071)" fill-rule="evenodd"/>
      <path id="Trazado_984003" data-name="Trazado 984003" d="M420.981,473.829a1.432,1.432,0,0,1-.839-.3l-9.586-9.586a1.208,1.208,0,0,1,1.737-1.677l9.526,9.526A1.193,1.193,0,0,1,420.981,473.829Zm33.31-1.737a1.213,1.213,0,0,1-.839-2.037l7.788-7.788a1.186,1.186,0,1,1,1.677,1.677l-7.728,7.788A1.219,1.219,0,0,1,454.291,472.092Zm7.788-37.923a1.183,1.183,0,0,1-.839-.359l-7.788-7.788a1.208,1.208,0,0,1,1.737-1.677l7.728,7.728A1.222,1.222,0,0,1,462.079,434.168Zm-50.684,0a1.25,1.25,0,0,1-.839-2.1l9.586-9.526c1.078-1.078,2.816.6,1.677,1.677l-9.526,9.586A1.219,1.219,0,0,1,411.4,434.168Z" transform="translate(-385.634 -403.494)" fill-rule="evenodd"/>
      <path id="Trazado_984004" data-name="Trazado 984004" d="M586.093,1028.246a18.123,18.123,0,1,1,18.153-18.153A18.167,18.167,0,0,1,586.093,1028.246Zm0-33.849a15.726,15.726,0,1,0,15.756,15.7A15.75,15.75,0,0,0,586.093,994.4Z" transform="translate(-533.971 -939.159)" fill-rule="evenodd"/>
      <path id="Trazado_984005" data-name="Trazado 984005" d="M66.72,617.9a15.51,15.51,0,0,0,4.733-11.2A15.727,15.727,0,0,0,40,606.7a15.51,15.51,0,0,0,4.733,11.2v-1.618c0-3.355,5.632-5.871,8.208-5.512a1.084,1.084,0,0,1,1.078.479l1.677,2.217c.6-.719,1.138-1.618,1.677-2.157a.958.958,0,0,1,.779-.539.662.662,0,0,1,.479,0c3.475.06,7.609,2.157,8.088,5.332Zm-4.613-16.6a13.5,13.5,0,0,1,0,1.558c0,3.954-2.876,7.129-6.41,7.129-3.475,0-6.351-3.175-6.351-7.129a10.564,10.564,0,0,1,0-1.378c-1.078-5.632.719-8.687,6.59-8.687,3,0,5.152,1.258,6.171,3.595A11.655,11.655,0,0,1,62.107,601.3Z" transform="translate(-37.604 -562.183)" fill="#6496af" fill-rule="evenodd"/>
      <path id="Trazado_984006" data-name="Trazado 984006" d="M608.12,167.554a15.471,15.471,0,0,0,4.613,9.346v-1.618c0-3.415,5.632-5.871,8.208-5.512a1.043,1.043,0,0,1,1.078.479l1.678,2.217c.6-.719,1.138-1.618,1.677-2.157a1.06,1.06,0,0,1,.839-.539.382.382,0,0,1,.359,0c3.535.06,7.669,2.157,8.148,5.332v1.8a15.043,15.043,0,0,0,4.314-7.728c0-.06.06-.12.06-.24a14.087,14.087,0,0,0,.359-3.235,15.727,15.727,0,0,0-31.453,0c0,.539.06,1.078.06,1.558A.652.652,0,0,1,608.12,167.554Zm15.577,1.438c-3.475,0-6.351-3.175-6.351-7.129a10.57,10.57,0,0,1,0-1.378c-1.078-5.632.719-8.687,6.59-8.687,3.115,0,5.871,1.8,6.231,3.834a12.565,12.565,0,0,1-.06,4.673,13.494,13.494,0,0,1,0,1.558C630.107,165.816,627.231,168.992,623.7,168.992Z" transform="translate(-571.574 -147.604)" fill="#89d3e5" fill-rule="evenodd"/>
      <path id="Trazado_984007" data-name="Trazado 984007" d="M1157.7,591a15.717,15.717,0,0,0-11.024,26.9v-1.618c.06-3.355,5.632-5.871,8.268-5.512a1.084,1.084,0,0,1,1.078.479l1.678,2.217a22.507,22.507,0,0,1,1.677-2.157.958.958,0,0,1,.779-.539.507.507,0,0,1,.419,0c3.535.06,7.668,2.157,8.148,5.332v1.8A15.676,15.676,0,0,0,1157.7,591Zm0,18.992c-3.475,0-6.351-3.175-6.351-7.129a10.582,10.582,0,0,1,0-1.378c-1.078-5.632.659-8.687,6.59-8.687,3.115,0,5.871,1.8,6.231,3.894a13.723,13.723,0,0,1-.06,4.613v1.558C1164.107,606.816,1161.231,609.992,1157.7,609.992Z" transform="translate(-1073.582 -562.183)" fill="#0ca78f" fill-rule="evenodd"/>
      <path id="Trazado_984008" data-name="Trazado 984008" d="M1265.272,961c-2.037,0-5.272,1.678-5.272,3.115v3.595a16.625,16.625,0,0,0,7.429,2.516v-6.47L1265.392,961Z" transform="translate(-1184.513 -910.016)" fill="#f4cf1c" fill-rule="evenodd"/>
      <path id="Trazado_984009" data-name="Trazado 984009" d="M1424,963.756v6.47a15.694,15.694,0,0,0,7.369-2.516,34.416,34.416,0,0,0,.06-3.535c-.12-1.318-2.7-2.936-5.392-3.175Z" transform="translate(-1338.688 -910.016)" fill="#f4cf1c" fill-rule="evenodd"/>
      <path id="Trazado_984010" data-name="Trazado 984010" d="M1338,746.7c0,6.231,7.968,6.231,7.968,0,0-.24-.06-.479-.06-.719a12.689,12.689,0,0,1-3.115-1.977,16.727,16.727,0,0,1-4.793,2.157Z" transform="translate(-1257.84 -706.017)" fill="#fed2a4" fill-rule="evenodd"/>
      <path id="Trazado_984011" data-name="Trazado 984011" d="M1333.011,665.733c3.834-1.2,4.793-3.355,5.991-2.157a13.427,13.427,0,0,0,2.4,1.917,9.45,9.45,0,0,0-.06-2.456c-.6-1.378-1.917-2.037-3.894-2.037C1333.789,661,1332.651,662.018,1333.011,665.733Z" transform="translate(-1253.09 -627.989)" fill="#333" fill-rule="evenodd"/>
      <path id="Trazado_984012" data-name="Trazado 984012" d="M897.429,526.71c-.06-1.078.12-2.4,0-3.535-.12-1.378-2.636-2.936-5.392-3.175L890,522.7v6.53A16.374,16.374,0,0,0,897.429,526.71Z" transform="translate(-836.68 -495.437)" fill="#f25c5c" fill-rule="evenodd"/>
      <path id="Trazado_984013" data-name="Trazado 984013" d="M734.369,529.226V522.7l-2.037-2.7h-.12c-1.977,0-5.212,1.677-5.212,3.115v3.595A16.381,16.381,0,0,0,734.369,529.226Z" transform="translate(-683.445 -495.437)" fill="#f25c5c" fill-rule="evenodd"/>
      <path id="Trazado_984014" data-name="Trazado 984014" d="M804,305.7c0,6.231,7.968,6.231,7.968,0v-.719A13.142,13.142,0,0,1,808.793,303,16.041,16.041,0,0,1,804,305.157Z" transform="translate(-755.832 -291.437)" fill="#fed2a4" fill-rule="evenodd"/>
      <path id="Trazado_984015" data-name="Trazado 984015" d="M799.746,224.733c3.774-1.2,4.733-3.355,5.931-2.157a13.434,13.434,0,0,0,2.4,1.917,9.448,9.448,0,0,0-.06-2.456c-.6-1.378-1.917-2.037-3.894-2.037C800.525,220,799.327,221.018,799.746,224.733Z" transform="translate(-751.758 -213.41)" fill="#333" fill-rule="evenodd"/>
      <path id="Trazado_984016" data-name="Trazado 984016" d="M639.453,1047.7a15.712,15.712,0,0,0-31.333-1.677v.06a14.71,14.71,0,0,0-.12,1.618,15.408,15.408,0,0,0,4.733,11.2v-1.618c0-3.355,5.632-5.871,8.208-5.512a1.043,1.043,0,0,1,1.078.479l1.678,2.277a26.548,26.548,0,0,1,1.677-2.217,1.061,1.061,0,0,1,.839-.539.983.983,0,0,1,.419,0c3.475.06,7.609,2.157,8.088,5.332v1.8A15.408,15.408,0,0,0,639.453,1047.7Zm-9.346-3.834c0,3.954-2.876,7.129-6.41,7.129-3.475,0-6.351-3.175-6.351-7.129a10.568,10.568,0,0,1,0-1.378c-1.078-5.632.719-8.687,6.59-8.687,3.115,0,5.871,1.8,6.231,3.894a12.133,12.133,0,0,1-.06,4.613A13.491,13.491,0,0,1,630.107,1043.862Z" transform="translate(-571.574 -976.762)" fill="#f4cf1c" fill-rule="evenodd"/>
      <path id="Trazado_984017" data-name="Trazado 984017" d="M897.429,1405.175c-.12-1.318-2.636-2.936-5.392-3.175L890,1404.756v6.47a15.078,15.078,0,0,0,7.429-2.516C897.369,1407.691,897.549,1406.313,897.429,1405.175Z" transform="translate(-836.68 -1324.596)" fill="#0ca78f" fill-rule="evenodd"/>
      <path id="Trazado_984018" data-name="Trazado 984018" d="M734.369,1411.226v-6.47L732.332,1402h-.12c-1.977,0-5.212,1.677-5.212,3.115v3.595A15.7,15.7,0,0,0,734.369,1411.226Z" transform="translate(-683.445 -1324.596)" fill="#0ca78f" fill-rule="evenodd"/>
      <path id="Trazado_984019" data-name="Trazado 984019" d="M804,1187.7c0,6.291,7.968,6.291,7.968,0v-.719a11.522,11.522,0,0,1-3.175-1.977,16.04,16.04,0,0,1-4.793,2.157Z" transform="translate(-755.832 -1120.596)" fill="#fed2a4" fill-rule="evenodd"/>
      <path id="Trazado_984020" data-name="Trazado 984020" d="M799.746,1106.733c3.774-1.2,4.733-3.355,5.931-2.1a16.176,16.176,0,0,0,2.4,1.857,9.607,9.607,0,0,0-.06-2.456c-.6-1.378-1.917-2.037-3.894-2.037C800.525,1102,799.327,1103.018,799.746,1106.733Z" transform="translate(-751.758 -1042.569)" fill="#333" fill-rule="evenodd"/>
      <path id="Trazado_984021" data-name="Trazado 984021" d="M329.429,967.71c-.06-1.078.12-2.4,0-3.535-.12-1.318-2.636-2.936-5.392-3.175L322,963.756v6.47A15.7,15.7,0,0,0,329.429,967.71Z" transform="translate(-302.709 -910.016)" fill="#53c8e8" fill-rule="evenodd"/>
      <path id="Trazado_984022" data-name="Trazado 984022" d="M166.369,970.226v-6.47L164.332,961h-.12c-1.977,0-5.212,1.678-5.212,3.115v3.595A16.383,16.383,0,0,0,166.369,970.226Z" transform="translate(-149.474 -910.016)" fill="#53c8e8" fill-rule="evenodd"/>
      <path id="Trazado_984023" data-name="Trazado 984023" d="M236,746.7c0,6.231,7.968,6.231,7.968,0v-.659A9.992,9.992,0,0,1,240.793,744,16.045,16.045,0,0,1,236,746.157Z" transform="translate(-221.861 -706.017)" fill="#fed2a4" fill-rule="evenodd"/>
      <path id="Trazado_984024" data-name="Trazado 984024" d="M231.746,665.733c3.774-1.2,4.733-3.355,5.931-2.157a13.428,13.428,0,0,0,2.4,1.917,9.448,9.448,0,0,0-.06-2.456c-.6-1.378-1.917-2.037-3.894-2.037C232.525,661,231.326,662.018,231.746,665.733Z" transform="translate(-217.787 -627.989)" fill="#333" fill-rule="evenodd"/>
    </g>
  </g>
</svg>
