<svg xmlns="http://www.w3.org/2000/svg" xmlns:xlink="http://www.w3.org/1999/xlink" width="85" height="85" viewBox="0 0 85 85">
  <defs>
    <clipPath id="clip-path">
      <path id="path6696" d="M0-682.665H68.436v68.436H0Z" transform="translate(0 682.665)"/>
    </clipPath>
  </defs>
  <g id="Grupo_1113062" data-name="Grupo 1113062" transform="translate(-284.718 -2040)">
    <g id="g6690" transform="translate(292.718 2730.665)">
      <g id="g6692" transform="translate(0 -682.665)">
        <g id="g6694" transform="translate(0 0)" clip-path="url(#clip-path)">
          <g id="g6700" transform="translate(5.881 8.963)">
            <path id="path6702" d="M0-505v-54.061a2.2,2.2,0,0,1,2.2-2.2H46.777a2.2,2.2,0,0,1,2.2,2.2V-505a2.2,2.2,0,0,1-2.2,2.2H2.2A2.2,2.2,0,0,1,0-505" transform="translate(0 561.261)" fill="#0e80ac"/>
          </g>
          <g id="g6704" transform="translate(47.889 8.963)">
            <path id="path6706" d="M-42.8,0h-2.564V56.265a2.2,2.2,0,0,1-2.2,2.2H-42.8a2.2,2.2,0,0,0,2.2-2.2V2.2A2.2,2.2,0,0,0-42.8,0" transform="translate(47.571)" fill="#057195"/>
          </g>
          <g id="g6708" transform="translate(10.653 8.963)">
            <path id="path6710" d="M0,0V51.611a1.454,1.454,0,0,0,1.454,1.454H37.982a1.454,1.454,0,0,0,1.454-1.454V0Z" fill="#f7f0f0"/>
          </g>
          <g id="g6712" transform="translate(19.276 1.003)">
            <path id="path6714" d="M-138.78-28.377h0a3.162,3.162,0,0,0-3.162-3.162h-2.411a3.162,3.162,0,0,0-3.162,3.162,1.6,1.6,0,0,1-1.6,1.6h-1.929a3.2,3.2,0,0,0-3.2,3.2V-21.9a1.516,1.516,0,0,0,1.517,1.517h19.157a1.517,1.517,0,0,0,1.517-1.517v-1.679a3.2,3.2,0,0,0-3.2-3.2h-1.929a1.6,1.6,0,0,1-1.6-1.6" transform="translate(154.242 31.539)" fill="#fd7e42"/>
          </g>
          <g id="g6716" transform="translate(29.946 1.003)">
            <path id="path6718" d="M-74.732-42.773h-1.929a1.6,1.6,0,0,1-1.6-1.6,3.162,3.162,0,0,0-3.162-3.162h-1.632v4.832a1.6,1.6,0,0,0,1.6,1.6h1.929a3.2,3.2,0,0,1,3.2,3.2v1.525h3.277A1.517,1.517,0,0,0-71.537-37.9v-1.679a3.2,3.2,0,0,0-3.2-3.2" transform="translate(83.058 47.539)" fill="#fa6931"/>
          </g>
          <g id="g6720" transform="translate(17.012 19.368)">
            <path id="path6722" d="M0-25.991l2.2,1.953a.844.844,0,0,0,1.253-.147l3.288-4.7" transform="translate(0 28.887)" fill="none" stroke="#000" stroke-linecap="round" stroke-linejoin="round" stroke-miterlimit="10" stroke-width="2"/>
          </g>
          <g id="g6724" transform="translate(17.012 34.012)">
            <path id="path6726" d="M0-25.991l2.2,1.953a.845.845,0,0,0,1.253-.147l3.288-4.7" transform="translate(0 28.887)" fill="none" stroke="#000" stroke-linecap="round" stroke-linejoin="round" stroke-miterlimit="10" stroke-width="2"/>
          </g>
          <g id="g6728" transform="translate(17.012 48.46)">
            <path id="path6730" d="M0-25.991l2.2,1.953a.844.844,0,0,0,1.253-.147l3.288-4.7" transform="translate(0 28.887)" fill="none" stroke="#000" stroke-linecap="round" stroke-linejoin="round" stroke-miterlimit="10" stroke-width="2"/>
          </g>
          <g id="g6732" transform="translate(29.564 19.895)">
            <path id="path6734" d="M0,0H14.167" fill="none" stroke="#000" stroke-linecap="round" stroke-linejoin="round" stroke-miterlimit="10" stroke-width="2"/>
          </g>
          <g id="g6736" transform="translate(29.564 24.35)">
            <path id="path6738" d="M0,0H14.167" fill="none" stroke="#000" stroke-linecap="round" stroke-linejoin="round" stroke-miterlimit="10" stroke-width="2"/>
          </g>
          <g id="g6740" transform="translate(29.564 34.218)">
            <path id="path6742" d="M0,0H14.167" fill="none" stroke="#000" stroke-linecap="round" stroke-linejoin="round" stroke-miterlimit="10" stroke-width="2"/>
          </g>
          <g id="g6744" transform="translate(29.564 38.673)">
            <path id="path6746" d="M0,0H7.083" fill="none" stroke="#000" stroke-linecap="round" stroke-linejoin="round" stroke-miterlimit="10" stroke-width="2"/>
          </g>
          <g id="g6748" transform="translate(41.467 8.963)">
            <path id="path6750" d="M-120.228-92.9v-8.146a2.2,2.2,0,0,0-2.2-2.2h-11.191" transform="translate(133.624 103.254)" fill="none" stroke="#000" stroke-linecap="round" stroke-linejoin="round" stroke-miterlimit="10" stroke-width="2"/>
          </g>
          <g id="g6752" transform="translate(5.881 8.963)">
            <path id="path6754" d="M-120.228,0h-11.191a2.2,2.2,0,0,0-2.2,2.2v54.06a2.2,2.2,0,0,0,2.2,2.2h44.572a2.2,2.2,0,0,0,2.2-2.2V30.724" transform="translate(133.624)" fill="none" stroke="#000" stroke-linecap="round" stroke-linejoin="round" stroke-miterlimit="10" stroke-width="2"/>
          </g>
          <g id="g6756" transform="translate(19.276 1.003)">
            <path id="path6758" d="M-138.78-28.377h0a3.162,3.162,0,0,0-3.162-3.162h-2.411a3.162,3.162,0,0,0-3.162,3.162,1.6,1.6,0,0,1-1.6,1.6h-1.929a3.2,3.2,0,0,0-3.2,3.2V-21.9a1.516,1.516,0,0,0,1.517,1.517h19.157a1.517,1.517,0,0,0,1.517-1.517v-1.679a3.2,3.2,0,0,0-3.2-3.2h-1.929A1.6,1.6,0,0,1-138.78-28.377Z" transform="translate(154.242 31.539)" fill="none" stroke="#000" stroke-linecap="round" stroke-linejoin="round" stroke-miterlimit="10" stroke-width="2"/>
          </g>
          <g id="g6760" transform="translate(10.653 8.963)">
            <path id="path6762" d="M0,0V51.611a1.454,1.454,0,0,0,1.454,1.454h16.6" fill="none" stroke="#000" stroke-linecap="round" stroke-linejoin="round" stroke-miterlimit="10" stroke-width="2"/>
          </g>
          <g id="g6764" transform="translate(50.09 8.963)">
            <path id="path6766" d="M0-146.477V-162.8" transform="translate(0 162.797)" fill="none" stroke="#000" stroke-linecap="round" stroke-linejoin="round" stroke-miterlimit="10" stroke-width="2"/>
          </g>
          <g id="g6768" transform="translate(31.304 45.629)">
            <path id="path6770" d="M-37.352-146.918l-4.162.03h17.332a1.454,1.454,0,0,0,1.454-1.454v-14.945" transform="translate(41.513 163.288)" fill="none" stroke="#000" stroke-linecap="round" stroke-linejoin="round" stroke-miterlimit="10" stroke-width="2"/>
          </g>
          <g id="g6772" transform="translate(26.885 25.691)">
            <path id="path6774" d="M-284.872-28l-3.893-3.12-1.341.725L-312.849-2.022l-3.615,7.26a1.4,1.4,0,0,0,.378,1.717,1.4,1.4,0,0,0,1.758-.005l6.3-5.11,22.744-28.377Z" transform="translate(316.612 31.124)" fill="#fa6931"/>
          </g>
          <g id="g6776" transform="translate(26.896 54.754)">
            <path id="path6778" d="M-33.955,0l-3.636,7.3a1.408,1.408,0,0,0,.38,1.726,1.408,1.408,0,0,0,1.767-.005l6.333-5.138Z" transform="translate(37.738)" fill="#557981"/>
          </g>
          <g id="g6780" transform="translate(53.391 20.684)">
            <path id="path6782" d="M-71.864-6.09h0a3.087,3.087,0,0,0-4.34.478L-79.87-1.036l4.818,3.862,3.667-4.575a3.087,3.087,0,0,0-.478-4.34" transform="translate(79.87 6.768)" fill="#ffc3ab"/>
          </g>
          <g id="g6784" transform="translate(26.885 26.416)">
            <path id="path6786" d="M-237.9,0l-22.744,28.377-3.615,7.26a1.4,1.4,0,0,0,.378,1.717,1.4,1.4,0,0,0,1.758-.005l6.3-5.11,22.743-28.377" transform="translate(264.403)" fill="none" stroke="#000" stroke-linecap="round" stroke-linejoin="round" stroke-miterlimit="10" stroke-width="2"/>
          </g>
          <g id="g6788" transform="translate(30.679 54.754)">
            <path id="path6790" d="M-43.484-34.853l-4.845-3.883" transform="translate(48.329 38.736)" fill="none" stroke="#000" stroke-linecap="round" stroke-linejoin="round" stroke-miterlimit="10" stroke-width="2"/>
          </g>
          <g id="g6792" transform="translate(53.391 20.684)">
            <path id="path6794" d="M-71.864-6.09h0a3.087,3.087,0,0,0-4.34.478L-79.87-1.036l4.818,3.862,3.667-4.575A3.087,3.087,0,0,0-71.864-6.09Z" transform="translate(79.87 6.768)" fill="none" stroke="#000" stroke-linecap="round" stroke-linejoin="round" stroke-miterlimit="10" stroke-width="2"/>
          </g>
        </g>
      </g>
    </g>
    <rect id="Rectángulo_404768" data-name="Rectángulo 404768" width="85" height="85" transform="translate(284.718 2040)" fill="none"/>
  </g>
</svg>
