<svg xmlns="http://www.w3.org/2000/svg" width="85" height="85" viewBox="0 0 85 85">
  <g id="Grupo_1113061" data-name="Grupo 1113061" transform="translate(-599.718 -2040)">
    <g id="Grupo_1113060" data-name="Grupo 1113060" transform="translate(556.299 2018.178)">
      <g id="Grupo_1113059" data-name="Grupo 1113059" transform="translate(63.316 26.982)">
        <path id="Trazado_984025" data-name="Trazado 984025" d="M117.942,335.311h17.523v-8.283h11.2v-8.392h11.207V310.06h11.2v28.73H117.94v-3.479Z" transform="translate(-117.94 -263.947)" fill="#90c845" fill-rule="evenodd"/>
        <path id="Trazado_984026" data-name="Trazado 984026" d="M278.6,331.01v25.245H249.31v-8.278h11.207v-8.4h11.2v-8.57Z" transform="translate(-227.461 -281.412)" fill="#d9e14b" fill-rule="evenodd"/>
        <path id="Trazado_984027" data-name="Trazado 984027" d="M215.491,74.36A17.829,17.829,0,1,1,197.66,92.191,17.828,17.828,0,0,1,215.491,74.36Z" transform="translate(-184.401 -67.448)" fill="#243e90" fill-rule="evenodd"/>
        <path id="Trazado_984028" data-name="Trazado 984028" d="M259.193,74.36a17.836,17.836,0,0,1,17.661,20.254,20.876,20.876,0,0,1-26.774-17.75,17.731,17.731,0,0,1,9.113-2.5Z" transform="translate(-228.103 -67.448)" fill="#345aa9" fill-rule="evenodd"/>
        <path id="Trazado_984029" data-name="Trazado 984029" d="M243.711,108.2a12.2,12.2,0,1,1-12.2,12.2A12.2,12.2,0,0,1,243.711,108.2Z" transform="translate(-212.621 -95.66)" fill="#34c6f4" fill-rule="evenodd"/>
        <path id="Trazado_984030" data-name="Trazado 984030" d="M266.637,108.2a12.2,12.2,0,0,1,11.739,15.506.725.725,0,0,1-.1,0,20.871,20.871,0,0,1-19.263-12.833A12.16,12.16,0,0,1,266.637,108.2Z" transform="translate(-235.547 -95.66)" fill="#52c9f0" fill-rule="evenodd"/>
        <path id="Trazado_984031" data-name="Trazado 984031" d="M281.118,153.08a4.736,4.736,0,1,1-4.738,4.738A4.738,4.738,0,0,1,281.118,153.08Z" transform="translate(-250.028 -133.075)" fill="#fcd800" fill-rule="evenodd"/>
        <path id="Trazado_984032" data-name="Trazado 984032" d="M287.329,153.08a4.738,4.738,0,0,1,4.3,6.719,20.927,20.927,0,0,1-7.8-5.173A4.726,4.726,0,0,1,287.329,153.08Z" transform="translate(-256.239 -133.075)" fill="#fce030" fill-rule="evenodd"/>
        <path id="Trazado_984033" data-name="Trazado 984033" d="M388.951,43.271l6.185-6.19L389.945,38l.91-5.2L384.67,39l-.91,5.191Z" transform="translate(-339.549 -32.8)" fill="#ed1e24" fill-rule="evenodd"/>
      </g>
      <path id="Trazado_984034" data-name="Trazado 984034" d="M68.84,366.36a2.08,2.08,0,0,1,4.088.768l-1.608,8.434a2.022,2.022,0,0,1-.65,1.159l-7.812,7.059a2.082,2.082,0,1,1-2.786-3.094l7.3-6.586Z" transform="translate(-5.805 -282.487)" fill="#81479a"/>
      <path id="Trazado_984035" data-name="Trazado 984035" d="M76.431,214.837c2.182-1.7,8.76-7.27,9.59-7.963a2.082,2.082,0,1,1,2.663,3.2c-5.676,4.718-8.6,6.751-9.287,10.886l-2.886,13.478,6.4,3.7a2.075,2.075,0,0,1,.758,2.837c-1.216,2.1-2.518,4.2-3.767,6.28a2.08,2.08,0,1,1-3.569-2.136l2-3.338c-4.456-2.012-12.386-3.395-11.258-8.708l2.452-11.443-2.711,1.079-3.348,9.141a2.081,2.081,0,0,1-3.908-1.432l3.667-10a2.089,2.089,0,0,1,1.183-1.212C65.82,218.641,76.286,214.95,76.431,214.837Z" transform="translate(-5.848 -150.538)" fill="#81479a"/>
      <path id="Trazado_984036" data-name="Trazado 984036" d="M108.7,198.46a5.633,5.633,0,1,1-5.633,5.633A5.633,5.633,0,0,1,108.7,198.46Z" transform="translate(-42.227 -143.926)" fill="#eaa377" fill-rule="evenodd"/>
      <path id="Trazado_984037" data-name="Trazado 984037" d="M121.384,198.46a5.633,5.633,0,0,1,5.633,5.633,5.765,5.765,0,0,1-.2,1.485,5.636,5.636,0,0,1-8.341-6.312A5.6,5.6,0,0,1,121.384,198.46Z" transform="translate(-54.907 -143.926)" fill="#eeb491" fill-rule="evenodd"/>
      <path id="Trazado_984038" data-name="Trazado 984038" d="M66.476,53.37a6.8,6.8,0,0,1,6.784,7.251c1.069-.886,2.2-1.834,3.2-2.678a18.989,18.989,0,0,1,30.1-20.81l.73-4.153a1.175,1.175,0,0,1,.321-.617l6.134-6.144a1.165,1.165,0,0,1,2.022.966l-.622,3.559,3.559-.627a1.162,1.162,0,0,1,1.023,1.961l-6.134,6.144a1.178,1.178,0,0,1-.679.383l-4.12.727A18.989,18.989,0,1,1,79.66,63.687c-2.922,2.495-4.526,4.263-4.965,6.926l-.01.057L71.975,83.316l5.671,3.276a3.241,3.241,0,0,1,1.179,4.427c-1.193,2.056-2.372,3.947-3.7,6.162h4.554V90.068A1.161,1.161,0,0,1,80.843,88.9H90.88V81.673a1.164,1.164,0,0,1,1.164-1.164h10.042V73.1a1.163,1.163,0,0,1,1.164-1.164h11.2a1.164,1.164,0,0,1,1.164,1.164v28.735A1.164,1.164,0,0,1,114.453,103H63.318a1.168,1.168,0,0,1-1.164-1.164l0-3.587-4.333,3.913,0,0a3.244,3.244,0,0,1-4.341-4.822L60.5,91.015l.763-4.007A5.07,5.07,0,0,1,60.095,82.3l1.994-9.321-.2.08-3.168,8.655a3.245,3.245,0,1,1-6.092-2.235l3.667-10a3.209,3.209,0,0,1,1.843-1.9c.65-.259,2.551-.943,4.662-1.7A6.8,6.8,0,0,1,66.476,53.37Zm4.2,12.145a6.759,6.759,0,0,1-4,1.447l-1.382.5c-2.809,1.01-5.738,2.056-6.3,2.277a.918.918,0,0,0-.519.537l-3.667,10a.918.918,0,0,0,1.725.632l3.343-9.138h0a1.14,1.14,0,0,1,.66-.679l2.636-1.051a1.16,1.16,0,0,1,1.64,1.287L62.365,82.779c-.684,3.22,3.606,4.78,7.406,6.162,1.146.414,2.249.815,3.2,1.244h0a1.164,1.164,0,0,1,.524,1.655l-2.037,3.39a.92.92,0,1,0,1.653.807c.283-.471.755-1.249,1.231-2.027.807-1.334,1.617-2.668,2.48-4.153a.924.924,0,0,0-.334-1.254l-6.355-3.672a1.157,1.157,0,0,1-.6-1.269l2.886-13.478c.7-4.125,3.263-6.242,8.113-10.24.552-.457,1.126-.933,1.57-1.3a.923.923,0,0,0-.5-1.627.911.911,0,0,0-.674.208c-2.837,2.357-7.454,6.313-9.623,7.992A2.352,2.352,0,0,1,70.678,65.515Zm-1.041-8.506a4.468,4.468,0,1,0,0,6.317,4.472,4.472,0,0,0,0-6.317Zm8.745-.684c1.136-.956,1.7-1.58,2.994-1.632a13.363,13.363,0,0,1,21.5-13.3l2.343-2.348A16.671,16.671,0,0,0,78.381,56.326Zm5.577,3.729c-.334.383-2.032,1.735-2.523,2.141A16.665,16.665,0,1,0,106.87,40.668l-2.338,2.343A13.36,13.36,0,1,1,83.958,60.054ZM69.414,97.182a3.239,3.239,0,0,1,.075-3.2L70.8,91.8l-3.6-1.334-.537,2.824A3.214,3.214,0,0,1,65.641,95.1l-2.305,2.084h6.077Zm-4.407-7.632a16.654,16.654,0,0,1-1.7-.9l-.594,3.125a1.178,1.178,0,0,1-.373.7l-7.3,6.586a.922.922,0,0,0,.565,1.6.912.912,0,0,0,.665-.236v0l7.812-7.057a.938.938,0,0,0,.288-.519Zm47.15-53.175,3.323-3.328-1.565.278a1.166,1.166,0,0,1-1.344-1.367l.273-1.547-3.323,3.328-.56,3.2ZM97.5,50.834a1.177,1.177,0,0,1,.368.01,3.456,3.456,0,0,0-.329-.83l-.928.928Zm.18,2.318-4.145.524a1.176,1.176,0,0,1-1.292-1.321l.471-3.777a3.571,3.571,0,1,0,4.966,4.574Zm-2.593-4.935L94.967,49.3l.853-.853A3.438,3.438,0,0,0,95.085,48.217Zm7.8-3.556-3.659,3.664a5.9,5.9,0,1,1-1.683-1.6l3.677-3.682a11.031,11.031,0,1,0,1.665,1.617ZM80.843,99.51H64.484v1.154h48.8V74.26h-8.873v7.411a1.168,1.168,0,0,1-1.164,1.164H93.209v7.232a1.16,1.16,0,0,1-1.164,1.159H82.007v7.118A1.167,1.167,0,0,1,80.843,99.51Z" transform="translate(0)"/>
    </g>
    <rect id="Rectángulo_404769" data-name="Rectángulo 404769" width="85" height="85" transform="translate(599.718 2040)" fill="none"/>
  </g>
</svg>
