<svg xmlns="http://www.w3.org/2000/svg" width="85" height="85" viewBox="0 0 85 85">
  <g id="Grupo_1113077" data-name="Grupo 1113077" transform="translate(-751.718 -2270)">
    <g id="Grupo_1113076" data-name="Grupo 1113076" transform="translate(729.062 2261.999)">
      <path id="Trazado_984059" data-name="Trazado 984059" d="M84.623,55.283l-2.056-2.026q-.257.145-.52.277v7.151A12.549,12.549,0,1,1,67.189,80.5H39.449a5.808,5.808,0,0,1-5.793-5.793V27.351a5.808,5.808,0,0,1,5.793-5.793H48V20.529a.783.783,0,0,1,.783-.783H53.35a4.578,4.578,0,0,1,9,0H66.92a.783.783,0,0,1,.783.783v1.029h8.551a5.808,5.808,0,0,1,5.793,5.793V31.81A12.167,12.167,0,0,1,86.364,49.9l1.844,1.967a2.77,2.77,0,0,1,2.566.808l5.457,5.758a2.783,2.783,0,0,1-.1,3.923l-1.449,1.373a2.783,2.783,0,0,1-3.923-.1L85.3,57.868a2.78,2.78,0,0,1-.676-2.585Z" fill-rule="evenodd"/>
      <path id="Trazado_984060" data-name="Trazado 984060" d="M264.061,131.816a10.782,10.782,0,0,0-1.248,1.411,10.532,10.532,0,0,0-1.834,4.1.783.783,0,0,1-.026.129,10.6,10.6,0,0,0,2.691,9.321h0l.012.015a10.557,10.557,0,0,0,3.989,2.642.782.782,0,0,1,.114.042,10.6,10.6,0,0,0,10.855-2.267h0l.015-.012a10.591,10.591,0,0,0-14.569-15.376Zm6.76-1.04a8.746,8.746,0,0,1,9.245,8.1.788.788,0,0,1,.007.106,8.746,8.746,0,0,1-8.1,9.245.792.792,0,0,1-.106.007,8.746,8.746,0,0,1-9.245-8.1.793.793,0,0,1-.007-.106,8.746,8.746,0,0,1,8.1-9.245A.8.8,0,0,1,270.822,130.776Z" transform="translate(-194.755 -96.831)" fill="#ffb761" fill-rule="evenodd"/>
      <path id="Trazado_984061" data-name="Trazado 984061" d="M94.984,106.351q.016-.584.087-1.165H86.422a.783.783,0,1,1,0-1.565h8.946a12.1,12.1,0,0,1,1.194-2.95H86.422a.783.783,0,0,1,0-1.565h11.2a12.164,12.164,0,0,1,9.893-4.577V91.353a.725.725,0,0,0-.721-.721H98.243v1.022a.783.783,0,0,1-.783.783H79.323a.783.783,0,0,1-.783-.783V90.632H69.989a.725.725,0,0,0-.721.721v47.358a.719.719,0,0,0,.212.509l0,0a.716.716,0,0,0,.51.211H94.765a12.6,12.6,0,0,1,.393-8.342H86.422a.783.783,0,1,1,0-1.565h9.5a12.582,12.582,0,0,1,2.372-2.95H86.422a.783.783,0,1,1,0-1.566h13.984a12.49,12.49,0,0,1,6.379-1.74q.367,0,.73.021v-4.47q-.353.011-.706,0a12.2,12.2,0,0,1-3.715-.683H86.422a.783.783,0,1,1,0-1.565h13.656a12.188,12.188,0,0,1-1.752-1.523h0l-.012-.015a12.242,12.242,0,0,1-1.152-1.413H86.422a.783.783,0,1,1,0-1.565h9.811a12.142,12.142,0,0,1-1.249-5.706ZM73.315,97.2h8.323a.783.783,0,0,1,.783.838l.224-.218a.781.781,0,0,1,1.089,1.119l-1.312,1.279v6.088a.783.783,0,0,1-.783.783H73.315a.783.783,0,0,1-.783-.783V97.985A.783.783,0,0,1,73.315,97.2Zm0,12.952h8.323a.783.783,0,0,1,.783.838l.224-.218a.781.781,0,0,1,1.089,1.119l-1.312,1.279v6.088a.783.783,0,0,1-.783.783H73.315a.783.783,0,0,1-.783-.783v-8.323a.783.783,0,0,1,.783-.783Zm0,12.952h8.323a.783.783,0,0,1,.783.838l.224-.218a.781.781,0,0,1,1.089,1.119l-1.312,1.279v6.088a.783.783,0,0,1-.783.783H73.315a.783.783,0,0,1-.783-.783v-8.323A.783.783,0,0,1,73.315,123.105Z" transform="translate(-30.54 -64.002)" fill="#e6e6e6" fill-rule="evenodd"/>
      <path id="Trazado_984062" data-name="Trazado 984062" d="M135.806,106.351q.016-.584.087-1.165h-8.649a.783.783,0,0,1,0-1.565h8.946a12.1,12.1,0,0,1,1.194-2.95h-10.14a.783.783,0,0,1,0-1.565h11.2a12.164,12.164,0,0,1,9.893-4.577V91.353a.725.725,0,0,0-.721-.721h-8.551v1.022a.783.783,0,0,1-.783.783H120.144a.783.783,0,0,1-.783-.783V90.632h-2.152a46.46,46.46,0,0,0-.34,5.6c0,.323.006.645.012.967h5.579a.783.783,0,0,1,.783.838l.224-.218a.781.781,0,1,1,1.089,1.119l-1.312,1.279v6.088a.783.783,0,0,1-.783.783h-4.3q.376,1.553.854,3.063h3.445a.783.783,0,0,1,.783.838l.224-.218a.781.781,0,0,1,1.089,1.119l-1.312,1.279v6.088a.781.781,0,0,1-.047.267,46.117,46.117,0,0,0,3.813,5.519.781.781,0,0,1,.236-.036h13.984a12.49,12.49,0,0,1,6.379-1.74q.367,0,.73.021v-4.47q-.353.011-.706,0a12.2,12.2,0,0,1-3.715-.683H127.244a.783.783,0,1,1,0-1.566H140.9a12.185,12.185,0,0,1-1.752-1.523h0l-.012-.015a12.238,12.238,0,0,1-1.152-1.413H127.244a.783.783,0,1,1,0-1.565h9.811a12.142,12.142,0,0,1-1.249-5.706Zm-.453,26.753a12.451,12.451,0,0,1,.627-2.015h-3.133q1.217,1.05,2.506,2.015Zm-4.233-3.581h5.629a12.582,12.582,0,0,1,2.372-2.95H128.293Q129.642,128.11,131.12,129.524Z" transform="translate(-71.362 -64.002)" fill="#fff" fill-rule="evenodd"/>
      <path id="Trazado_984063" data-name="Trazado 984063" d="M283.549,73.566a12.186,12.186,0,0,1,1.941.48V70.239a4.241,4.241,0,0,0-4.227-4.227h-8.551v1.941h8.551a2.291,2.291,0,0,1,2.286,2.286v3.327Z" transform="translate(-205.008 -42.888)" fill="#54b4e4" fill-rule="evenodd"/>
      <path id="Trazado_984064" data-name="Trazado 984064" d="M350.747,284.128a12.149,12.149,0,0,1-1.941.48v4.808a12.453,12.453,0,0,1,1.941.524Z" transform="translate(-270.266 -229.94)" fill="#54b4e4" fill-rule="evenodd"/>
      <path id="Trazado_984065" data-name="Trazado 984065" d="M403.712,278.748c-.24.228-1.476,1.373-1.6,1.537a1.222,1.222,0,0,0,.1,1.551l5.457,5.758a1.217,1.217,0,0,0,1.715.048l1.449-1.373a1.217,1.217,0,0,0,.048-1.715l-5.457-5.758a1.223,1.223,0,0,0-1.715-.048Z" transform="translate(-315.785 -225.045)" fill="#ffb761" fill-rule="evenodd"/>
      <path id="Trazado_984066" data-name="Trazado 984066" d="M291.405,152.863a7.178,7.178,0,1,0,5.209,1.764,7.155,7.155,0,0,0-5.209-1.764h0Zm.475,3.313a3.865,3.865,0,0,1,.9.106,1.9,1.9,0,0,0,2.758,2.534,3.853,3.853,0,1,1-3.658-2.64Z" transform="translate(-215.289 -117.356)" fill="#d7e9ff" fill-rule="evenodd"/>
      <path id="Trazado_984067" data-name="Trazado 984067" d="M57.426,67.953V66.012H48.875a4.241,4.241,0,0,0-4.227,4.227V117.6a4.241,4.241,0,0,0,4.227,4.227H75.338a12.528,12.528,0,0,1-1.1-1.941H48.875a2.281,2.281,0,0,1-1.614-.673l0,0a2.28,2.28,0,0,1-.671-1.615V70.239a2.291,2.291,0,0,1,2.286-2.286Z" transform="translate(-9.427 -42.888)" fill="#2ea0d9" fill-rule="evenodd"/>
      <path id="Trazado_984068" data-name="Trazado 984068" d="M122.715,67.953V66.012h-1.589q-.194.963-.347,1.941h1.936Z" transform="translate(-74.715 -42.888)" fill="#54b4e4" fill-rule="evenodd"/>
      <path id="Trazado_984069" data-name="Trazado 984069" d="M149.85,30.729h-4.489v5.557h16.572V30.729h-4.489v0a.78.78,0,0,1-.78-.771,3.022,3.022,0,0,0-5.136-2.1,2.978,2.978,0,0,0-.9,2.094.783.783,0,0,1-.783.783Z" transform="translate(-95.796 -9.417)" fill="#229ad6" fill-rule="evenodd"/>
      <path id="Trazado_984070" data-name="Trazado 984070" d="M109.939,147.753h-6.757v6.757h6.757v-3.779l-2.362,2.3a.782.782,0,0,1-1.059.086l-2.637-2.073a.782.782,0,1,1,.966-1.229l2.1,1.651,2.993-2.917v-.8Z" transform="translate(-59.624 -112.987)" fill="#2a8055" fill-rule="evenodd"/>
      <path id="Trazado_984071" data-name="Trazado 984071" d="M122.1,147.753h-4.738q.068,1.262.205,2.5l1.54,1.211,2.993-2.917v-.8Zm-3.869,6.757q-.207-1.007-.367-2.031l.815.641a.782.782,0,0,0,1.059-.086l2.362-2.3v3.779Z" transform="translate(-71.784 -112.987)" fill="#396" fill-rule="evenodd"/>
      <path id="Trazado_984072" data-name="Trazado 984072" d="M109.939,238.692h-6.757v6.757h6.757V241.67l-2.362,2.3a.782.782,0,0,1-1.059.086l-2.637-2.073a.782.782,0,0,1,.966-1.229l2.1,1.651,2.993-2.917v-.8Z" transform="translate(-59.624 -190.975)" fill="#2a8055" fill-rule="evenodd"/>
      <path id="Trazado_984073" data-name="Trazado 984073" d="M137.776,238.692h-2.134q.378,1.059.806,2.093l1.328-1.294Zm0,5.008V241.67l-.662.646Q137.433,243.014,137.776,243.7Z" transform="translate(-87.461 -190.975)" fill="#396" fill-rule="evenodd"/>
      <path id="Trazado_984074" data-name="Trazado 984074" d="M109.939,329.631h-6.757v6.757h6.757v-3.779l-2.362,2.3a.782.782,0,0,1-1.059.086l-2.637-2.073a.782.782,0,1,1,.966-1.229l2.1,1.651,2.993-2.917v-.8Z" transform="translate(-59.624 -268.962)" fill="#2a8055" fill-rule="evenodd"/>
      <path id="Trazado_984075" data-name="Trazado 984075" d="M274.325,334a10.983,10.983,0,1,0,0,15.532A10.983,10.983,0,0,0,274.325,334Zm-7.766-1.952a9.718,9.718,0,1,1-9.718,9.718A9.719,9.719,0,0,1,266.559,332.044Z" transform="translate(-190.314 -269.947)" fill="#359ccc" fill-rule="evenodd"/>
      <path id="Trazado_984076" data-name="Trazado 984076" d="M275.128,334a10.983,10.983,0,0,0-18.615,6.059q.581.4,1.174.787a9.718,9.718,0,1,1,17.462,6.735q.7.114,1.4.208a10.987,10.987,0,0,0-1.42-13.79Z" transform="translate(-191.117 -269.947)" fill="#2daae2" fill-rule="evenodd"/>
      <path id="Trazado_984077" data-name="Trazado 984077" d="M289.365,353.037a8.153,8.153,0,1,0,0,11.53A8.153,8.153,0,0,0,289.365,353.037Zm.1,4.733h1.266v1.566h-1.266Zm-11.731,1.566h-1.266V357.77h1.266Zm5.082-6.648v-1.266h1.566v1.266Zm3.689,7.919a.779.779,0,0,1-1.156,1.046l-2.328-2.577a.776.776,0,0,1-.2-.523h0v-4.387a.783.783,0,1,1,1.565,0v4.09l2.124,2.35Zm-2.123,3.811v1.266h-1.566v-1.266Z" transform="translate(-207.355 -286.987)" fill="#b8d3f5" fill-rule="evenodd"/>
      <path id="Trazado_984078" data-name="Trazado 984078" d="M289.366,353.037a8.153,8.153,0,0,0-13.918,5.786,45.733,45.733,0,0,0,14.175,5.474,8.153,8.153,0,0,0-.258-11.26Zm.1,4.733h1.266v1.566h-1.266Zm-11.731,1.566H276.47V357.77h1.266Zm5.082-6.648v-1.266h1.565v1.266Zm3.689,7.919a.779.779,0,0,1-1.156,1.046l-2.328-2.577a.776.776,0,0,1-.2-.523h0v-4.387a.783.783,0,1,1,1.565,0v4.09l2.124,2.35Z" transform="translate(-207.356 -286.987)" fill="#d7e9ff" fill-rule="evenodd"/>
      <path id="Trazado_984079" data-name="Trazado 984079" d="M386.453,263.72,388,265.241l1.339-1.27-1.438-1.534q-.186.193-.381.379h0l-.015.012a12.247,12.247,0,0,1-1.051.89Z" transform="translate(-302.551 -211.339)" fill="#ffb761" fill-rule="evenodd"/>
    </g>
    <rect id="Rectángulo_404779" data-name="Rectángulo 404779" width="85" height="85" transform="translate(751.718 2270)" fill="none"/>
  </g>
</svg>
