<svg xmlns="http://www.w3.org/2000/svg" width="85" height="85" viewBox="0 0 85 85">
  <g id="Grupo_1113079" data-name="Grupo 1113079" transform="translate(-1067.718 -2270)">
    <rect id="Rectángulo_404780" data-name="Rectángulo 404780" width="85" height="85" transform="translate(1067.718 2270)" fill="none"/>
    <g id="Grupo_1113078" data-name="Grupo 1113078" transform="translate(1073.718 2276)">
      <g id="Fill_1" data-name="Fill 1" transform="translate(16.61 4.155)">
        <circle id="Elipse_12024" data-name="Elipse 12024" cx="20" cy="20" r="20" transform="translate(-0.11 12.344)" fill="#e32728"/>
        <path id="Trazado_984080" data-name="Trazado 984080" d="M44,13.241,53.241,4V6.31a6.931,6.931,0,0,0,6.931,6.931h2.31l-9.241,9.241H44Z" transform="translate(-10.248 -4)" fill="#46afe2"/>
      </g>
      <g id="Fill_2" data-name="Fill 2" transform="translate(26.031 26.031)">
        <circle id="Elipse_12025" data-name="Elipse 12025" cx="10" cy="10" r="10" transform="translate(0.469 0.468)" fill="#ffe145"/>
      </g>
      <g id="Effect_Line" data-name="Effect Line" transform="translate(29.569 29.171)">
        <path id="Trazado_984081" data-name="Trazado 984081" d="M27.155,33.858A1.155,1.155,0,0,1,26,32.7a6.935,6.935,0,0,1,2.041-4.9,1.155,1.155,0,1,1,1.624,1.643A4.609,4.609,0,0,0,28.31,32.7,1.155,1.155,0,0,1,27.155,33.858Z" transform="translate(-26 -25.374)" fill="#fcf4bb"/>
        <ellipse id="Elipse_12026" data-name="Elipse 12026" cx="1" cy="1.5" rx="1" ry="1.5" transform="translate(5.931 0.328)" fill="#fcf4bb"/>
        <path id="Trazado_984082" data-name="Trazado 984082" d="M37.156,46.4a1.155,1.155,0,0,1-.446-2.221,14.019,14.019,0,0,0,7.466-7.466,1.155,1.155,0,1,1,2.131.891A16.347,16.347,0,0,1,37.6,46.308,1.15,1.15,0,0,1,37.156,46.4Z" transform="translate(-24.448 -24.051)" fill="#aa1d1e"/>
      </g>
      <g id="Line" transform="translate(3 3)">
        <path id="Trazado_984083" data-name="Trazado 984083" d="M68.844,35.345H66.5A29.949,29.949,0,0,0,62.46,21.415l7.2-7.2a1.155,1.155,0,0,0-.817-1.972h-2.31a5.783,5.783,0,0,1-5.776-5.776V4.155a1.155,1.155,0,0,0-1.972-.817l-7.2,7.2A29.939,29.939,0,0,0,37.655,6.5V4.156a1.155,1.155,0,1,0-2.31,0V6.495a30.064,30.064,0,0,0-28.85,28.85H4.155a1.155,1.155,0,1,0,0,2.31h2.34a30.064,30.064,0,0,0,28.85,28.85v2.339a1.155,1.155,0,1,0,2.31,0V66.505a30.064,30.064,0,0,0,28.85-28.85h2.338a1.155,1.155,0,0,0,0-2.31ZM59.125,21.483H53.151L61.7,12.934a8.03,8.03,0,0,0,4.369,1.6ZM35.683,37.317a1.155,1.155,0,0,0,1.633,0l6.474-6.474a9.273,9.273,0,1,1-1.633-1.633l-6.474,6.474A1.154,1.154,0,0,0,35.683,37.317Zm8.122-9.756a11.569,11.569,0,1,0,1.634,1.634l4.9-4.9a18.55,18.55,0,1,1-1.634-1.634ZM60.066,11.3l-8.549,8.549V13.875L58.461,6.93a8.035,8.035,0,0,0,1.605,4.37ZM37.655,64.195v-2.28a1.155,1.155,0,0,0-2.31,0v2.28a27.755,27.755,0,0,1-26.54-26.54h2.281a1.155,1.155,0,1,0,0-2.31H8.805a27.755,27.755,0,0,1,26.54-26.54v2.282a1.155,1.155,0,1,0,2.31,0V8.815a27.642,27.642,0,0,1,12.235,3.42l-.344.344a1.154,1.154,0,0,0-.339.817v6.682a20.866,20.866,0,1,0,3.715,3.715H59.6a1.155,1.155,0,0,0,.817-.338l.345-.345a27.645,27.645,0,0,1,3.42,12.235H61.914a1.155,1.155,0,0,0,0,2.31h2.281a27.754,27.754,0,0,1-26.54,26.54Z" transform="translate(-3 -3)"/>
      </g>
    </g>
  </g>
</svg>
