<svg xmlns="http://www.w3.org/2000/svg" width="85" height="85" viewBox="0 0 85 85">
  <g id="Grupo_1112966" data-name="Grupo 1112966" transform="translate(-705.051 -3043)">
    <rect id="Rectángulo_404747" data-name="Rectángulo 404747" width="85" height="85" transform="translate(705.051 3043)" fill="none"/>
    <g id="Grupo_1112965" data-name="Grupo 1112965" transform="translate(712.05 3050)">
      <path id="Trazado_983748" data-name="Trazado 983748" d="M71.977,77.678h51.7V8H85.463L71.977,21.486Zm0,0" transform="translate(-61.865 -6.876)" fill="#f6f6f6"/>
      <path id="Trazado_983749" data-name="Trazado 983749" d="M85.463,8V21.486H71.977Zm0,0" transform="translate(-61.865 -6.876)" fill="#999"/>
      <path id="Trazado_983750" data-name="Trazado 983750" d="M136.328,104.041c-2.832.164-6.769,1.06-8.368,3.585-2.029,3.2-4.808,3.4-8.3,3.606a16.857,16.857,0,0,0-9.294,2.929c-2.639,2-4.383,5.486-3.634,8.754.5,2.211,2.075,4.3,1.585,6.518-.39,1.761-1.961,2.941-2.98,4.417a7.809,7.809,0,0,0-1.177,6.044,7.674,7.674,0,0,0,3.609,4.945,5.421,5.421,0,0,0,3.421.763,12.035,12.035,0,0,0,3.344-1.361,11.885,11.885,0,0,1,7.836-1c2.473.6,4.642,2.135,7.071,2.922a12.475,12.475,0,0,0,11.721-2.354c2.222-1.892,3.808-4.878,3.2-7.764-.527-2.5-2.592-4.588-2.569-7.145a10.665,10.665,0,0,1,1.8-4.769,30.624,30.624,0,0,0,2.248-5.282,15.715,15.715,0,0,0,.851-4.582,10.435,10.435,0,0,0-3.009-7.409,9.76,9.76,0,0,0-7.35-2.816Zm0,0" transform="translate(-89.375 -89.415)" fill="#cdcdcd"/>
      <path id="Trazado_983751" data-name="Trazado 983751" d="M231.711,119.867A7.867,7.867,0,1,1,223.844,112,7.867,7.867,0,0,1,231.711,119.867Zm0,0" transform="translate(-185.636 -96.266)" fill="#ffb05e"/>
      <path id="Trazado_983752" data-name="Trazado 983752" d="M157.463,102.237h-8.991V94.37l-4.5-2.248,4.5-6.743a13.486,13.486,0,1,1,22.477,10.036V110.1H157.463Zm12.362-16.857a7.861,7.861,0,1,0-2.3,5.564A7.867,7.867,0,0,0,169.825,85.379Zm0,0" transform="translate(-123.751 -61.779)" fill="#69d3ff"/>
      <path id="Trazado_983753" data-name="Trazado 983753" d="M458.225,376a4.5,4.5,0,1,1,0,8.991h-2.248V376Zm0,0" transform="translate(-391.921 -323.18)" fill="#cdcdcd"/>
      <path id="Trazado_983754" data-name="Trazado 983754" d="M51.348,380.5v4.5L47.977,383.3v-5.619L51.348,376Zm0,0" transform="translate(-41.237 -323.18)" fill="#ffc89d"/>
      <path id="Trazado_983755" data-name="Trazado 983755" d="M13.6,388v5.619l-5.619-2.81Zm0,0" transform="translate(-6.856 -333.494)" fill="#454668"/>
      <path id="Trazado_983756" data-name="Trazado 983756" d="M428.472,376v8.991h-4.5V376Zm0,0" transform="translate(-364.417 -323.18)" fill="#454668"/>
      <path id="Trazado_983757" data-name="Trazado 983757" d="M121.426,408v4.5H71.977V408Zm0,0" transform="translate(-61.865 -350.685)" fill="#fc5452"/>
      <path id="Trazado_983758" data-name="Trazado 983758" d="M121.426,376v4.5H71.977V376Zm0,0" transform="translate(-61.865 -323.18)" fill="#fe7073"/>
      <g id="Grupo_1112964" data-name="Grupo 1112964" transform="translate(0)">
        <path id="Trazado_983759" data-name="Trazado 983759" d="M115.673,468.5H66.225V464H63.977v5.619a1.124,1.124,0,0,0,1.124,1.124h51.7a1.124,1.124,0,0,0,1.124-1.124V464h-2.248Zm0,0" transform="translate(-54.99 -398.818)" fill="#252340"/>
        <path id="Trazado_983760" data-name="Trazado 983760" d="M66.224,15.734H78.586A1.124,1.124,0,0,0,79.71,14.61V2.248h35.963v47.2h2.248V1.124A1.124,1.124,0,0,0,116.8,0H78.586a1.124,1.124,0,0,0-.795.329L64.306,13.815a1.116,1.116,0,0,0-.329.795V49.449h2.248Zm1.589-2.248,9.649-9.649v9.649Zm0,0" transform="translate(-54.989)" fill="#252340"/>
        <path id="Trazado_983761" data-name="Trazado 983761" d="M216.968,121.981a8.991,8.991,0,1,0-8.991-8.991A8.991,8.991,0,0,0,216.968,121.981Zm0-15.734a6.743,6.743,0,1,1-6.743,6.743A6.743,6.743,0,0,1,216.968,106.248Zm0,0" transform="translate(-178.761 -89.39)" fill="#252340"/>
        <path id="Trazado_983762" data-name="Trazado 983762" d="M243.348,144.991H245.6a3.372,3.372,0,0,0,3.372-3.372H246.72a1.124,1.124,0,0,1-1.124,1.124h-2.248a1.124,1.124,0,0,1-1.124-1.124v-2.248a1.124,1.124,0,0,1,1.124-1.124H245.6a1.124,1.124,0,0,1,1.124,1.124h2.248A3.372,3.372,0,0,0,245.6,136h-2.248a3.371,3.371,0,0,0-3.371,3.371v2.248A3.371,3.371,0,0,0,243.348,144.991Zm0,0" transform="translate(-206.265 -116.895)" fill="#252340"/>
        <path id="Trazado_983763" data-name="Trazado 983763" d="M150.563,104.364h13.486a1.124,1.124,0,0,0,1.124-1.124v-14.2a14.61,14.61,0,1,0-24.724-10.872l-4.31,6.466a1.123,1.123,0,0,0,.432,1.63l3.877,1.937v7.172a1.124,1.124,0,0,0,1.124,1.124h7.867v6.743a1.124,1.124,0,0,0,1.124,1.124ZM142.7,94.249V87.506a1.124,1.124,0,0,0-.622-1.006l-3.357-1.678,3.79-5.683a1.137,1.137,0,0,0,.189-.624,12.362,12.362,0,1,1,20.6,9.2,1.122,1.122,0,0,0-.373.836v13.564H151.686V95.839L153.6,93.92a1.124,1.124,0,0,0,.329-.795V89.754h-2.248V92.66L150.1,94.249Zm0,0" transform="translate(-116.851 -54.915)" fill="#252340"/>
        <path id="Trazado_983764" data-name="Trazado 983764" d="M66.3,368H10.112a1.1,1.1,0,0,0-.5.13v-.012l-8.991,4.5a1.124,1.124,0,0,0,0,2.012l8.991,4.5v-.012a1.1,1.1,0,0,0,.5.13H66.3A5.619,5.619,0,0,0,66.3,368Zm-3.371,2.248v6.743H60.684v-6.743ZM8.988,376.3l-1.124-.562V371.5l1.124-.562Zm-3.371-3.668v1.982l-1.983-.991Zm5.619,2.115H56.189V372.5H11.235v-2.248h47.2v6.743h-47.2ZM68.695,376a3.393,3.393,0,0,1-2.391.991H65.179v-6.743H66.3A3.372,3.372,0,0,1,68.695,376Zm0,0" transform="translate(0 -316.304)" fill="#252340"/>
      </g>
    </g>
  </g>
</svg>
