<svg xmlns="http://www.w3.org/2000/svg" width="85" height="85" viewBox="0 0 85 85">
  <g id="Grupo_1112969" data-name="Grupo 1112969" transform="translate(-1025.051 -3043)">
    <rect id="Rectángulo_404756" data-name="Rectángulo 404756" width="85" height="85" transform="translate(1025.051 3043)" fill="none"/>
    <g id="Grupo_1112968" data-name="Grupo 1112968" transform="translate(1031.051 3047.935)">
      <circle id="Elipse_12019" data-name="Elipse 12019" cx="18.539" cy="18.539" r="18.539" transform="translate(35.734 36.491)" fill="#ffd039"/>
      <path id="Trazado_983765" data-name="Trazado 983765" d="M365.275,246.506q-.917,0-1.812.088a18.54,18.54,0,0,1,0,36.9q.895.087,1.812.088a18.539,18.539,0,1,0,0-37.078Z" transform="translate(-311.003 -210.016)" fill="#ffae47"/>
      <path id="Trazado_983766" data-name="Trazado 983766" d="M66.846,65.718V69.2a3.227,3.227,0,0,1-3.227,3.227h0A3.227,3.227,0,0,1,60.391,69.2V65.718H21.907V69.2a3.227,3.227,0,0,1-3.227,3.227h0A3.227,3.227,0,0,1,15.453,69.2V65.718H7.534v52.556h36.42A18.541,18.541,0,0,1,74.689,98.165V65.718Z" transform="translate(-6.447 -55.321)" fill="#efe7e4"/>
      <rect id="Rectángulo_404748" data-name="Rectángulo 404748" width="67.118" height="3.624" transform="translate(1.125 22.165)" fill="#d8d1d0"/>
      <path id="Trazado_983767" data-name="Trazado 983767" d="M65.625,23.556h0A3.227,3.227,0,0,1,62.4,20.329v-8.5A3.227,3.227,0,0,1,65.625,8.6h0a3.227,3.227,0,0,1,3.227,3.227v8.5A3.227,3.227,0,0,1,65.625,23.556Z" transform="translate(-53.392 -6.447)" fill="#ffd039"/>
      <path id="Trazado_983768" data-name="Trazado 983768" d="M76.163,8.6a3.213,3.213,0,0,0-1.45.344,3.226,3.226,0,0,1,1.777,2.883v8.5a3.226,3.226,0,0,1-1.777,2.883,3.227,3.227,0,0,0,4.677-2.883v-8.5A3.227,3.227,0,0,0,76.163,8.6Z" transform="translate(-63.929 -6.447)" fill="#f4b008"/>
      <path id="Trazado_983769" data-name="Trazado 983769" d="M376.978,23.556h0a3.227,3.227,0,0,1-3.227-3.227v-8.5A3.227,3.227,0,0,1,376.978,8.6h0a3.227,3.227,0,0,1,3.227,3.227v8.5A3.227,3.227,0,0,1,376.978,23.556Z" transform="translate(-319.806 -6.447)" fill="#ffd039"/>
      <path id="Trazado_983770" data-name="Trazado 983770" d="M387.516,8.6h0a3.211,3.211,0,0,0-1.45.344,3.226,3.226,0,0,1,1.777,2.883v8.5a3.226,3.226,0,0,1-1.777,2.883,3.212,3.212,0,0,0,1.45.344h0a3.227,3.227,0,0,0,3.227-3.227v-8.5A3.227,3.227,0,0,0,387.516,8.6Z" transform="translate(-330.344 -6.447)" fill="#f4b008"/>
      <g id="Grupo_1112967" data-name="Grupo 1112967" transform="translate(11.944 29.484)">
        <rect id="Rectángulo_404749" data-name="Rectángulo 404749" width="7.005" height="7.005" fill="#465a65"/>
        <rect id="Rectángulo_404750" data-name="Rectángulo 404750" width="7.005" height="7.005" transform="translate(12.837)" fill="#465a65"/>
        <rect id="Rectángulo_404751" data-name="Rectángulo 404751" width="7.005" height="7.005" transform="translate(25.675)" fill="#465a65"/>
        <rect id="Rectángulo_404752" data-name="Rectángulo 404752" width="7.005" height="7.005" transform="translate(38.513)" fill="#465a65"/>
        <rect id="Rectángulo_404753" data-name="Rectángulo 404753" width="7.005" height="7.005" transform="translate(0 15.04)" fill="#465a65"/>
        <rect id="Rectángulo_404754" data-name="Rectángulo 404754" width="7.005" height="7.005" transform="translate(12.837 15.04)" fill="#465a65"/>
      </g>
      <path id="Trazado_983771" data-name="Trazado 983771" d="M67.067,65.718V69.2a3.227,3.227,0,0,1-3.227,3.227h0A3.227,3.227,0,0,1,60.613,69.2V65.718H22.129V69.2A3.227,3.227,0,0,1,18.9,72.431h0A3.227,3.227,0,0,1,15.674,69.2V65.718H7.793v11.77H74.948V65.718Z" transform="translate(-6.668 -55.321)" fill="#e93234"/>
      <rect id="Rectángulo_404755" data-name="Rectángulo 404755" width="67.155" height="3.624" transform="translate(1.125 18.541)" fill="#b32425"/>
      <path id="Trazado_983772" data-name="Trazado 983772" d="M315.206,337.238a2.229,2.229,0,0,1-1.576-.653l-5.068-5.068a2.228,2.228,0,1,1,3.151-3.151l3.492,3.492,8.561-8.561a2.228,2.228,0,1,1,3.151,3.151l-10.136,10.136A2.228,2.228,0,0,1,315.206,337.238Z" transform="translate(-263.468 -275.165)" fill="#00b76c"/>
      <path id="Trazado_983773" data-name="Trazado 983773" d="M308.77,331.888a3.3,3.3,0,0,0,2.345-.971l10.136-10.136a3.316,3.316,0,1,0-4.689-4.689l-7.792,7.792-2.724-2.724a3.316,3.316,0,1,0-4.689,4.689l5.068,5.068A3.293,3.293,0,0,0,308.77,331.888Zm-6.209-8.384a1.141,1.141,0,0,1,1.947-.807L308,326.191a1.087,1.087,0,0,0,1.538,0l8.56-8.561a1.141,1.141,0,1,1,1.613,1.613L309.576,329.38a1.141,1.141,0,0,1-1.613,0l-5.068-5.068A1.135,1.135,0,0,1,302.561,323.5Z" transform="translate(-257.032 -268.729)"/>
      <path id="Trazado_983774" data-name="Trazado 983774" d="M69.33,204.492v-8.623a1.087,1.087,0,0,0-2.175,0v6.391a19.637,19.637,0,0,0-4.8-3.078l-.2-.086-.2-.087c-.116-.05-.233-.1-.35-.145l-.045-.018a19.457,19.457,0,0,0-3.018-.936v-6.389a1.087,1.087,0,0,0-1.087-1.087H50.456a1.087,1.087,0,0,0-1.087,1.087v6.533a19.505,19.505,0,0,0-9.019,5.178,1.087,1.087,0,0,0,1.543,1.533,17.333,17.333,0,0,1,12.379-5.151q.233,0,.465.006l.081,0c.129,0,.259.009.388.016l.061,0c.137.008.274.017.41.028l.03,0a17.44,17.44,0,0,1,5.769,1.5l.186.087.191.09q.167.081.332.165l.033.016a17.451,17.451,0,1,1-25.306,17.322v-.013q-.021-.207-.037-.416c0-.03,0-.06-.006-.09-.008-.117-.016-.233-.022-.35,0-.066-.005-.132-.008-.2,0-.084-.007-.169-.01-.253q-.006-.232-.006-.464a17.419,17.419,0,0,1,2.529-9.054,1.087,1.087,0,1,0-1.858-1.13,19.592,19.592,0,0,0-2.846,10.184c0,.161,0,.322.006.482,0,.037,0,.073,0,.11,0,.128.008.256.015.384,0,.031,0,.061.005.092q.011.21.027.42l0,.04a19.362,19.362,0,0,0,1.164,5.307H2.175V206.319a1.087,1.087,0,1,0-2.175,0v18.668a1.087,1.087,0,0,0,1.087,1.087H36.839A19.622,19.622,0,1,0,69.33,204.492Zm-12.956-7.054H51.543v-4.831h4.831Z" transform="translate(0 -162.035)"/>
      <path id="Trazado_983775" data-name="Trazado 983775" d="M84.395,191.519a1.087,1.087,0,0,0-1.087-1.087H76.3a1.087,1.087,0,0,0-1.087,1.087v7.006a1.087,1.087,0,0,0,1.087,1.087h7.006a1.087,1.087,0,0,0,1.087-1.087Zm-2.175,5.919H77.389v-4.831H82.22S82.22,197.438,82.22,197.438Z" transform="translate(-64.358 -162.035)"/>
      <path id="Trazado_983776" data-name="Trazado 983776" d="M173.338,191.519a1.087,1.087,0,0,0-1.087-1.087h-7.006a1.087,1.087,0,0,0-1.087,1.087v7.006a1.087,1.087,0,0,0,1.087,1.087h7.006a1.087,1.087,0,0,0,1.087-1.087Zm-2.175,5.919h-4.831v-4.831h4.831Z" transform="translate(-140.464 -162.035)"/>
      <path id="Trazado_983777" data-name="Trazado 983777" d="M254.189,190.432a1.087,1.087,0,0,0-1.087,1.087v7.006a1.087,1.087,0,0,0,1.087,1.087H261.2a1.087,1.087,0,0,0,1.087-1.087v-7.006a1.087,1.087,0,0,0-1.087-1.087Zm5.919,7.006h-4.831v-4.831h4.831Z" transform="translate(-216.571 -162.035)"/>
      <path id="Trazado_983778" data-name="Trazado 983778" d="M83.307,294.639H76.3a1.087,1.087,0,0,0-1.087,1.087v7.006A1.087,1.087,0,0,0,76.3,303.82h7.006a1.087,1.087,0,0,0,1.087-1.087v-7.006A1.087,1.087,0,0,0,83.307,294.639Zm-1.087,7.006H77.389v-4.831H82.22S82.22,301.645,82.22,301.645Z" transform="translate(-64.358 -251.202)"/>
      <path id="Trazado_983779" data-name="Trazado 983779" d="M172.251,294.639h-7.006a1.087,1.087,0,0,0-1.087,1.087v7.006a1.087,1.087,0,0,0,1.087,1.087h7.006a1.087,1.087,0,0,0,1.087-1.087v-7.006A1.087,1.087,0,0,0,172.251,294.639Zm-1.087,7.006h-4.831v-4.831h4.831Z" transform="translate(-140.465 -251.202)"/>
      <path id="Trazado_983780" data-name="Trazado 983780" d="M1.087,41.022a1.087,1.087,0,0,0,1.087-1.087V23.254H67.156v6.231a1.087,1.087,0,1,0,2.175,0V22.445a1.084,1.084,0,0,0,.037-.279V10.4A1.087,1.087,0,0,0,68.28,9.309H61.487V5.38a4.315,4.315,0,1,0-8.629,0v3.93H16.548V5.38a4.315,4.315,0,1,0-8.629,0v3.93H1.087A1.087,1.087,0,0,0,0,10.4V39.935A1.087,1.087,0,0,0,1.087,41.022ZM55.032,5.38h0a2.14,2.14,0,1,1,4.28,0h0v8.5a2.14,2.14,0,1,1-4.28,0V5.38Zm-44.938,0h0a2.14,2.14,0,1,1,4.28,0h0v8.5a2.14,2.14,0,1,1-4.28,0V5.38Zm-7.881,6.1H7.919v2.4a4.315,4.315,0,1,0,8.629,0v-2.4H52.857v2.4a4.315,4.315,0,1,0,8.629,0v-2.4h5.669v9.595H2.212Z"/>
    </g>
  </g>
</svg>
