<svg xmlns="http://www.w3.org/2000/svg" width="125" height="125" viewBox="0 0 125 125">
  <g id="Grupo_1112971" data-name="Grupo 1112971" transform="translate(-1253.051 -4600)">
    <rect id="Rectángulo_404757" data-name="Rectángulo 404757" width="125" height="125" transform="translate(1253.051 4600)" fill="none"/>
    <g id="Grupo_1112970" data-name="Grupo 1112970" transform="translate(1278.051 4625)">
      <path id="Trazado_983781" data-name="Trazado 983781" d="M10,38.5A28.505,28.505,0,1,1,60.611,56.5h0L40.9,81.763a3.042,3.042,0,0,1-4.8,0L16.5,56.648h.017A28.39,28.39,0,0,1,10,38.5Zm0,0" transform="translate(-8.518 -8.518)" fill="#72d8ff"/>
      <path id="Trazado_983782" data-name="Trazado 983782" d="M287.749,272.44v-6.67h-3.392a15.545,15.545,0,0,0-2.111-5.091l2.4-2.4-4.716-4.716-2.4,2.4a15.544,15.544,0,0,0-5.091-2.111v-3.392h-6.67v3.388a15.523,15.523,0,0,0-5.1,2.107l-2.393-2.392-4.716,4.716,2.389,2.389a15.531,15.531,0,0,0-2.119,5.1h-3.372v6.67h3.368a15.542,15.542,0,0,0,2.115,5.11l-2.381,2.381,4.716,4.716,2.381-2.381a15.536,15.536,0,0,0,5.11,2.115v3.368h6.67v-3.372a15.53,15.53,0,0,0,5.1-2.118l2.389,2.388,4.716-4.716-2.392-2.392a15.538,15.538,0,0,0,2.107-5.1Zm0,0" transform="translate(-213.333 -213.333)" fill="#ff5d5d"/>
      <path id="Trazado_983783" data-name="Trazado 983783" d="M339.581,332.005a7.708,7.708,0,1,1-7.708-7.708A7.708,7.708,0,0,1,339.581,332.005Zm0,0" transform="translate(-276.11 -276.224)" fill="#fff"/>
      <path id="Trazado_983784" data-name="Trazado 983784" d="M140.694,131.347a10.094,10.094,0,0,0-.131-1.625l2.543-1.468-3.556-6.16L137,123.562a10.054,10.054,0,0,0-2.814-1.627V119h-7.113v2.935a10.035,10.035,0,0,0-2.815,1.627l-2.544-1.469-3.556,6.16,2.543,1.468a10.16,10.16,0,0,0,0,3.251l-2.543,1.469,3.556,6.159,2.544-1.469a10.049,10.049,0,0,0,2.815,1.627v2.935h7.113v-2.935A10.053,10.053,0,0,0,137,139.132l2.544,1.469,3.556-6.16-2.543-1.468A10.094,10.094,0,0,0,140.694,131.347Zm0,0" transform="translate(-100.647 -101.36)" fill="#fff" fill-rule="evenodd"/>
      <path id="Trazado_983785" data-name="Trazado 983785" d="M181.847,185.4a3.558,3.558,0,1,1,3.558-3.558A3.558,3.558,0,0,1,181.847,185.4Zm0,0" transform="translate(-151.86 -151.86)" fill="#ff5d5d" fill-rule="evenodd"/>
      <path id="Trazado_983786" data-name="Trazado 983786" d="M74.416,50.955H72.175a16.943,16.943,0,0,0-1.4-3.374l1.585-1.586a1.482,1.482,0,0,0,0-2.1l-4.716-4.716a1.483,1.483,0,0,0-2.1,0l-1.585,1.585a16.944,16.944,0,0,0-3.374-1.4V37.128a1.483,1.483,0,0,0-1.182-1.452,1.469,1.469,0,0,0,.079-.277,30.211,30.211,0,0,0,.487-5.2A30.063,30.063,0,0,0,30.042,0h-.055A29.988,29.988,0,0,0,6.725,48.912a1.552,1.552,0,0,0,.091.131l4.762,6.1a1.483,1.483,0,0,0,2.337-1.825L9.281,47.381a1.475,1.475,0,0,0-.136-.2A27.023,27.023,0,0,1,29.987,2.965h.05A27.1,27.1,0,0,1,57.009,30.18a27.237,27.237,0,0,1-.439,4.687,1.476,1.476,0,0,0,.069.779h-4.2a1.482,1.482,0,0,0-1.482,1.482v2.235a16.931,16.931,0,0,0-3.381,1.4l-1.579-1.579a1.482,1.482,0,0,0-2.1,0L39.183,43.9a1.482,1.482,0,0,0,0,2.1l1.573,1.573a16.929,16.929,0,0,0-1.407,3.387H37.128a1.482,1.482,0,0,0-1.482,1.482v6.67a1.483,1.483,0,0,0,1.482,1.482h2.216q.138.473.3.937L31.216,72.333a1.559,1.559,0,0,1-2.459,0l-7.883-10.1a1.483,1.483,0,0,0-2.337,1.825l7.883,10.1A4.5,4.5,0,0,0,29.987,75.9h0a4.5,4.5,0,0,0,3.567-1.741l5.363-6.874a1.5,1.5,0,0,0,.266.362L43.9,72.362a1.482,1.482,0,0,0,2.1,0L47.562,70.8a16.909,16.909,0,0,0,3.393,1.4v2.216A1.482,1.482,0,0,0,52.437,75.9h6.67a1.482,1.482,0,0,0,1.482-1.482V72.194a16.923,16.923,0,0,0,3.386-1.406l1.574,1.573a1.482,1.482,0,0,0,2.1,0l4.716-4.716a1.483,1.483,0,0,0,0-2.1L70.783,63.97a16.931,16.931,0,0,0,1.4-3.381h2.235A1.482,1.482,0,0,0,75.9,59.107v-6.67a1.482,1.482,0,0,0-1.482-1.482Zm-1.482,6.67H71.029a1.482,1.482,0,0,0-1.449,1.168A14.008,14.008,0,0,1,67.674,63.4a1.483,1.483,0,0,0,.2,1.849L69.217,66.6,66.6,69.217l-1.341-1.341a1.483,1.483,0,0,0-1.851-.2A14.011,14.011,0,0,1,58.791,69.6a1.483,1.483,0,0,0-1.166,1.449v1.889h-3.7V71.048A1.482,1.482,0,0,0,52.751,69.6a14.016,14.016,0,0,1-4.623-1.914,1.483,1.483,0,0,0-1.85.2l-1.332,1.332L42.327,66.6l1.332-1.332a1.483,1.483,0,0,0,.2-1.85,14.017,14.017,0,0,1-1.913-4.623A1.483,1.483,0,0,0,40.5,57.624H38.611v-3.7H40.5a1.482,1.482,0,0,0,1.448-1.167,14.022,14.022,0,0,1,1.916-4.616,1.482,1.482,0,0,0-.2-1.851l-1.34-1.34,2.62-2.62,1.344,1.344a1.483,1.483,0,0,0,1.848.2,14.014,14.014,0,0,1,4.612-1.907,1.482,1.482,0,0,0,1.169-1.449v-1.9h3.7V40.52a1.483,1.483,0,0,0,1.166,1.448,14.014,14.014,0,0,1,4.605,1.91,1.483,1.483,0,0,0,1.85-.2L66.6,42.327l2.619,2.62L67.865,46.3a1.483,1.483,0,0,0-.2,1.85,14.022,14.022,0,0,1,1.91,4.605,1.482,1.482,0,0,0,1.448,1.166h1.909Zm0,0"/>
      <path id="Trazado_983787" data-name="Trazado 983787" d="M323.355,314.3a9.191,9.191,0,1,0,9.191,9.191A9.2,9.2,0,0,0,323.355,314.3Zm0,15.417a6.226,6.226,0,1,1,6.226-6.226A6.234,6.234,0,0,1,323.355,329.714Zm0,0" transform="translate(-267.592 -267.706)"/>
      <path id="Trazado_983788" data-name="Trazado 983788" d="M102.63,388.07a1.483,1.483,0,1,0,1.048.434A1.5,1.5,0,0,0,102.63,388.07Zm0,0" transform="translate(-86.154 -330.543)"/>
      <path id="Trazado_983789" data-name="Trazado 983789" d="M108.213,125.539a1.479,1.479,0,0,0,.148,1.125l3.556,6.16a1.484,1.484,0,0,0,2.025.543l1.7-.981a11.52,11.52,0,0,0,1.436.83v1.961a1.482,1.482,0,0,0,1.482,1.482h7.112a1.482,1.482,0,0,0,1.482-1.482v-1.961a11.449,11.449,0,0,0,1.436-.83l1.7.981a1.482,1.482,0,0,0,2.025-.543l3.556-6.16a1.482,1.482,0,0,0-.543-2.025l-1.7-.981c.02-.276.03-.553.03-.829s-.01-.552-.03-.828l1.7-.982a1.482,1.482,0,0,0,.543-2.025l-3.556-6.159a1.482,1.482,0,0,0-2.025-.543l-1.7.981a11.447,11.447,0,0,0-1.436-.83v-1.961A1.482,1.482,0,0,0,125.672,109H118.56a1.482,1.482,0,0,0-1.482,1.482v1.961a11.447,11.447,0,0,0-1.435.83l-1.7-.981a1.483,1.483,0,0,0-2.025.542l-3.556,6.16a1.482,1.482,0,0,0,.543,2.025l1.7.982q-.03.414-.03.828c0,.276.01.552.03.829l-1.7.981a1.484,1.484,0,0,0-.691.9Zm5.438-1.323a8.623,8.623,0,0,1,0-2.775,1.483,1.483,0,0,0-.722-1.522l-1.259-.727,2.074-3.592,1.26.728a1.483,1.483,0,0,0,1.68-.137,8.543,8.543,0,0,1,2.4-1.387,1.482,1.482,0,0,0,.958-1.386v-1.453h4.147v1.453a1.482,1.482,0,0,0,.958,1.386,8.543,8.543,0,0,1,2.4,1.387,1.483,1.483,0,0,0,1.68.137l1.26-.728,2.074,3.592-1.259.727a1.483,1.483,0,0,0-.722,1.522,8.624,8.624,0,0,1,0,2.775,1.482,1.482,0,0,0,.722,1.522l1.259.727-2.074,3.592-1.26-.728a1.483,1.483,0,0,0-1.68.137,8.543,8.543,0,0,1-2.4,1.387,1.482,1.482,0,0,0-.958,1.386v1.453h-4.147V132.24a1.482,1.482,0,0,0-.958-1.386,8.543,8.543,0,0,1-2.4-1.387,1.483,1.483,0,0,0-1.68-.137l-1.26.728-2.074-3.592,1.259-.727A1.483,1.483,0,0,0,113.651,124.216Zm0,0" transform="translate(-92.129 -92.842)"/>
      <path id="Trazado_983790" data-name="Trazado 983790" d="M173.329,178.369a5.04,5.04,0,1,0-5.04-5.04A5.045,5.045,0,0,0,173.329,178.369Zm0-7.116a2.075,2.075,0,1,1-2.075,2.075A2.077,2.077,0,0,1,173.329,171.254Zm0,0" transform="translate(-143.342 -143.342)"/>
    </g>
  </g>
</svg>
