<svg xmlns="http://www.w3.org/2000/svg" width="85" height="85" viewBox="0 0 85 85">
  <g id="Grupo_1113091" data-name="Grupo 1113091" transform="translate(-596.051 -5229)">
    <g id="Grupo_1113054" data-name="Grupo 1113054" transform="translate(-1 4)">
      <rect id="Rect치ngulo_404764" data-name="Rect치ngulo 404764" width="75" height="75" transform="translate(602.051 5230)" fill="none"/>
      <g id="Grupo_1113052" data-name="Grupo 1113052" transform="translate(602.051 5230)">
        <g id="Grupo_1113043" data-name="Grupo 1113043" transform="translate(0.587 0.518)">
          <path id="Trazado_983926" data-name="Trazado 983926" d="M4.5,10V68.678a4.879,4.879,0,0,0,4.863,4.867H53.78a4.879,4.879,0,0,0,4.863-4.867V10A4.879,4.879,0,0,0,53.78,5.134H9.363A4.879,4.879,0,0,0,4.5,10Z" transform="translate(-4.5 -5.134)" fill="#eaf6ff" fill-rule="evenodd"/>
        </g>
        <g id="Grupo_1113044" data-name="Grupo 1113044" transform="translate(6.194 49.053)">
          <path id="Trazado_983927" data-name="Trazado 983927" d="M42.705,335.816h12.34v12.336H42.705Z" transform="translate(-42.705 -335.816)" fill="#ffd301" fill-rule="evenodd"/>
        </g>
        <g id="Grupo_1113045" data-name="Grupo 1113045" transform="translate(6.194 29.972)">
          <path id="Trazado_983928" data-name="Trazado 983928" d="M42.705,205.815h12.34v12.336H42.705Z" transform="translate(-42.705 -205.815)" fill="#ffd301" fill-rule="evenodd"/>
        </g>
        <g id="Grupo_1113046" data-name="Grupo 1113046" transform="translate(6.194 10.892)">
          <path id="Trazado_983929" data-name="Trazado 983929" d="M42.705,75.814h12.34v12.34H42.705Z" transform="translate(-42.705 -75.814)" fill="#ffd301" fill-rule="evenodd"/>
        </g>
        <g id="Grupo_1113047" data-name="Grupo 1113047" transform="translate(30.812 43.769)">
          <path id="Trazado_983930" data-name="Trazado 983930" d="M225.629,330.2a15.194,15.194,0,1,0-15.195-15.194A15.223,15.223,0,0,0,225.629,330.2Z" transform="translate(-210.434 -299.816)" fill="#fd646f" fill-rule="evenodd"/>
        </g>
        <g id="Grupo_1113048" data-name="Grupo 1113048" transform="translate(36.126 48.789)">
          <path id="Trazado_983931" data-name="Trazado 983931" d="M256.516,353.779a9.881,9.881,0,1,0-9.881-9.881A9.9,9.9,0,0,0,256.516,353.779Z" transform="translate(-246.635 -334.017)" fill="#f5f5f5" fill-rule="evenodd"/>
        </g>
        <g id="Grupo_1113049" data-name="Grupo 1113049" transform="translate(41.494 54.157)">
          <path id="Trazado_983932" data-name="Trazado 983932" d="M287.722,379.618a4.513,4.513,0,1,0-4.513-4.513A4.522,4.522,0,0,0,287.722,379.618Z" transform="translate(-283.209 -370.592)" fill="#fd646f" fill-rule="evenodd"/>
        </g>
        <g id="Grupo_1113050" data-name="Grupo 1113050" transform="translate(34.418 54.56)">
          <path id="Trazado_983933" data-name="Trazado 983933" d="M261.05,376.637A15.529,15.529,0,0,1,235,388.063,15.2,15.2,0,0,0,260.7,373.336,15.492,15.492,0,0,1,261.05,376.637Z" transform="translate(-235.002 -373.336)" fill="#eb4954" fill-rule="evenodd"/>
        </g>
        <g id="Grupo_1113051" data-name="Grupo 1113051" transform="translate(63.131 41.912)">
          <path id="Trazado_983934" data-name="Trazado 983934" d="M430.633,294.075v-4.269l4.572-2.64v4.269l3.7,2.139-4.572,2.64Z" transform="translate(-430.633 -287.166)" fill="#fac149" fill-rule="evenodd"/>
        </g>
        <path id="Trazado_983935" data-name="Trazado 983935" d="M5.889,50.494a1.026,1.026,0,0,1,1.025-1.026h8.5a1.026,1.026,0,0,1,0,2.051H7.941V61.635H18.055V55.286a1.025,1.025,0,1,1,2.051,0V62.66a1.026,1.026,0,0,1-1.025,1.026H6.915A1.026,1.026,0,0,1,5.889,62.66Zm16.157-3.6a1.025,1.025,0,0,0-1.442.16l-7.812,9.758L10.7,53.463A1.026,1.026,0,0,0,8.96,54.551l2.861,4.576a1.026,1.026,0,0,0,.81.48l.06,0a1.025,1.025,0,0,0,.8-.385l8.715-10.887a1.025,1.025,0,0,0-.16-1.442ZM5.889,43.843a1.026,1.026,0,0,0,1.025,1.026H19.081a1.025,1.025,0,0,0,1.025-1.026V36.469a1.025,1.025,0,1,0-2.051,0v6.348H7.941V32.7h7.474a1.026,1.026,0,0,0,0-2.051h-8.5a1.026,1.026,0,0,0-1.025,1.026ZM22.047,28.082a1.026,1.026,0,0,0-1.442.159L12.794,38,10.7,34.646A1.026,1.026,0,0,0,8.96,35.734l2.861,4.576a1.025,1.025,0,0,0,.81.48l.06,0a1.025,1.025,0,0,0,.8-.385l8.715-10.883a1.026,1.026,0,0,0-.159-1.442Zm9.44,40.989H6.326A3.779,3.779,0,0,1,2.551,65.3V7.428A3.778,3.778,0,0,1,6.326,3.654h43.8A3.779,3.779,0,0,1,53.9,7.428V44.474a1.025,1.025,0,1,0,2.051,0V7.428A5.832,5.832,0,0,0,50.126,1.6H6.326A5.832,5.832,0,0,0,.5,7.428V65.3a5.832,5.832,0,0,0,5.825,5.825H31.487a1.026,1.026,0,0,0,0-2.051ZM15.414,13.885a1.026,1.026,0,0,0,0-2.051h-8.5A1.026,1.026,0,0,0,5.889,12.86v12.17a1.026,1.026,0,0,0,1.025,1.026H19.081a1.026,1.026,0,0,0,1.025-1.026V17.651a1.025,1.025,0,1,0-2.051,0V24H7.941V13.885Zm6.633-4.621a1.025,1.025,0,0,0-1.442.159l-7.812,9.755L10.7,15.832A1.026,1.026,0,1,0,8.96,16.92l2.861,4.572a1.026,1.026,0,0,0,.81.48l.06,0a1.025,1.025,0,0,0,.8-.385l8.715-10.883a1.026,1.026,0,0,0-.159-1.442ZM47.1,11.834H26.355a1.026,1.026,0,0,0,0,2.051H47.1a1.026,1.026,0,0,0,0-2.051Zm0,5.489H26.355a1.026,1.026,0,0,0,0,2.051H47.1a1.026,1.026,0,0,0,0-2.051Zm0,13.328H26.355a1.026,1.026,0,0,0,0,2.051H47.1a1.026,1.026,0,0,0,0-2.051Zm1.026,6.515A1.026,1.026,0,0,0,47.1,36.14H26.355a1.026,1.026,0,0,0,0,2.051H47.1A1.026,1.026,0,0,0,48.121,37.166ZM32.48,50.494a1.026,1.026,0,0,0-1.025-1.026h-5.1a1.026,1.026,0,0,0,0,2.051h5.1A1.026,1.026,0,0,0,32.48,50.494Zm-6.124,4.464a1.026,1.026,0,0,0,0,2.051h2.716a1.026,1.026,0,0,0,0-2.051Zm48.631-9.97-4.636,2.675,2.112,1.221a1.025,1.025,0,0,1,0,1.776l-4.509,2.6a1.025,1.025,0,0,1-1.026,0L63.791,51.45l-2.975,1.718a16.056,16.056,0,1,1-1.028-1.775l2.978-1.72V46.056a1.026,1.026,0,0,1,.513-.888l4.509-2.6a1.025,1.025,0,0,1,1.538.888v2.434l4.636-2.675a1.026,1.026,0,0,1,1.025,1.777ZM59.036,54.2l-2.773,1.6a10.806,10.806,0,1,1-1.029-1.775l2.773-1.6A13.887,13.887,0,1,0,59.036,54.2ZM45.407,59.7l3.376-1.949a3.425,3.425,0,1,0,1.027,1.775l-3.378,1.95A1.026,1.026,0,1,1,45.407,59.7Zm5.2-3,2.84-1.64a8.7,8.7,0,1,0,1.028,1.775l-2.84,1.639a5.494,5.494,0,1,1-1.029-1.775ZM69.9,49.772l-2.1-1.215,0,0,0,0-.025-.017a1.023,1.023,0,0,1-.085-.057c-.011-.009-.021-.019-.032-.028s-.047-.039-.069-.06-.027-.03-.04-.045-.033-.036-.049-.056a1.046,1.046,0,0,1-.075-.111h0a1.042,1.042,0,0,1-.054-.11c0-.01-.007-.019-.011-.029-.012-.03-.022-.06-.031-.09l-.008-.029a1.022,1.022,0,0,1-.023-.113V47.8a1.007,1.007,0,0,1-.008-.126s0-.006,0-.009V45.229l-2.458,1.419v3.026l2.624,1.517Z" transform="translate(-0.5 -1.603)"/>
      </g>
    </g>
    <rect id="Rect치ngulo_404786" data-name="Rect치ngulo 404786" width="85" height="85" transform="translate(596.051 5229)" fill="none"/>
  </g>
</svg>
