<svg xmlns="http://www.w3.org/2000/svg" width="77" height="77" viewBox="0 0 77 77">
  <g id="Grupo_1113055" data-name="Grupo 1113055" transform="translate(-936.051 -5227)">
    <rect id="Rectángulo_404765" data-name="Rectángulo 404765" width="77" height="77" transform="translate(936.051 5227)" fill="none"/>
    <g id="Grupo_1112977" data-name="Grupo 1112977" transform="translate(938.768 5228.812)">
      <g id="Grupo_1112975" data-name="Grupo 1112975" transform="translate(0 0)">
        <g id="Grupo_1112973" data-name="Grupo 1112973" transform="translate(0 0)">
          <path id="Trazado_983812" data-name="Trazado 983812" d="M96.888,7.5H58.023l-.826.344L56.028,9.689V72.423l5.59,5.531,1.011,2.176H96.888a2.979,2.979,0,0,0,2.979-2.979V10.479A2.979,2.979,0,0,0,96.888,7.5Z" transform="translate(-49.303 -7.5)" fill="#c9f0fe"/>
          <path id="Trazado_983813" data-name="Trazado 983813" d="M17.011,10.333A2.979,2.979,0,0,1,19.071,7.5H12.992a2.979,2.979,0,0,0-2.979,2.979V66.8h0l1.829.774,5.169,5.115V10.333Z" transform="translate(-10.013 -7.5)" fill="#9be8fd"/>
          <path id="Trazado_983814" data-name="Trazado 983814" d="M23.34,426.636V416.289a2.979,2.979,0,0,0-2.979-2.979H10.014Z" transform="translate(-10.014 -354.005)" fill="#62ddfc"/>
        </g>
        <path id="Trazado_983815" data-name="Trazado 983815" d="M193.763,157.211H180.209v1.047l8.586,9,1.584.324a13.707,13.707,0,0,0,3.991-9.685Z" transform="translate(-155.337 -135.332)" fill="#a2e82d"/>
        <g id="Grupo_1112974" data-name="Grupo 1112974" transform="translate(58.41 4.43)">
          <path id="Trazado_983816" data-name="Trazado 983816" d="M433.209,294.725h3.313l.68-.566V277.039l-.43-.453h-3.562Z" transform="translate(-429.774 -241.692)" fill="#ffe559"/>
          <path id="Trazado_983817" data-name="Trazado 983817" d="M413.418,276.586h-3.129l-.585.453v17.121l.585.566h3.129Z" transform="translate(-409.704 -241.692)" fill="#fbc700"/>
          <path id="Trazado_983818" data-name="Trazado 983818" d="M433.208,402.207l.9,2.43,1.1.977.5-.207h0l.8-2.037a10.161,10.161,0,0,0,.705-3.719v-2.815h-3.993v5.371Z" transform="translate(-429.773 -344.368)" fill="#6b7ed9"/>
          <path id="Trazado_983819" data-name="Trazado 983819" d="M413.418,401.724v-4.887H409.7v2.814a10.161,10.161,0,0,0,.705,3.72l1.353,3.441a1.779,1.779,0,0,0,3.311,0l.552-1.4A4.194,4.194,0,0,1,413.418,401.724Z" transform="translate(-409.704 -344.369)" fill="#4d66d2"/>
          <path id="Trazado_983820" data-name="Trazado 983820" d="M433.209,150.1h3.4l.595-.437v-6.257l-.741-.448h-3.252Z" transform="translate(-429.774 -127.594)" fill="#ffe559"/>
          <path id="Trazado_983821" data-name="Trazado 983821" d="M413.418,142.961h-3.092l-.622.448v6.257l.585.437h3.129Z" transform="translate(-409.704 -127.594)" fill="#fbc700"/>
          <path id="Trazado_983822" data-name="Trazado 983822" d="M435.515,41.935h-.333l-1.151.954-.822,1.918V57.147H437.2v-12.1A3.71,3.71,0,0,0,435.515,41.935Z" transform="translate(-429.774 -41.332)" fill="#6b7ed9"/>
          <path id="Trazado_983823" data-name="Trazado 983823" d="M413.418,41.994a4.191,4.191,0,0,1,2.027-3.581,3.7,3.7,0,0,0-2.33-.591A3.764,3.764,0,0,0,409.7,41.6V53.626h3.714Z" transform="translate(-409.704 -37.811)" fill="#4d66d2"/>
          <rect id="Rectángulo_404758" data-name="Rectángulo 404758" width="3.993" height="13.275" transform="translate(3.435 22.072)" fill="#6b7ed9"/>
          <rect id="Rectángulo_404759" data-name="Rectángulo 404759" width="3.714" height="13.275" transform="translate(0 22.072)" fill="#4d66d2"/>
        </g>
        <path id="Trazado_983824" data-name="Trazado 983824" d="M180.619,67.811l-.41.577V80.73l.41.832H194.37A13.751,13.751,0,0,0,180.619,67.811Z" transform="translate(-155.337 -58.997)" fill="#00d2fc"/>
        <path id="Trazado_983825" data-name="Trazado 983825" d="M180.619,161.9l-.41.362v12.422l.41.967a13.708,13.708,0,0,0,9.76-4.065Z" transform="translate(-155.337 -139.34)" fill="#ffe559"/>
        <path id="Trazado_983826" data-name="Trazado 983826" d="M133.159,67.892,130.176,69.4l-3.8,9.389s1.537,6.628,1.4,6.706,1.57,5.387,1.57,5.387l2.722,3.453,1.09.892h0a13.888,13.888,0,0,0,1.494.081v-27.5A13.887,13.887,0,0,0,133.159,67.892Z" transform="translate(-109.371 -58.997)" fill="#ff4fb9"/>
        <path id="Trazado_983827" data-name="Trazado 983827" d="M95.794,82.035a19.985,19.985,0,0,1,5.382-13.67,13.751,13.751,0,0,0,0,27.339A19.985,19.985,0,0,1,95.794,82.035Z" transform="translate(-77.388 -59.47)" fill="#ff29ab"/>
      </g>
      <g id="Grupo_1112976" data-name="Grupo 1112976" transform="translate(0 0)">
        <path id="Trazado_983828" data-name="Trazado 983828" d="M23.338,426.636V416.289a2.979,2.979,0,0,0-2.979-2.979H10.012Z" transform="translate(-10.012 -354.005)" fill="none" stroke="#000" stroke-linecap="round" stroke-linejoin="round" stroke-miterlimit="10" stroke-width="2"/>
        <path id="Trazado_983829" data-name="Trazado 983829" d="M102.67,67.811a13.751,13.751,0,1,0,0,27.5Z" transform="translate(-77.388 -58.997)" fill="none" stroke="#000" stroke-linecap="round" stroke-linejoin="round" stroke-miterlimit="10" stroke-width="2"/>
        <path id="Trazado_983830" data-name="Trazado 983830" d="M196.763,81.562a13.751,13.751,0,0,0-13.751-13.751V81.562Z" transform="translate(-157.73 -58.997)" fill="none" stroke="#000" stroke-linecap="round" stroke-linejoin="round" stroke-miterlimit="10" stroke-width="2"/>
        <path id="Trazado_983831" data-name="Trazado 983831" d="M192.773,171.59l-9.76-9.686v13.751A13.708,13.708,0,0,0,192.773,171.59Z" transform="translate(-157.731 -139.34)" fill="none" stroke="#000" stroke-linecap="round" stroke-linejoin="round" stroke-miterlimit="10" stroke-width="2"/>
        <path id="Trazado_983832" data-name="Trazado 983832" d="M196.763,161.9H183.012l9.76,9.686A13.706,13.706,0,0,0,196.763,161.9Z" transform="translate(-157.73 -139.34)" fill="none" stroke="#000" stroke-linecap="round" stroke-linejoin="round" stroke-miterlimit="10" stroke-width="2"/>
        <line id="Línea_595" data-name="Línea 595" x2="32.707" transform="translate(8.928 43.513)" fill="none" stroke="#000" stroke-linecap="round" stroke-linejoin="round" stroke-miterlimit="10" stroke-width="2"/>
        <line id="Línea_596" data-name="Línea 596" x2="32.707" transform="translate(8.928 48.478)" fill="none" stroke="#000" stroke-linecap="round" stroke-linejoin="round" stroke-miterlimit="10" stroke-width="2"/>
        <line id="Línea_597" data-name="Línea 597" x2="32.707" transform="translate(8.928 53.443)" fill="none" stroke="#000" stroke-linecap="round" stroke-linejoin="round" stroke-miterlimit="10" stroke-width="2"/>
        <path id="Trazado_983833" data-name="Trazado 983833" d="M410.878,129.661V110.7a5.479,5.479,0,0,0-5.478-5.479H395.285" transform="translate(-338.982 -90.938)" fill="none" stroke="#000" stroke-linecap="round" stroke-linejoin="round" stroke-miterlimit="10" stroke-width="2"/>
        <path id="Trazado_983834" data-name="Trazado 983834" d="M409.7,396.837v2.814a10.163,10.163,0,0,0,.705,3.719l1.353,3.441a1.779,1.779,0,0,0,3.31,0l1.353-3.441a10.165,10.165,0,0,0,.705-3.719v-2.814Z" transform="translate(-351.293 -339.94)" fill="none" stroke="#000" stroke-linecap="round" stroke-linejoin="round" stroke-miterlimit="10" stroke-width="2"/>
        <rect id="Rectángulo_404760" data-name="Rectángulo 404760" width="7.428" height="6.257" transform="translate(58.41 20.245)" fill="none" stroke="#000" stroke-linecap="round" stroke-linejoin="round" stroke-miterlimit="10" stroke-width="2"/>
        <path id="Trazado_983835" data-name="Trazado 983835" d="M417.131,53.626v-12.1a3.714,3.714,0,1,0-7.428,0v12.1h7.428Z" transform="translate(-351.293 -33.381)" fill="none" stroke="#000" stroke-linecap="round" stroke-linejoin="round" stroke-miterlimit="10" stroke-width="2"/>
        <rect id="Rectángulo_404761" data-name="Rectángulo 404761" width="7.428" height="13.275" transform="translate(58.41 26.502)" fill="none" stroke="#000" stroke-linecap="round" stroke-linejoin="round" stroke-miterlimit="10" stroke-width="2"/>
        <path id="Trazado_983836" data-name="Trazado 983836" d="M32.738,7.5H12.992a2.979,2.979,0,0,0-2.979,2.979V66.8L23.339,80.13H57.6a2.979,2.979,0,0,0,2.979-2.979V10.479A2.979,2.979,0,0,0,57.6,7.5H37.852" transform="translate(-10.013 -7.5)" fill="none" stroke="#000" stroke-linecap="round" stroke-linejoin="round" stroke-miterlimit="10" stroke-width="2"/>
        <path id="Trazado_983837" data-name="Trazado 983837" d="M417.131,285.688v-6H409.7v17.12h7.428v-6" transform="translate(-351.293 -239.908)" fill="none" stroke="#000" stroke-linecap="round" stroke-linejoin="round" stroke-miterlimit="10" stroke-width="2"/>
      </g>
    </g>
  </g>
</svg>
