<svg xmlns="http://www.w3.org/2000/svg" width="77.86" height="77" viewBox="0 0 77.86 77">
  <g id="Grupo_1113056" data-name="Grupo 1113056" transform="translate(-1242.051 -5227)">
    <rect id="Rectángulo_404766" data-name="Rectángulo 404766" width="77" height="77" transform="translate(1242.051 5227)" fill="none"/>
    <g id="Grupo_1113040" data-name="Grupo 1113040" transform="translate(1242.957 5227)">
      <g id="Grupo_1113038" data-name="Grupo 1113038" transform="translate(1.241 1.241)">
        <g id="Grupo_1113022" data-name="Grupo 1113022" transform="translate(54.613)">
          <path id="Trazado_983890" data-name="Trazado 983890" d="M65.859,2V21.859H46V2Z" transform="translate(-46 -2)" fill="#e6e9ed"/>
        </g>
        <g id="Grupo_1113023" data-name="Grupo 1113023" transform="translate(27.306)">
          <path id="Trazado_983891" data-name="Trazado 983891" d="M43.859,13.171v8.688H24V2H43.859Z" transform="translate(-24 -2)" fill="#e6e9ed"/>
        </g>
        <g id="Grupo_1113024" data-name="Grupo 1113024">
          <path id="Trazado_983892" data-name="Trazado 983892" d="M21.859,2V21.859H2V2Z" transform="translate(-2 -2)" fill="#e6e9ed"/>
        </g>
        <g id="Grupo_1113025" data-name="Grupo 1113025" transform="translate(29.789 63.301)">
          <path id="Trazado_983893" data-name="Trazado 983893" d="M30.965,53l2.482,11.171H26L28.482,53Z" transform="translate(-26 -53)" fill="#ffeaa7"/>
        </g>
        <g id="Grupo_1113026" data-name="Grupo 1113026" transform="translate(30.496 55.854)">
          <path id="Trazado_983894" data-name="Trazado 983894" d="M32.6,50.016l-1.775,4.431H28.345L26.57,50.016,29.586,47Z" transform="translate(-26.57 -47)" fill="#fcd770"/>
        </g>
        <g id="Grupo_1113027" data-name="Grupo 1113027" transform="translate(34.753 39.718)">
          <path id="Trazado_983895" data-name="Trazado 983895" d="M62.271,36.482l-.956,3.091A18.468,18.468,0,0,1,43.653,52.618V68.753H32.482L30,57.583l1.775-4.431L33.724,55.1l2.209-9.93h3.388A16.342,16.342,0,0,0,54.824,34Z" transform="translate(-30 -34)" fill="#ef7385"/>
        </g>
        <g id="Grupo_1113028" data-name="Grupo 1113028" transform="translate(11.171 51.162)">
          <path id="Trazado_983896" data-name="Trazado 983896" d="M18.447,66.53H11V61.614A18.711,18.711,0,0,1,26.229,43.22l2.147,9.656,1.949-1.949L32.1,55.359,29.618,66.53Z" transform="translate(-11 -43.22)" fill="#ef7385"/>
        </g>
        <g id="Grupo_1113029" data-name="Grupo 1113029" transform="translate(33.512 50.889)">
          <path id="Trazado_983897" data-name="Trazado 983897" d="M32.016,50.981,29,47.965,33.965,43h2.209l-2.209,9.93Z" transform="translate(-29 -43)" fill="#ed5565"/>
        </g>
        <g id="Grupo_1113030" data-name="Grupo 1113030" transform="translate(26.4 50.889)">
          <path id="Trazado_983898" data-name="Trazado 983898" d="M27.366,50.981,25.417,52.93,23.27,43.273A20.3,20.3,0,0,1,25.417,43l4.965,4.965Z" transform="translate(-23.27 -43)" fill="#ed5565"/>
        </g>
        <g id="Grupo_1113031" data-name="Grupo 1113031" transform="translate(19.859 19.859)">
          <path id="Trazado_983899" data-name="Trazado 983899" d="M45.306,29.022a10.954,10.954,0,0,1-1.154,4.9,3.7,3.7,0,0,0-2.569-1.03H40.341V31.07a3.136,3.136,0,0,0-3.14-3.14,23.427,23.427,0,0,1-10.513-2.482,8.373,8.373,0,0,0-3.724,6.963v.484H21.724a3.7,3.7,0,0,0-2.569,1.03A11.016,11.016,0,0,1,29.022,18h5.263A11.018,11.018,0,0,1,45.306,29.022Z" transform="translate(-18 -18)" fill="#b27946"/>
        </g>
        <g id="Grupo_1113032" data-name="Grupo 1113032" transform="translate(58.336 32.271)">
          <path id="Trazado_983900" data-name="Trazado 983900" d="M57.614,29.452a3.792,3.792,0,0,1,2.557,3.6,3.743,3.743,0,0,1-.645,2.11L57.688,37.93l-7.447-2.482-1.08-3.227A3.218,3.218,0,0,1,52.2,28h2.085a2.136,2.136,0,0,1,1.949,1.241h.124a3.852,3.852,0,0,1,1.254.211Z" transform="translate(-49 -28)" fill="#f0d0b4"/>
        </g>
        <g id="Grupo_1113033" data-name="Grupo 1113033" transform="translate(62.06 24.824)">
          <path id="Trazado_983901" data-name="Trazado 983901" d="M56.965,24.482v6.206l-.074.211a3.852,3.852,0,0,0-1.254-.211h-.124a2.136,2.136,0,0,0-1.949-1.241H52V24.482A2.49,2.49,0,0,1,54.482,22a2.5,2.5,0,0,1,2.482,2.482Z" transform="translate(-52 -22)" fill="#f0d0b4"/>
        </g>
        <g id="Grupo_1113034" data-name="Grupo 1113034" transform="translate(42.076 34.753)">
          <path id="Trazado_983902" data-name="Trazado 983902" d="M40.989,33.724a3.719,3.719,0,0,1-3.724,3.724H36.024l-.124-.012a5.733,5.733,0,0,0,.124-1.229V30h1.241a3.7,3.7,0,0,1,2.569,1.03l.062.062A3.715,3.715,0,0,1,40.989,33.724Z" transform="translate(-35.9 -30)" fill="#f0d0b4"/>
        </g>
        <g id="Grupo_1113035" data-name="Grupo 1113035" transform="translate(28.547 47.054)">
          <path id="Trazado_983903" data-name="Trazado 983903" d="M33.651,39.91l1.278,3.835L29.965,48.71,25,43.745l1.278-3.835a6.486,6.486,0,0,0,1.2.112h4.965A6.486,6.486,0,0,0,33.651,39.91Z" transform="translate(-25 -39.91)" fill="#f0d0b4"/>
        </g>
        <g id="Grupo_1113036" data-name="Grupo 1113036" transform="translate(24.824 27.306)">
          <path id="Trazado_983904" data-name="Trazado 983904" d="M39.377,31.447v6.206a5.733,5.733,0,0,1-.124,1.229,6.209,6.209,0,0,1-4.878,4.865,6.485,6.485,0,0,1-1.2.112H28.206a6.485,6.485,0,0,1-1.2-.112,6.209,6.209,0,0,1-4.878-4.865A5.733,5.733,0,0,1,22,37.653v-6.69A8.373,8.373,0,0,1,25.724,24a23.426,23.426,0,0,0,10.513,2.482,3.136,3.136,0,0,1,3.14,3.14Z" transform="translate(-22 -24)" fill="#f0d0b4"/>
        </g>
        <g id="Grupo_1113037" data-name="Grupo 1113037" transform="translate(19.859 34.753)">
          <path id="Trazado_983905" data-name="Trazado 983905" d="M22.965,36.206a5.733,5.733,0,0,0,.124,1.229l-.124.012H21.724a3.724,3.724,0,0,1,0-7.447h1.241Z" transform="translate(-18 -30)" fill="#f0d0b4"/>
        </g>
      </g>
      <g id="Grupo_1113039" data-name="Grupo 1113039" transform="translate(0 0)">
        <path id="Trazado_983906" data-name="Trazado 983906" d="M77.954,23.341V1H55.613V12.171H50.648V1H28.306V12.171H23.341V1H1V23.341H23.341V14.653h4.965v7.2a12.2,12.2,0,0,0-6.493,15.969,4.91,4.91,0,0,0-.954,2.9,4.97,4.97,0,0,0,4.965,4.965h.434A7.477,7.477,0,0,0,30.49,50.1l-.622,1.866a20.024,20.024,0,0,0-17.7,19.823v6.161H51.889V61.781A19.618,19.618,0,0,0,69.5,47.894l.9-2.914,1.741-2.611a5.025,5.025,0,0,0-1.633-7.129V29.547a3.724,3.724,0,1,0-7.447,0v3.8a4.427,4.427,0,0,0-3.494,5.778l.937,2.813A15.072,15.072,0,0,1,46.32,51.889H41.613l-.6-1.785a7.474,7.474,0,0,0,4.231-4.421h.434a4.97,4.97,0,0,0,4.965-4.965,4.917,4.917,0,0,0-.954-2.9,12.157,12.157,0,0,0-3.945-14.475h4.9V14.653h4.965v8.688ZM20.859,20.859H3.482V3.482H20.859Zm2.482,19.859a2.485,2.485,0,0,1,2.482-2.482V43.2A2.485,2.485,0,0,1,23.341,40.718ZM41.233,54.371h.144L40,60.583l-2.489-2.489ZM35.508,66.783H36l1.931,8.688H33.578Zm1.8-5.376L36.154,64.3h-.8L34.2,61.408l1.558-1.558Zm-5.8-.824-1.363-6.128c.063-.007.125-.016.189-.022L34,58.095ZM14.653,71.793A17.544,17.544,0,0,1,27.7,54.9l2.364,10.637,2.218-2.218.932,2.328-2.183,9.825H22.1V63.06H19.618V75.472H14.653Zm52.13-43.486a1.242,1.242,0,0,1,1.241,1.241v4.522a3.367,3.367,0,0,0-2.163-.8h-.319V29.547A1.242,1.242,0,0,1,66.783,28.306Zm-3,7.447h2.08a.923.923,0,0,1,.29,1.8l-2.244.748.786,2.353,2.244-.748a3.4,3.4,0,0,0,2.256-2.569,2.553,2.553,0,0,1,.881,3.653l-1.317,1.975L62.8,40.978l-.88-2.643a1.962,1.962,0,0,1,1.862-2.582Zm-1.218,7.762,5.16,1.72-.593,1.928A17.156,17.156,0,0,1,50.648,59.336H49.407V75.472H40.472l-2.183-9.825.932-2.328,2.218,2.218L43.92,54.371h2.4A17.559,17.559,0,0,0,62.563,43.516ZM39.3,52.8,35.753,56.34,32.209,52.8l.721-2.165c.114,0,.226.017.341.017h4.965c.115,0,.227-.012.341-.017ZM43.2,43.2a4.97,4.97,0,0,1-4.965,4.965H33.271A4.97,4.97,0,0,1,28.306,43.2V36.5a7.107,7.107,0,0,1,2.616-5.516A24.888,24.888,0,0,0,41.3,33.271a1.9,1.9,0,0,1,1.9,1.9Zm2.482,0V38.236a2.482,2.482,0,0,1,0,4.965Zm2.482-10.074a9.813,9.813,0,0,1-.5,3.046,4.919,4.919,0,0,0-1.982-.42v-.586A4.384,4.384,0,0,0,41.3,30.789a22.369,22.369,0,0,1-9.959-2.352l-.644-.323-.6.4a9.568,9.568,0,0,0-4.23,7.239h-.047a4.939,4.939,0,0,0-1.982.418,9.747,9.747,0,0,1,9.285-12.829H38.38a9.8,9.8,0,0,1,9.786,9.786Zm0-12.268H30.789V3.482H48.165Zm9.93-17.377H75.472V20.859H58.095Z" transform="translate(-1 -1)"/>
        <path id="Trazado_983907" data-name="Trazado 983907" d="M49,5H61.412V7.482H49Z" transform="translate(10.577 -0.035)"/>
        <path id="Trazado_983908" data-name="Trazado 983908" d="M49,9H61.412v2.482H49Z" transform="translate(10.577 0.93)"/>
        <path id="Trazado_983909" data-name="Trazado 983909" d="M49,13H61.412v2.482H49Z" transform="translate(10.577 1.894)"/>
        <path id="Trazado_983910" data-name="Trazado 983910" d="M5,5H17.412V7.482H5Z" transform="translate(-0.035 -0.035)"/>
        <path id="Trazado_983911" data-name="Trazado 983911" d="M5,9H17.412v2.482H5Z" transform="translate(-0.035 0.93)"/>
        <path id="Trazado_983912" data-name="Trazado 983912" d="M5,13H17.412v2.482H5Z" transform="translate(-0.035 1.894)"/>
        <path id="Trazado_983913" data-name="Trazado 983913" d="M27,5H39.412V7.482H27Z" transform="translate(5.271 -0.035)"/>
        <path id="Trazado_983914" data-name="Trazado 983914" d="M27,9H39.412v2.482H27Z" transform="translate(5.271 0.93)"/>
        <path id="Trazado_983915" data-name="Trazado 983915" d="M27,13H39.412v2.482H27Z" transform="translate(5.271 1.894)"/>
      </g>
    </g>
  </g>
</svg>
