<svg xmlns="http://www.w3.org/2000/svg" width="85" height="85" viewBox="0 0 85 85">
  <g id="Grupo_1112946" data-name="Grupo 1112946" transform="translate(-180 -781)">
    <rect id="Rect치ngulo_404722" data-name="Rect치ngulo 404722" width="85" height="85" transform="translate(180 781)" fill="none"/>
    <g id="Document" transform="translate(186.917 782)">
      <path id="Trazado_983605" data-name="Trazado 983605" d="M60.034,5H46.348a1.711,1.711,0,0,0-1.711,1.711v3.422a1.711,1.711,0,0,1-1.711,1.711H29.24a1.711,1.711,0,0,1-1.711-1.711V6.711A1.711,1.711,0,0,0,25.819,5H12.132A5.132,5.132,0,0,0,7,10.132v63.3a5.132,5.132,0,0,0,5.132,5.132h47.9a5.132,5.132,0,0,0,5.132-5.132v-63.3A5.132,5.132,0,0,0,60.034,5Z" transform="translate(0 3.554)" fill="#2276bc"/>
      <rect id="Rect치ngulo_404721" data-name="Rect치ngulo 404721" width="44.947" height="59.489" rx="3" transform="translate(13.61 15.941)" fill="#d0e2ee"/>
      <path id="Trazado_983606" data-name="Trazado 983606" d="M39.24,4H18.711A1.711,1.711,0,0,0,17,5.711v5.132a5.132,5.132,0,0,0,5.132,5.132H35.819a5.132,5.132,0,0,0,5.132-5.132V5.711A1.711,1.711,0,0,0,39.24,4Z" transform="translate(7.108 2.843)" fill="#aabfd0"/>
      <ellipse id="Elipse_12014" data-name="Elipse 12014" cx="7.932" cy="8.593" rx="7.932" ry="8.593" transform="translate(28.152 27.839)" fill="#8fc23f"/>
      <path id="Trazado_983607" data-name="Trazado 983607" d="M12.711,27.912A1.711,1.711,0,1,0,11,26.2,1.711,1.711,0,0,0,12.711,27.912Z" transform="translate(2.843 17.407)"/>
      <path id="Trazado_983608" data-name="Trazado 983608" d="M63.456,45.011A1.711,1.711,0,0,0,65.167,43.3V13.686a5.132,5.132,0,0,0-5.132-5.132H48.059a1.711,1.711,0,0,0-1.711-1.711H42.926V5.132A5.132,5.132,0,0,0,37.794,0H34.373A5.132,5.132,0,0,0,29.24,5.132V6.843H25.819a1.711,1.711,0,0,0-1.711,1.711H12.132A5.132,5.132,0,0,0,7,13.686v63.3a5.132,5.132,0,0,0,5.132,5.132h47.9a5.132,5.132,0,0,0,5.132-5.132V59.758a1.711,1.711,0,1,0-3.422,0V76.985A1.711,1.711,0,0,1,60.034,78.7h-47.9a1.711,1.711,0,0,1-1.711-1.711v-63.3a1.711,1.711,0,0,1,1.711-1.711H24.108v1.711a5.132,5.132,0,0,0,.308,1.711h-5.44a5.132,5.132,0,0,0-5.132,5.132v15.4a1.711,1.711,0,0,0,3.422,0v-15.4a1.711,1.711,0,0,1,1.711-1.711H53.191A1.711,1.711,0,0,1,54.9,20.529V70.142a1.711,1.711,0,0,1-1.711,1.711H18.975a1.711,1.711,0,0,1-1.711-1.711V51.324a1.711,1.711,0,1,0-3.422,0V70.142a5.132,5.132,0,0,0,5.132,5.132H53.191a5.132,5.132,0,0,0,5.132-5.132V20.529A5.132,5.132,0,0,0,53.191,15.4h-5.44a5.133,5.133,0,0,0,.308-1.711V11.975H60.034a1.711,1.711,0,0,1,1.711,1.711V43.3A1.711,1.711,0,0,0,63.456,45.011ZM32.662,5.132a1.711,1.711,0,0,1,1.711-1.711h3.422A1.711,1.711,0,0,1,39.5,5.132V6.843H32.662ZM29.24,15.4a1.711,1.711,0,0,1-1.711-1.711V10.265H44.637v3.422A1.711,1.711,0,0,1,42.926,15.4Z" transform="translate(0)"/>
      <path id="Trazado_983609" data-name="Trazado 983609" d="M17.711,24.975a1.711,1.711,0,0,0,0,3.422H21.3a8.554,8.554,0,0,0,1.249,2.994L20,33.94a1.718,1.718,0,1,0,2.429,2.429l2.549-2.549a8.554,8.554,0,0,0,2.994,1.249v3.593a1.711,1.711,0,1,0,3.422,0V35.069a8.554,8.554,0,0,0,2.994-1.249l2.549,2.549a1.718,1.718,0,1,0,2.429-2.429L36.82,31.391A8.554,8.554,0,0,0,38.069,28.4h3.593a1.711,1.711,0,1,0,0-3.422H38.069a8.554,8.554,0,0,0-1.249-2.994l2.549-2.549A1.718,1.718,0,1,0,36.94,17l-2.549,2.549A8.554,8.554,0,0,0,31.4,18.3V14.711a1.711,1.711,0,1,0-3.422,0V18.3a8.554,8.554,0,0,0-2.994,1.249L22.433,17A1.718,1.718,0,0,0,20,19.433l2.549,2.549A8.554,8.554,0,0,0,21.3,24.975Zm11.975-3.422a5.132,5.132,0,1,1-5.132,5.132A5.132,5.132,0,0,1,29.686,21.554Z" transform="translate(6.397 9.24)"/>
      <path id="Trazado_983610" data-name="Trazado 983610" d="M34.4,35.422A1.711,1.711,0,1,0,34.4,32H20.711a1.711,1.711,0,1,0,0,3.422Z" transform="translate(8.529 22.745)"/>
      <path id="Trazado_983611" data-name="Trazado 983611" d="M17,37.711a1.711,1.711,0,0,0,1.711,1.711H39.24a1.711,1.711,0,1,0,0-3.422H18.711A1.711,1.711,0,0,0,17,37.711Z" transform="translate(7.108 25.588)"/>
    </g>
  </g>
</svg>
