<svg xmlns="http://www.w3.org/2000/svg" width="85" height="85" viewBox="0 0 85 85">
  <g id="Grupo_1113067" data-name="Grupo 1113067" transform="translate(-914.718 -2040)">
    <rect id="Rectángulo_404770" data-name="Rectángulo 404770" width="85" height="85" transform="translate(914.718 2040)" fill="none"/>
    <g id="Grupo_1113066" data-name="Grupo 1113066" transform="translate(920.718 2030.503)">
      <g id="Grupo_1113063" data-name="Grupo 1113063" transform="translate(13.989 17.497)">
        <path id="Trazado_984039" data-name="Trazado 984039" d="M127.171,146.476a29.3,29.3,0,1,1,20.72-8.582A29.11,29.11,0,0,1,127.171,146.476Z" transform="translate(-97.869 -77.813)" fill="#54d9f8"/>
        <path id="Trazado_984040" data-name="Trazado 984040" d="M320.742,117.174a29.617,29.617,0,0,1-.475,5.289,13.4,13.4,0,0,1,2.634,1.12,29.553,29.553,0,0,0,.7-6.409,29.3,29.3,0,0,0-29.3-29.3q-.717,0-1.429.034a29.3,29.3,0,0,1,27.873,29.268Z" transform="translate(-264.996 -77.813)" fill="#00c4f3"/>
        <circle id="Elipse_12020" data-name="Elipse 12020" cx="23.758" cy="23.758" r="23.758" transform="translate(5.544 15.603)" fill="#fff08a"/>
        <circle id="Elipse_12021" data-name="Elipse 12021" cx="3.11" cy="3.11" r="3.11" transform="translate(26.192 36.251)" fill="#ff5477"/>
        <rect id="Rectángulo_404771" data-name="Rectángulo 404771" width="6.7" height="6.924" transform="translate(52.952 5.961) rotate(40.002)" fill="#ff91a7"/>
        <rect id="Rectángulo_404772" data-name="Rectángulo 404772" width="6.924" height="2.859" transform="matrix(0.643, -0.766, 0.766, 0.643, 51.451, 13.732)" fill="#ff5477"/>
        <rect id="Rectángulo_404773" data-name="Rectángulo 404773" width="10.702" height="5.494" transform="translate(23.951 0)" fill="#ff91a7"/>
        <rect id="Rectángulo_404774" data-name="Rectángulo 404774" width="2.859" height="5.494" transform="translate(31.794 0)" fill="#ff5477"/>
      </g>
      <g id="Grupo_1113065" data-name="Grupo 1113065" transform="translate(0 17.497)">
        <path id="Trazado_984041" data-name="Trazado 984041" d="M127.171,146.476a29.3,29.3,0,1,1,20.72-8.582A29.11,29.11,0,0,1,127.171,146.476Z" transform="translate(-83.88 -77.813)" fill="none" stroke="#000" stroke-miterlimit="10" stroke-width="2"/>
        <circle id="Elipse_12022" data-name="Elipse 12022" cx="3.11" cy="3.11" r="3.11" transform="translate(40.181 36.251)" fill="none" stroke="#000" stroke-miterlimit="10" stroke-width="2"/>
        <line id="Línea_598" data-name="Línea 598" y2="3.478" transform="translate(43.291 15.603)" fill="none" stroke="#000" stroke-miterlimit="10" stroke-width="2"/>
        <line id="Línea_599" data-name="Línea 599" x2="1.739" y2="3.012" transform="translate(31.412 18.786)" fill="none" stroke="#000" stroke-miterlimit="10" stroke-width="2"/>
        <line id="Línea_600" data-name="Línea 600" x2="3.012" y2="1.739" transform="translate(22.716 27.482)" fill="none" stroke="#000" stroke-miterlimit="10" stroke-width="2"/>
        <line id="Línea_601" data-name="Línea 601" x2="19.314" transform="translate(9.238 39.361)" fill="none" stroke="#000" stroke-miterlimit="10" stroke-width="2"/>
        <line id="Línea_602" data-name="Línea 602" y1="1.739" x2="3.012" transform="translate(22.716 49.501)" fill="none" stroke="#000" stroke-miterlimit="10" stroke-width="2"/>
        <line id="Línea_603" data-name="Línea 603" y1="3.012" x2="1.739" transform="translate(31.412 56.924)" fill="none" stroke="#000" stroke-miterlimit="10" stroke-width="2"/>
        <line id="Línea_604" data-name="Línea 604" y1="3.478" transform="translate(43.291 59.641)" fill="none" stroke="#000" stroke-miterlimit="10" stroke-width="2"/>
        <line id="Línea_605" data-name="Línea 605" x1="1.739" y1="3.012" transform="translate(53.431 56.924)" fill="none" stroke="#000" stroke-miterlimit="10" stroke-width="2"/>
        <line id="Línea_606" data-name="Línea 606" x1="3.012" y1="1.739" transform="translate(60.854 49.501)" fill="none" stroke="#000" stroke-miterlimit="10" stroke-width="2"/>
        <line id="Línea_607" data-name="Línea 607" x1="3.478" transform="translate(63.571 39.361)" fill="none" stroke="#000" stroke-miterlimit="10" stroke-width="2"/>
        <line id="Línea_608" data-name="Línea 608" x1="3.012" y2="1.739" transform="translate(60.854 27.482)" fill="none" stroke="#000" stroke-miterlimit="10" stroke-width="2"/>
        <line id="Línea_609" data-name="Línea 609" x1="1.739" y2="3.012" transform="translate(53.431 18.786)" fill="none" stroke="#000" stroke-miterlimit="10" stroke-width="2"/>
        <g id="Grupo_1113064" data-name="Grupo 1113064" transform="translate(38.025 46.966)">
          <line id="Línea_610" data-name="Línea 610" x2="2.144" fill="none" stroke="#fff" stroke-miterlimit="10" stroke-width="2" stroke-dasharray="14.938 14.938"/>
          <line id="Línea_611" data-name="Línea 611" x2="2.144" transform="translate(4.288)" fill="none" stroke="#fff" stroke-miterlimit="10" stroke-width="2" stroke-dasharray="14.938 14.938"/>
          <line id="Línea_612" data-name="Línea 612" x2="2.144" transform="translate(8.576)" fill="none" stroke="#fff" stroke-miterlimit="10" stroke-width="2" stroke-dasharray="14.938 14.938"/>
        </g>
        <line id="Línea_613" data-name="Línea 613" x1="2.934" y2="3.497" transform="translate(62.126 13.417)" fill="none" stroke="#000" stroke-miterlimit="10" stroke-width="2"/>
        <rect id="Rectángulo_404775" data-name="Rectángulo 404775" width="6.7" height="6.924" transform="translate(66.941 5.961) rotate(40.002)" fill="none" stroke="#000" stroke-miterlimit="10" stroke-width="2"/>
        <line id="Línea_614" data-name="Línea 614" y2="4.565" transform="translate(43.291 5.494)" fill="none" stroke="#000" stroke-miterlimit="10" stroke-width="2"/>
        <rect id="Rectángulo_404776" data-name="Rectángulo 404776" width="10.702" height="5.494" transform="translate(37.94 0)" fill="none" stroke="#000" stroke-miterlimit="10" stroke-width="2"/>
        <circle id="Elipse_12023" data-name="Elipse 12023" cx="23.758" cy="23.758" r="23.758" transform="translate(19.533 15.603)" fill="none" stroke="#000" stroke-miterlimit="10" stroke-width="2"/>
        <line id="Línea_615" data-name="Línea 615" x1="2.126" transform="translate(15.688 14.376)" fill="none" stroke="#000" stroke-miterlimit="10" stroke-width="2"/>
        <line id="Línea_616" data-name="Línea 616" x1="7.99" transform="translate(19.976 14.376)" fill="none" stroke="#000" stroke-miterlimit="10" stroke-width="2"/>
        <line id="Línea_617" data-name="Línea 617" x1="2.126" transform="translate(7.112 61.38)" fill="none" stroke="#000" stroke-miterlimit="10" stroke-width="2"/>
        <line id="Línea_618" data-name="Línea 618" x1="12.227" transform="translate(11.4 61.38)" fill="none" stroke="#000" stroke-miterlimit="10" stroke-width="2"/>
        <line id="Línea_619" data-name="Línea 619" x2="14.982" transform="translate(0 47.376)" fill="none" stroke="#000" stroke-miterlimit="10" stroke-width="2"/>
        <line id="Línea_620" data-name="Línea 620" x1="8.576" transform="translate(4.95 24.792)" fill="none" stroke="#000" stroke-miterlimit="10" stroke-width="2"/>
        <line id="Línea_621" data-name="Línea 621" y2="12.929" transform="translate(43.291 23.226)" fill="none" stroke="#000" stroke-miterlimit="10" stroke-width="2"/>
      </g>
    </g>
  </g>
</svg>
