<svg xmlns="http://www.w3.org/2000/svg" width="85" height="85" viewBox="0 0 85 85">
  <g id="Grupo_1113075" data-name="Grupo 1113075" transform="translate(-441.718 -2264)">
    <g id="Grupo_1113074" data-name="Grupo 1113074" transform="translate(443.154 2265.434)">
      <g id="Grupo_1113073" data-name="Grupo 1113073" transform="translate(8.088 7.994)">
        <g id="Grupo_1113069" data-name="Grupo 1113069" transform="translate(0.002 14.052)">
          <path id="Trazado_984042" data-name="Trazado 984042" d="M25.3,138.5a10.26,10.26,0,1,0-10.261-10.26A10.28,10.28,0,0,0,25.3,138.5Z" transform="translate(-15.038 -117.984)" fill="#837683" fill-rule="evenodd"/>
          <path id="Trazado_984043" data-name="Trazado 984043" d="M93.354,128.245a10.259,10.259,0,0,1-9.348,10.22q.451.04.912.04a10.3,10.3,0,0,0,1.469-.1l.184-.028a10.261,10.261,0,0,0-1.653-20.388q-.462,0-.912.04A10.261,10.261,0,0,1,93.354,128.245Z" transform="translate(-74.658 -117.984)" fill="#685e68" fill-rule="evenodd"/>
          <path id="Trazado_984044" data-name="Trazado 984044" d="M45.3,200.98a7.168,7.168,0,0,0-7.125,6.395,10.258,10.258,0,0,0,14.248,0A7.165,7.165,0,0,0,45.3,200.98Z" transform="translate(-35.04 -189.73)" fill="#8ac9fe" fill-rule="evenodd"/>
          <path id="Trazado_984045" data-name="Trazado 984045" d="M84.015,201.038c4.265.542,5.983,3.769,6.378,7.636a10.187,10.187,0,0,0,1.657-1.3,7.165,7.165,0,0,0-7.123-6.395A7.062,7.062,0,0,0,84.015,201.038Z" transform="translate(-74.666 -189.73)" fill="#60b7ff" fill-rule="evenodd"/>
          <path id="Trazado_984046" data-name="Trazado 984046" d="M67.637,150.781a3.622,3.622,0,1,0-3.622-3.622A3.63,3.63,0,0,0,67.637,150.781Z" transform="translate(-57.376 -140.073)" fill="#f6dccd" fill-rule="evenodd"/>
          <path id="Trazado_984047" data-name="Trazado 984047" d="M90.543,147.158a3.623,3.623,0,0,1-3.166,3.594,3.77,3.77,0,0,0,.456.028,3.622,3.622,0,1,0,0-7.244,3.769,3.769,0,0,0-.456.028A3.623,3.623,0,0,1,90.543,147.158Z" transform="translate(-77.572 -140.073)" fill="#f1cbbc" fill-rule="evenodd"/>
        </g>
        <g id="Grupo_1113070" data-name="Grupo 1113070" transform="translate(22.27 0)">
          <path id="Trazado_984048" data-name="Trazado 984048" d="M191.628,16.013a8.748,8.748,0,0,1,2.565,1.063l1.666-.739,1.963,1.963-.739,1.666a8.748,8.748,0,0,1,1.063,2.565l1.7.654v2.778l-1.7.654a8.755,8.755,0,0,1-1.063,2.563l.739,1.666-1.963,1.964-1.666-.74a8.751,8.751,0,0,1-2.565,1.064l-.654,1.7H188.2l-.654-1.7a8.755,8.755,0,0,1-2.563-1.063l-1.666.74-1.964-1.964.74-1.665a8.778,8.778,0,0,1-1.064-2.565l-1.7-.654V23.186l1.7-.654a8.751,8.751,0,0,1,1.064-2.565l-.74-1.666,1.964-1.963,1.665.739a8.775,8.775,0,0,1,2.565-1.063l.654-1.7h2.778Z" transform="translate(-179.325 -14.313)" fill="#ffe177" fill-rule="evenodd"/>
          <path id="Trazado_984049" data-name="Trazado 984049" d="M219.144,16.585l.56-.248,1.963,1.963-.739,1.666a8.747,8.747,0,0,1,1.063,2.565l1.7.654v2.778l-1.7.654a8.754,8.754,0,0,1-1.063,2.563l.739,1.666L219.7,32.812l-.56-.248,1.716-1.716-.74-1.666a8.759,8.759,0,0,0,1.063-2.563l1.7-.654V23.186l-1.7-.654a8.752,8.752,0,0,0-1.063-2.565l.74-1.666Zm-12.236,0,.248-.248,1.665.739c-.118.065-.234.133-.348.2Zm8.565-.572a8.748,8.748,0,0,1,2.565,1.063l-.459.2a11.45,11.45,0,0,0-2.913-1.268l-.655-1.7h.808Zm-6.65,16.058-1.666.74-.248-.248,1.566-.7Q208.645,31.973,208.823,32.071Zm9.214,0a8.751,8.751,0,0,1-2.565,1.064l-.654,1.7h-.808l.655-1.7a11.477,11.477,0,0,0,2.915-1.268Z" transform="translate(-203.169 -14.313)" fill="#ffd064" fill-rule="evenodd"/>
          <path id="Trazado_984050" data-name="Trazado 984050" d="M224.143,54.289a4.842,4.842,0,1,1-4.842,4.843A4.843,4.843,0,0,1,224.143,54.289Z" transform="translate(-213.882 -48.87)" fill="#eceff1" fill-rule="evenodd"/>
          <path id="Trazado_984051" data-name="Trazado 984051" d="M224.143,54.289c.11,0,.219,0,.329.012a4.842,4.842,0,0,0,0,9.662c-.109.007-.218.011-.329.011a4.842,4.842,0,0,1,0-9.684Z" transform="translate(-213.882 -48.87)" fill="#d1d1d6" fill-rule="evenodd"/>
        </g>
        <g id="Grupo_1113071" data-name="Grupo 1113071" transform="translate(0 41.62)">
          <path id="Trazado_984052" data-name="Trazado 984052" d="M41.72,329.136l10.738-6.22c2.016-1.168,4.065-2,6.282-1.278,2.469.8,6.5,2.521,10.615,3.262a2.984,2.984,0,0,1,2.065,3.573c-.417,1.55-1.725,2.35-3.576,2.065l1.44.23a6.675,6.675,0,0,0,4.6-.8l10.324-6.013c8.026-4.673,9.2,2.518,6.537,4.162L72.009,339.651a6.878,6.878,0,0,1-5.563.783l-13.589-3.641L47.821,339.7a2.034,2.034,0,0,1-2.77-.744l-4.071-7.049a2.036,2.036,0,0,1,.741-2.77Z" transform="translate(-37.228 -321.369)" fill="#f6dccd" fill-rule="evenodd"/>
          <path id="Trazado_984053" data-name="Trazado 984053" d="M41.72,329.136l10.738-6.22c2.016-1.168,4.065-2,6.282-1.278,1.32.427,3.091,1.12,5.078,1.783l-20.8,12.013-2.036-3.528A2.036,2.036,0,0,1,41.72,329.136Z" transform="translate(-37.228 -321.369)" fill="#f1cbbc" fill-rule="evenodd"/>
          <path id="Trazado_984054" data-name="Trazado 984054" d="M20.763,350.921l8.518,15.049a1.526,1.526,0,0,1-.573,2.071l-2.9,1.641a1.526,1.526,0,0,1-2.071-.576l-8.515-15.049a1.521,1.521,0,0,1,.573-2.071l2.9-1.641A1.525,1.525,0,0,1,20.763,350.921Z" transform="translate(-15.025 -346.249)" fill="#d1d1d6" fill-rule="evenodd"/>
          <path id="Trazado_984055" data-name="Trazado 984055" d="M50.551,361.261l1.5,2.663,1.492,2.634a1.523,1.523,0,0,1-.57,2.068l1.036-.586a1.526,1.526,0,0,0,.573-2.071l-1.5-2.644-3-5.308-3.007-5.311-1.013-1.786a1.526,1.526,0,0,0-1.77-.706l1.751,3.094,3,5.308,1.5,2.641Z" transform="translate(-40.33 -346.249)" fill="#b1b1b5" fill-rule="evenodd"/>
        </g>
        <g id="Grupo_1113072" data-name="Grupo 1113072" transform="translate(44.547 14.06)">
          <path id="Trazado_984056" data-name="Trazado 984056" d="M353.929,118.043A10.254,10.254,0,1,1,343.675,128.3,10.254,10.254,0,0,1,353.929,118.043Z" transform="translate(-343.675 -118.043)" fill="#ffc338" fill-rule="evenodd"/>
          <path id="Trazado_984057" data-name="Trazado 984057" d="M413.725,118.043a10.254,10.254,0,1,1,0,20.508c-.3,0-.588-.013-.878-.038a10.254,10.254,0,0,0,0-20.432C413.137,118.056,413.429,118.043,413.725,118.043Z" transform="translate(-403.471 -118.043)" fill="#f5b829" fill-rule="evenodd"/>
        </g>
      </g>
      <path id="Trazado_984058" data-name="Trazado 984058" d="M22.448,67.321l.791,1.4,0,0a2.609,2.609,0,0,1-.984,3.54L19.371,73.9l0,0a2.609,2.609,0,0,1-3.541-.984l-8.489-15a2.6,2.6,0,0,1,.979-3.544l2.89-1.636h0a2.611,2.611,0,0,1,3.541.981v0l.637,1.125L22.893,50.5c2.288-1.323,4.628-2.183,7.141-1.367,2.429.788,6.393,2.485,10.44,3.217a1.1,1.1,0,0,1,.141.035,4.052,4.052,0,0,1,2.768,4.877,4.618,4.618,0,0,1-.283.778,5.578,5.578,0,0,0,1.151-.511l10.293-6c3.75-2.184,6.251-1.938,7.666-.989a4.332,4.332,0,0,1-.037,7L43.5,69.039a7.9,7.9,0,0,1-6.395.91h0L23.985,66.434Zm-1.1,2.464-8.487-15a.436.436,0,0,0-.59-.165L9.385,56.259h0a.431.431,0,0,0-.16.586h0l8.489,15h0a.434.434,0,0,0,.589.162l2.884-1.635h0A.434.434,0,0,0,21.351,69.785Zm.029-4.352,1.909-1.1a1.085,1.085,0,0,1,.823-.108L37.66,67.853a5.8,5.8,0,0,0,4.7-.66h0l18.679-11.5a2.141,2.141,0,0,0-.342-3.514c-1.062-.442-2.691-.152-5.058,1.227L45.343,59.4a7.724,7.724,0,0,1-5.307.935h0l-1.276-.208S34.23,58.94,31.839,58.3A1.084,1.084,0,1,1,32.4,56.2c2.333.627,4.436,1.315,6.7,1.783A1.828,1.828,0,0,0,41.289,56.7h0a1.886,1.886,0,0,0-1.281-2.23c-4.127-.758-8.166-2.47-10.644-3.273h0c-1.906-.619-3.65.178-5.385,1.181l-7.524,4.356Zm-9.546-9.1a1.2,1.2,0,1,1-1.014,1.357,1.2,1.2,0,0,1,1.014-1.357Zm6.513-35.283A11.347,11.347,0,1,1,7,32.4,11.346,11.346,0,0,1,18.347,21.053ZM26,37.471a9.178,9.178,0,1,0-15.3,0,8.283,8.283,0,0,1,4.266-4.44,4.709,4.709,0,1,1,6.771,0A8.282,8.282,0,0,1,26,37.471Zm-13.617,1.9a9.18,9.18,0,0,0,11.931,0,6.081,6.081,0,0,0-11.931,0Zm5.965-7.069a2.54,2.54,0,1,0-2.54-2.54A2.547,2.547,0,0,0,18.347,32.306ZM43.474,8.887a9.818,9.818,0,0,1,1.812.751l1.163-.517a1.084,1.084,0,0,1,1.207.224l1.963,1.963a1.084,1.084,0,0,1,.225,1.206l-.515,1.164a9.78,9.78,0,0,1,.752,1.816l1.186.456a1.084,1.084,0,0,1,.695,1.012v2.776a1.084,1.084,0,0,1-.695,1.012l-1.186.457a9.89,9.89,0,0,1-.752,1.812l.516,1.164a1.084,1.084,0,0,1-.225,1.206l-1.963,1.963a1.084,1.084,0,0,1-1.206.225l-1.163-.515a9.784,9.784,0,0,1-1.814.751L43.017,29A1.084,1.084,0,0,1,42,29.693H39.228A1.084,1.084,0,0,1,38.216,29l-.456-1.186a9.869,9.869,0,0,1-1.815-.752l-1.164.516a1.084,1.084,0,0,1-1.206-.225l-1.963-1.963a1.084,1.084,0,0,1-.224-1.207l.517-1.162a9.872,9.872,0,0,1-.752-1.813l-1.187-.457a1.084,1.084,0,0,1-.695-1.012V16.961a1.084,1.084,0,0,1,.695-1.012l1.187-.457a9.88,9.88,0,0,1,.753-1.815l-.517-1.163a1.084,1.084,0,0,1,.224-1.207l1.963-1.963a1.084,1.084,0,0,1,1.207-.224l1.163.517a9.811,9.811,0,0,1,1.813-.751l.459-1.19A1.084,1.084,0,0,1,39.228,7H42a1.084,1.084,0,0,1,1.012.7Zm-1.827,1.292L41.26,9.172H39.972l-.389,1.009a1.085,1.085,0,0,1-.761.665,7.649,7.649,0,0,0-2.246.931,1.084,1.084,0,0,1-1.009.068l-.986-.438-.909.909.438.986a1.084,1.084,0,0,1-.068,1.009,7.714,7.714,0,0,0-.934,2.251,1.084,1.084,0,0,1-.665.759l-1.005.387v1.287l1.005.387a1.084,1.084,0,0,1,.665.758,7.7,7.7,0,0,0,.933,2.247A1.085,1.085,0,0,1,34.11,23.4l-.438.986.91.91.986-.437a1.085,1.085,0,0,1,1.006.067,7.7,7.7,0,0,0,2.25.932,1.085,1.085,0,0,1,.762.666l.387,1.005H41.26l.387-1.005a1.084,1.084,0,0,1,.761-.665,7.615,7.615,0,0,0,2.244-.93,1.085,1.085,0,0,1,1.01-.069l.986.437.911-.911-.437-.986a1.085,1.085,0,0,1,.067-1.006,7.72,7.72,0,0,0,.932-2.248,1.084,1.084,0,0,1,.665-.761l1.005-.387V17.706l-1.005-.387a1.084,1.084,0,0,1-.666-.762,7.63,7.63,0,0,0-.93-2.248,1.085,1.085,0,0,1-.068-1.008l.437-.986-.91-.91-.986.438a1.084,1.084,0,0,1-1.009-.068,7.649,7.649,0,0,0-2.246-.931A1.085,1.085,0,0,1,41.647,10.179Zm-1.032,2.242a5.928,5.928,0,1,1-5.927,5.927A5.927,5.927,0,0,1,40.615,12.421Zm0,2.169a3.759,3.759,0,1,0,3.761,3.758A3.757,3.757,0,0,0,40.615,14.59Zm22.27,29.157A11.345,11.345,0,1,1,74.23,32.4,11.367,11.367,0,0,1,62.885,43.747Zm0-2.169A9.176,9.176,0,1,0,53.709,32.4a9.194,9.194,0,0,0,9.176,9.176ZM61.8,26.409v-.5a1.084,1.084,0,1,1,2.169,0V26.4a4.119,4.119,0,0,1,2.938,2.47,1.084,1.084,0,1,1-2,.839A2.212,2.212,0,0,0,62,28.614a1.367,1.367,0,0,0-.982,1.321v0a1.142,1.142,0,0,0,.749.981,4.734,4.734,0,0,0,1.3.375h0c1.863.307,3.9,1.166,4.163,3.38.26,2.148-1.448,3.4-3.265,3.754V38.9a1.084,1.084,0,1,1-2.169,0v-.484a4.1,4.1,0,0,1-3.258-2.986,1.084,1.084,0,0,1,2.1-.524,2.183,2.183,0,0,0,2.345,1.457h0a3.074,3.074,0,0,0,1.63-.462.975.975,0,0,0,.457-.962h0a1.4,1.4,0,0,0-.933-1.107,5.748,5.748,0,0,0-1.427-.392c-1.827-.3-3.764-1.228-3.866-3.394A3.467,3.467,0,0,1,61.209,26.6a4.494,4.494,0,0,1,.592-.186ZM41.7,40.926a1.084,1.084,0,0,1-2.169,0V33.55a1.084,1.084,0,0,1,2.169,0Zm2.856,4.035a1.084,1.084,0,0,1-1.346-1.7l6.338-5.015a1.084,1.084,0,0,1,1.346,1.7Zm-6.536-1.7a1.084,1.084,0,0,1-1.346,1.7l-6.338-5.015a1.084,1.084,0,0,1,1.346-1.7Z" transform="translate(0 0)" fill-rule="evenodd"/>
    </g>
    <rect id="Rectángulo_404778" data-name="Rectángulo 404778" width="85" height="85" transform="translate(441.718 2264)" fill="none"/>
  </g>
</svg>
