<svg xmlns="http://www.w3.org/2000/svg" width="61.148" height="67.989" viewBox="0 0 61.148 67.989">
  <g id="Grupo_1112947" data-name="Grupo 1112947" transform="translate(-25.758)">
    <path id="Trazado_983612" data-name="Trazado 983612" d="M329.751,15.335V26.39a1.425,1.425,0,0,1-1.422,1.428h-16.3V14.14a6.626,6.626,0,0,1,6.613-6.64h3.306A7.819,7.819,0,0,1,329.751,15.335Z" transform="translate(-248.257 -6.504)" fill="#d8cecc"/>
    <path id="Trazado_983613" data-name="Trazado 983613" d="M312.029,351.5h16.3a1.425,1.425,0,0,1,1.422,1.427v11.055a7.819,7.819,0,0,1-7.8,7.835h-3.306a6.626,6.626,0,0,1-6.613-6.64Z" transform="translate(-248.257 -304.824)" fill="#d8cecc"/>
    <path id="Trazado_983614" data-name="Trazado 983614" d="M80.177,73.5H40.764a6.627,6.627,0,0,1-6.613-6.64V14.14A6.627,6.627,0,0,1,40.764,7.5H80.177a6.627,6.627,0,0,0-6.613,6.64V66.858A6.627,6.627,0,0,0,80.177,73.5Z" transform="translate(-7.278 -6.504)" fill="#fff5f4"/>
    <path id="Trazado_983615" data-name="Trazado 983615" d="M45.393,73.5H40.764a6.627,6.627,0,0,1-6.613-6.64V14.14A6.627,6.627,0,0,1,40.764,7.5h4.629a6.627,6.627,0,0,0-6.613,6.64V66.858A6.627,6.627,0,0,0,45.393,73.5Z" transform="translate(-7.278 -6.504)" fill="#ebe0da"/>
    <path id="Trazado_983616" data-name="Trazado 983616" d="M122.429,214.157a6.4,6.4,0,0,1-6.381,6.407H81.565a.652.652,0,0,1-.269-.058l-6.506-2.9-6.4-2.85a.658.658,0,0,1,0-1.2l6.4-2.851,6.506-2.9a.672.672,0,0,1,.269-.057h34.482A6.4,6.4,0,0,1,122.429,214.157Z" transform="translate(-36.637 -180.163)" fill="#95dae8"/>
    <path id="Trazado_983617" data-name="Trazado 983617" d="M122.367,213.3a6.332,6.332,0,0,0-3.8-1.259H84.087a.664.664,0,0,0-.268.057l-10.7,4.768-4.727-2.106a.657.657,0,0,1,0-1.2l12.9-5.749a.662.662,0,0,1,.268-.057h34.483a6.389,6.389,0,0,1,6.323,5.546Z" transform="translate(-36.634 -180.166)" fill="#60c8dd"/>
    <path id="Trazado_983618" data-name="Trazado 983618" d="M81.672,220.565l0,0h-.108a.662.662,0,0,1-.268-.057l-6.678-2.976-6.225-2.774a.657.657,0,0,1,0-1.2l6.391-2.847,6.512-2.9a.662.662,0,0,1,.268-.057h.045l.093.092,3.243,3.521a.321.321,0,0,1,0,.437l-2.021,2.138a.319.319,0,0,0,0,.439l2.022,2.139a.32.32,0,0,1,0,.436Z" transform="translate(-36.634 -180.166)" fill="#ffe5a0"/>
    <path id="Trazado_983619" data-name="Trazado 983619" d="M84.714,212.041h-.629c-.206,0,.538-.3-10.969,4.825l-4.727-2.106a.657.657,0,0,1,0-1.2l6.391-2.847,6.512-2.9a.683.683,0,0,1,.313-.057l.093.092,3.243,3.521a.321.321,0,0,1,0,.437Z" transform="translate(-36.633 -180.166)" fill="#ffdd81"/>
    <path id="Trazado_983620" data-name="Trazado 983620" d="M84.714,212.041h-.629c-.206,0,.538-.3-10.969,4.825l-4.727-2.106a.657.657,0,0,1,0-1.2l6.391-2.847,6.512-2.9a.683.683,0,0,1,.313-.057l.093.092,3.243,3.521a.321.321,0,0,1,0,.437Z" transform="translate(-36.633 -180.166)" fill="#ffdd81"/>
    <path id="Trazado_983621" data-name="Trazado 983621" d="M411.445,213.3a6.331,6.331,0,0,0-3.8-1.259h-6.3v-4.287h3.778a6.394,6.394,0,0,1,6.323,5.547Z" transform="translate(-325.711 -180.165)" fill="#60c8dd"/>
    <path id="Trazado_983622" data-name="Trazado 983622" d="M409.633,218.69a6.348,6.348,0,0,1-4.511,1.876h-3.778V207.753h3.778a6.412,6.412,0,0,1,4.511,10.937Z" transform="translate(-325.711 -180.165)" fill="#f76c57"/>
    <path id="Trazado_983623" data-name="Trazado 983623" d="M411.445,213.3a6.331,6.331,0,0,0-3.8-1.259h-6.3v-4.287h3.778a6.394,6.394,0,0,1,6.323,5.547Z" transform="translate(-325.711 -180.165)" fill="#e7387f"/>
    <path id="Trazado_983624" data-name="Trazado 983624" d="M74.791,230.01v6.9l-6.4-2.85a.658.658,0,0,1,0-1.2Z" transform="translate(-36.637 -199.467)" fill="#777078"/>
    <path id="Trazado_983625" data-name="Trazado 983625" d="M26.754,44.8a1,1,0,0,0,1-1V7.636a5.65,5.65,0,0,1,5.644-5.644H67.816A7.726,7.726,0,0,0,66.458,3.64a1,1,0,1,0,1.7,1.044,5.613,5.613,0,0,1,4.811-2.692h.8A6.847,6.847,0,0,1,80.6,8.831V19.886a.432.432,0,0,1-.432.432h-.285a1,1,0,1,0,0,1.992h.285a2.426,2.426,0,0,0,2.423-2.423V8.831A8.841,8.841,0,0,0,73.762,0H33.394a7.644,7.644,0,0,0-7.636,7.636V43.808A1,1,0,0,0,26.754,44.8Z"/>
    <path id="Trazado_983626" data-name="Trazado 983626" d="M79.5,86.891a7.4,7.4,0,0,0,0-14.8H67.322V67.8H75.9a1,1,0,0,0,0-1.992H67.322V53.457a1,1,0,0,0-1.992,0v18.63H44.741a1,1,0,0,0-.4.086L31.254,77.979a1.654,1.654,0,0,0,0,3.021l13.084,5.806a1,1,0,0,0,.4.086H65.33v18.957a7.617,7.617,0,0,0,2.5,5.644H33.394a5.65,5.65,0,0,1-5.644-5.644V93.286a1,1,0,1,0-1.992,0v12.562a7.644,7.644,0,0,0,7.636,7.636H73.762a8.841,8.841,0,0,0,8.831-8.831V93.6a2.426,2.426,0,0,0-2.423-2.423H67.322V86.891Zm-4.79-5.819h-25.8l-1.5-1.583,1.5-1.584h25.8v3.166Zm1.992-6.994h2.8a5.41,5.41,0,0,1,0,10.821h-2.8ZM37.085,81.408,32.76,79.489l4.324-1.919v3.838Zm7.583,3.365-5.591-2.481V76.686l5.555-2.465,2.484,2.685-1.8,1.9a1,1,0,0,0,0,1.371l1.806,1.9ZM74.714,74.079v1.835h-25.8l-1.7-1.835Zm5.455,19.088a.432.432,0,0,1,.432.432v11.055a6.847,6.847,0,0,1-6.839,6.839h-.8a5.65,5.65,0,0,1-5.644-5.644V93.167ZM66.333,84.9H47.246l1.671-1.835h25.8V84.9Z" transform="translate(0 -45.495)"/>
    <path id="Trazado_983627" data-name="Trazado 983627" d="M102.37,73.34H76.254a1,1,0,0,0,0,1.992H102.37a1,1,0,0,0,0-1.992Z" transform="translate(-42.927 -63.601)"/>
    <path id="Trazado_983628" data-name="Trazado 983628" d="M102.37,126.674H76.254a1,1,0,0,0,0,1.992H102.37a1,1,0,0,0,0-1.992Z" transform="translate(-42.927 -109.853)"/>
    <path id="Trazado_983629" data-name="Trazado 983629" d="M76.254,372.318H102.37a1,1,0,1,0,0-1.992H76.254a1,1,0,1,0,0,1.992Z" transform="translate(-42.927 -321.15)"/>
    <path id="Trazado_983630" data-name="Trazado 983630" d="M76.254,425.652H102.37a1,1,0,0,0,0-1.992H76.254a1,1,0,0,0,0,1.992Z" transform="translate(-42.927 -367.402)"/>
  </g>
</svg>
