<svg xmlns="http://www.w3.org/2000/svg" width="93" height="69" viewBox="0 0 93 69">
  <g id="Grupo_1113094" data-name="Grupo 1113094" transform="translate(-820.051 -1355)">
    <rect id="Rect치ngulo_404456" data-name="Rect치ngulo 404456" width="93" height="69" rx="12" transform="translate(820.051 1355)" fill="#008db6"/>
    <g id="Grupo_1113088" data-name="Grupo 1113088" transform="translate(105)">
      <g id="Grupo_1112951" data-name="Grupo 1112951" transform="translate(715.751 1350)">
        <g id="Grupo_1112950" data-name="Grupo 1112950" transform="translate(22.911 15.601)">
          <path id="Trazado_983656" data-name="Trazado 983656" d="M62.28,68.111H28.4V21H54.842l7.438,7.428Z" transform="translate(-28.4 -21)" fill="#e6e6e6" fill-rule="evenodd"/>
          <path id="Trazado_983657" data-name="Trazado 983657" d="M299.638,28.428H292.2V21Z" transform="translate(-265.758 -21)" fill="#999" fill-rule="evenodd"/>
          <path id="Trazado_983658" data-name="Trazado 983658" d="M75.4,184.9h3.659v3.308H75.4Z" transform="translate(-70.689 -168.471)" fill="#ffcd05" fill-rule="evenodd"/>
          <path id="Trazado_983659" data-name="Trazado 983659" d="M75.4,124.4h3.659v3.308H75.4Z" transform="translate(-70.689 -114.036)" fill="#ffcd05" fill-rule="evenodd"/>
          <path id="Trazado_983660" data-name="Trazado 983660" d="M288.216,269.6l6.335,10.966a2.611,2.611,0,0,1-2.255,3.919h-12.67a2.611,2.611,0,0,1-2.265-3.919L283.7,269.6a2.545,2.545,0,0,1,2.255-1.3,2.507,2.507,0,0,1,2.265,1.3Z" transform="translate(-252.081 -243.51)" fill="#fdb614" fill-rule="evenodd"/>
        </g>
        <path id="Trazado_983661" data-name="Trazado 983661" d="M356.441,310.554,356,307.025v-1.834a.5.5,0,0,1,.5-.491h1.073a.494.494,0,0,1,.5.491v1.774a.127.127,0,0,1-.01.06l-.431,3.528a.492.492,0,0,1-.5.431h-.2A.5.5,0,0,1,356.441,310.554Zm-.361,3.729v-.892a.5.5,0,0,1,.5-.491h.922a.494.494,0,0,1,.5.491v.892a.5.5,0,0,1-.5.491h-.922A.5.5,0,0,1,356.08,314.283Z" transform="translate(-300.251 -260.661)" fill="#e6e6e6"/>
        <path id="Trazado_983662" data-name="Trazado 983662" d="M75.4,369.4h3.659v3.308H75.4Z" transform="translate(-47.777 -318.876)" fill="#ffcd05" fill-rule="evenodd"/>
        <path id="Trazado_983663" data-name="Trazado 983663" d="M75.4,309h3.659v3.308H75.4Z" transform="translate(-47.777 -264.53)" fill="#ffcd05" fill-rule="evenodd"/>
        <path id="Trazado_983664" data-name="Trazado 983664" d="M75.4,248.5h3.659v3.308H75.4Z" transform="translate(-47.777 -210.095)" fill="#ffcd05" fill-rule="evenodd"/>
        <path id="Trazado_983665" data-name="Trazado 983665" d="M75.4,57.6H93.372v3.458H75.4Z" transform="translate(-47.777 -38.33)" fill="#f36d21" fill-rule="evenodd"/>
        <path id="Trazado_983666" data-name="Trazado 983666" d="M27.613,18.669H45.575a.6.6,0,0,1,.6.6v3.458a.6.6,0,0,1-.6.6H27.613a.6.6,0,0,1-.6-.6V19.27A.6.6,0,0,1,27.613,18.669Zm17.361,1.2H28.214v2.255h16.77V19.871ZM34.779,52.208a.6.6,0,1,1,0-1.2h7.387a.6.6,0,1,1,0,1.2Zm0-6.014a.6.6,0,1,1,0-1.2h9.553a.6.6,0,1,1,0,1.2Zm0-6.535a.6.6,0,1,1,0-1.2h13.4a.6.6,0,1,1,0,1.2ZM27.613,37.8h3.659a.6.6,0,0,1,.6.6v3.308a.6.6,0,0,1-.6.6H27.613a.6.6,0,0,1-.6-.6V38.405A.6.6,0,0,1,27.613,37.8Zm3.047,1.2H28.214v2.1H30.67v-2.1Zm4.12,3.308a.6.6,0,1,1,0-1.2H45.5a.6.6,0,0,1,0,1.2Zm-7.167,1.554h3.659a.6.6,0,0,1,.6.6v3.308a.6.6,0,0,1-.6.6H27.613a.6.6,0,0,1-.6-.6V44.47A.6.6,0,0,1,27.613,43.868Zm3.047,1.2H28.214v2.1H30.67v-2.1Zm-3.047,4.851h3.659a.6.6,0,0,1,.6.6v3.308a.6.6,0,0,1-.6.6H27.613a.6.6,0,0,1-.6-.6V50.524A.6.6,0,0,1,27.613,49.922Zm3.047,1.2H28.214v2.1H30.67v-2.1Zm4.12,3.308a.6.6,0,1,1,0-1.2h6.906a.6.6,0,0,1,0,1.2Zm0-6.064a.6.6,0,1,1,0-1.2h7.638a.6.6,0,1,1,0,1.2Zm20.809,1.6-.441-3.528c-.03-.221-.01-1.584-.01-1.9a1.106,1.106,0,0,1,1.113-1.093h1.073a1.112,1.112,0,0,1,1.113,1.093l-.01,1.9-.441,3.528a1.1,1.1,0,0,1-1.093.962,1.2,1.2,0,0,1-.922-.271A1.069,1.069,0,0,1,55.589,49.973ZM56.33,46.3l.431,3.428h.03l.421-3.428V44.65H56.33Zm-1.113,7.317v-.892a1.106,1.106,0,0,1,1.113-1.093h.922a1.112,1.112,0,0,1,1.113,1.093v.892a1.106,1.106,0,0,1-1.113,1.093H56.33A1.106,1.106,0,0,1,55.218,53.621Zm1.2-.782V53.5h.732v-.662Zm3.157-11.417,6.315,10.936a3.2,3.2,0,0,1-2.787,4.811H57.383v5.543a.6.6,0,0,1-.6.6H22.9a.6.6,0,0,1-.6-.6V15.6a.6.6,0,0,1,.6-.6H49.354a.606.606,0,0,1,.431.18l7.428,7.428a.694.694,0,0,1,.18.431V36.992a5.963,5.963,0,0,1,4.621,2.987.6.6,0,1,1-1.042.6,4.844,4.844,0,0,0-8.38,0,.6.6,0,0,1-1.042-.6,5.954,5.954,0,0,1,4.621-2.987V23.63H49.344a.6.6,0,0,1-.6-.6V16.2H23.493V62.111H56.17V57.18H50.446a3.211,3.211,0,0,1-2.777-4.821L54,41.392a3.209,3.209,0,0,1,5.563,0,.037.037,0,0,0,.01.03ZM64.85,52.96,58.515,41.994a2.014,2.014,0,0,0-3.488,0L48.692,52.96a2.008,2.008,0,0,0,1.744,3.017H63.1A2.008,2.008,0,0,0,64.85,52.96ZM67.3,51.536a.593.593,0,0,1,.221-.812.6.6,0,0,1,.822.221A6.036,6.036,0,0,1,63.106,60a.6.6,0,0,1,0-1.2,4.834,4.834,0,0,0,4.19-7.257Zm-16.85,7.257a.6.6,0,1,1,0,1.2,6.038,6.038,0,0,1-5.232-9.051.611.611,0,0,1,.822-.221.593.593,0,0,1,.221.812,4.837,4.837,0,0,0,4.19,7.257ZM34.779,33.714a.6.6,0,1,1,0-1.2h14.2a.6.6,0,0,1,0,1.2Zm0-6.014a.6.6,0,1,1,0-1.2H46.607a.6.6,0,0,1,0,1.2Zm-7.167-2.325h3.659a.6.6,0,0,1,.6.6v3.308a.6.6,0,0,1-.6.6H27.613a.6.6,0,0,1-.6-.6V25.976A.6.6,0,0,1,27.613,25.374Zm3.047,1.2H28.214v2.1H30.67v-2.1Zm-3.047,4.851h3.659a.6.6,0,0,1,.6.6v3.308a.6.6,0,0,1-.6.6H27.613a.6.6,0,0,1-.6-.6V32.03A.6.6,0,0,1,27.613,31.429Zm3.047,1.2H28.214v2.1H30.67v-2.1Zm4.12,3.308a.6.6,0,1,1,0-1.2H51.188a.6.6,0,0,1,0,1.2Zm0-6.064a.6.6,0,1,1,0-1.2h9.462a.6.6,0,1,1,0,1.2Zm15.166-7.438h5.383l-5.383-5.383Z" transform="translate(0)"/>
      </g>
      <rect id="Rect치ngulo_404782" data-name="Rect치ngulo 404782" width="63" height="63" transform="translate(730.051 1358)" fill="none"/>
    </g>
  </g>
</svg>
