<svg xmlns="http://www.w3.org/2000/svg" width="93" height="69" viewBox="0 0 93 69">
  <g id="Grupo_1113095" data-name="Grupo 1113095" transform="translate(-820.051 -1451)">
    <rect id="Rect치ngulo_404457" data-name="Rect치ngulo 404457" width="93" height="69" rx="12" transform="translate(820.051 1451)" fill="#008db6"/>
    <g id="Grupo_1113089" data-name="Grupo 1113089" transform="translate(105)">
      <g id="Grupo_1112952" data-name="Grupo 1112952" transform="translate(735.051 1458.995)">
        <g id="Icons" transform="translate(0.876 0.877)">
          <path id="Trazado_983667" data-name="Trazado 983667" d="M54.289,22.752V45.528a1.757,1.757,0,0,1-1.752,1.752H50.785v5.992a1,1,0,0,1-1.594.815l-8.918-6.807H22.752A1.757,1.757,0,0,1,21,45.528V43.776H35.016a1.757,1.757,0,0,0,1.752-1.752V31A14.847,14.847,0,0,0,43.54,21h9a1.757,1.757,0,0,1,1.752,1.752Z" transform="translate(-3.48 -3.48)" fill="#3f51b5"/>
          <path id="Trazado_983668" data-name="Trazado 983668" d="M56.38,21H53.752A1.757,1.757,0,0,1,55.5,22.752V45.528a1.757,1.757,0,0,1-1.752,1.752H52V53.3l1.037.788a1,1,0,0,0,1.591-.811V47.281H56.38a1.757,1.757,0,0,0,1.752-1.752V22.752A1.757,1.757,0,0,0,56.38,21Z" transform="translate(-7.323 -3.48)" fill="#283593"/>
          <path id="Trazado_983669" data-name="Trazado 983669" d="M34.289,30.508v11.02a1.757,1.757,0,0,1-1.752,1.752H15.016L6.1,50.087A1,1,0,0,1,4.5,49.272V43.281H2.752A1.757,1.757,0,0,1,1,41.528V18.752A1.757,1.757,0,0,1,2.752,17h8.786c-.018.289-.026.587-.026.876A14.892,14.892,0,0,0,34.289,30.508Z" transform="translate(-1 -2.984)" fill="#02a9f4"/>
          <path id="Trazado_983670" data-name="Trazado 983670" d="M35.752,33.723V43.44A1.757,1.757,0,0,1,34,45.192h2.628A1.757,1.757,0,0,0,38.38,43.44V32.42a14.709,14.709,0,0,1-2.628,1.3Z" transform="translate(-5.091 -4.896)" fill="#0377bc"/>
          <path id="Trazado_983671" data-name="Trazado 983671" d="M42.785,15.893a14.447,14.447,0,0,1-.237,2.628A14.892,14.892,0,0,1,13,15.893c0-.289.009-.587.026-.876a14.892,14.892,0,0,1,29.758.876Z" transform="translate(-2.488 -1.001)" fill="#a4c400"/>
          <path id="Trazado_983672" data-name="Trazado 983672" d="M29.811,1c-.452,0-.9.025-1.339.065a14.886,14.886,0,0,1,13.6,14.827,14.447,14.447,0,0,1-.237,2.628,14.875,14.875,0,0,1-13.323,12.2c.427.037.858.066,1.3.066A14.892,14.892,0,0,0,44.466,18.523a14.447,14.447,0,0,0,.237-2.631A14.892,14.892,0,0,0,29.811,1Z" transform="translate(-4.406 -1)" fill="#90ac00"/>
        </g>
        <g id="Icons_copy" data-name="Icons copy" transform="translate(0 0.005)">
          <path id="Trazado_983673" data-name="Trazado 983673" d="M23.761,24.76a.876.876,0,0,0,1.239,0L37.264,12.5a.876.876,0,1,0-1.239-1.239L24.38,22.9,21.5,20.017a.876.876,0,1,0-1.239,1.239Z" transform="translate(-2.48 -1.368)"/>
          <path id="Trazado_983674" data-name="Trazado 983674" d="M49.933,17.521H41.945a15.763,15.763,0,0,0-31.33-3.5H2.628A2.628,2.628,0,0,0,0,16.645V39.421a2.628,2.628,0,0,0,2.628,2.628H3.5v5.116a1.88,1.88,0,0,0,1.051,1.7,1.844,1.844,0,0,0,1.953-.187l8.68-6.626H17.52v.876a2.628,2.628,0,0,0,2.628,2.628H37.373l8.683,6.627a1.845,1.845,0,0,0,1.952.186,1.88,1.88,0,0,0,1.049-1.7V45.554h.876a2.628,2.628,0,0,0,2.628-2.628V20.149A2.628,2.628,0,0,0,49.933,17.521ZM26.281,1.753A14.016,14.016,0,1,1,12.264,15.769,14.016,14.016,0,0,1,26.281,1.753ZM14.892,40.3a.871.871,0,0,0-.531.175L5.444,47.282a.1.1,0,0,1-.113.01.131.131,0,0,1-.075-.127V41.173A.876.876,0,0,0,4.38,40.3H2.628a.876.876,0,0,1-.876-.876V16.645a.876.876,0,0,1,.876-.876h7.884a15.733,15.733,0,0,0,22.776,14.1v9.549a.876.876,0,0,1-.876.876Zm35.917,2.628a.876.876,0,0,1-.876.876H48.181a.876.876,0,0,0-.876.876v5.992a.131.131,0,0,1-.075.127.1.1,0,0,1-.112-.009L38.2,43.977a.871.871,0,0,0-.531-.175H20.148a.876.876,0,0,1-.876-.876v-.876h13.14a2.628,2.628,0,0,0,2.628-2.628V28.871a15.805,15.805,0,0,0,6.6-9.6h8.291a.876.876,0,0,1,.876.876Z" transform="translate(0 -0.005)"/>
        </g>
      </g>
      <rect id="Rect치ngulo_404783" data-name="Rect치ngulo 404783" width="63" height="63" transform="translate(730.051 1454)" fill="none"/>
    </g>
  </g>
</svg>
