<svg xmlns="http://www.w3.org/2000/svg" xmlns:xlink="http://www.w3.org/1999/xlink" width="61.409" height="73" viewBox="0 0 61.409 73">
  <defs>
    <filter id="Rectángulo_401320" x="0" y="0" width="36" height="73" filterUnits="userSpaceOnUse">
      <feOffset dy="3" input="SourceAlpha"/>
      <feGaussianBlur stdDeviation="3" result="blur"/>
      <feFlood flood-opacity="0.161"/>
      <feComposite operator="in" in2="blur"/>
      <feComposite in="SourceGraphic"/>
    </filter>
    <filter id="Rectángulo_401321" x="9" y="5" width="36" height="68" filterUnits="userSpaceOnUse">
      <feOffset dy="3" input="SourceAlpha"/>
      <feGaussianBlur stdDeviation="3" result="blur-2"/>
      <feFlood flood-opacity="0.161"/>
      <feComposite operator="in" in2="blur-2"/>
      <feComposite in="SourceGraphic"/>
    </filter>
  </defs>
  <g id="Grupo_1107629" data-name="Grupo 1107629" transform="translate(-181.73 -2027)">
    <g transform="matrix(1, 0, 0, 1, 181.73, 2027)" filter="url(#Rectángulo_401320)">
      <rect id="Rectángulo_401320-2" data-name="Rectángulo 401320" width="18" height="55" rx="2" transform="translate(9 6)" fill="#fcd9ab"/>
    </g>
    <g transform="matrix(1, 0, 0, 1, 181.73, 2027)" filter="url(#Rectángulo_401321)">
      <rect id="Rectángulo_401321-2" data-name="Rectángulo 401321" width="18" height="50" rx="2" transform="translate(18 11)" fill="#fdecd4"/>
    </g>
    <g id="fisherman_2798210" transform="translate(179.35 2024.212)">
      <circle id="Elipse_11708" data-name="Elipse 11708" cx="3.186" cy="3.186" r="3.186" transform="translate(40.69 31.133)" fill="#f0c6a4"/>
      <circle id="Elipse_11709" data-name="Elipse 11709" cx="3.186" cy="3.186" r="3.186" transform="translate(19.982 31.133)" fill="#f0c6a4"/>
      <rect id="Rectángulo_402858" data-name="Rectángulo 402858" width="20.708" height="23.894" rx="10.354" transform="translate(23.168 19.982)" fill="#f7cca9"/>
      <path id="Trazado_935154" data-name="Trazado 935154" d="M27.186,296h27.08a3.186,3.186,0,0,1,3.186,3.186v15.929H24V299.186A3.186,3.186,0,0,1,27.186,296Z" transform="translate(-7.204 -252.124)" fill="#f7b030"/>
      <path id="Trazado_935155" data-name="Trazado 935155" d="M108.708,34.563c0,.254-.008.506-.027.755a10.642,10.642,0,0,1-.654,3.019H88.68a10.641,10.641,0,0,1-.654-3.018c-.018-.249-.027-.5-.027-.755a10.356,10.356,0,1,1,20.708,0Z" transform="translate(-64.832 -7.203)" fill="#f7b030"/>
      <path id="Trazado_935156" data-name="Trazado 935156" d="M83.08,137.593a1.591,1.591,0,0,1-1.593,1.593H57.593a1.593,1.593,0,0,1,0-3.186H81.487A1.593,1.593,0,0,1,83.08,137.593Z" transform="translate(-36.018 -108.053)" fill="#bd620e"/>
      <path id="Trazado_935157" data-name="Trazado 935157" d="M120.351,222.287a3.186,3.186,0,0,0-4.578-4.158,3.186,3.186,0,0,0-6.013,0,3.186,3.186,0,0,0-4.578,4.158,3.186,3.186,0,0,0,2.855,5.543,4.779,4.779,0,0,0,9.459,0,3.186,3.186,0,0,0,2.854-5.543Z" transform="translate(-79.244 -180.086)" fill="#95573a"/>
      <path id="Trazado_935158" data-name="Trazado 935158" d="M72,408H95.894v7.965H72Z" transform="translate(-50.425 -352.973)" fill="#2d85cc"/>
      <path id="Trazado_935159" data-name="Trazado 935159" d="M280,296h3.186v11.151H280Z" transform="translate(-237.717 -252.124)" fill="#1261a0"/>
      <path id="Trazado_935160" data-name="Trazado 935160" d="M72,296h3.186v11.151H72Z" transform="translate(-50.425 -252.124)" fill="#1261a0"/>
      <path id="Trazado_935161" data-name="Trazado 935161" d="M352,408h2.389a1.593,1.593,0,0,1,1.593,1.593v4.779a1.593,1.593,0,0,1-1.593,1.593H352Z" transform="translate(-302.548 -352.973)" fill="#5e3725"/>
      <rect id="Rectángulo_402859" data-name="Rectángulo 402859" width="7.965" height="3.186" rx="1.593" transform="translate(29.54 21.575)" fill="#bd620e"/>
      <path id="Trazado_935162" data-name="Trazado 935162" d="M400.562,321.114c-1.1-1.232-2.661-1.481-3.486-.558a.326.326,0,1,1-.594,0c-.825-.924-2.386-.674-3.486.558s-1.323,2.979-.5,3.9,2.386.674,3.486-.558a4.037,4.037,0,0,0,.795-1.337,4.035,4.035,0,0,0,.795,1.337c1.1,1.232,2.661,1.481,3.486.558S401.662,322.346,400.562,321.114Z" transform="translate(-338.566 -273.733)" fill="#1261a0"/>
      <path id="Trazado_935163" data-name="Trazado 935163" d="M407.965,129.558c0,6.158-1.783,12.743-3.982,12.743S400,135.716,400,129.558,401.783,120,403.982,120,407.965,123.4,407.965,129.558Z" transform="translate(-345.77 -93.646)" fill="#a3d4f7"/>
      <path id="Trazado_935164" data-name="Trazado 935164" d="M408.229,128.15a4.1,4.1,0,0,1-7.9,0c0-.062.006-.124.01-.185.281-5.149,1.938-7.965,3.94-7.965s3.659,2.816,3.94,7.965C408.223,128.025,408.226,128.088,408.229,128.15Z" transform="translate(-346.067 -93.646)" fill="#2d85cc"/>
      <path id="Trazado_935165" data-name="Trazado 935165" d="M61.434,45.919a31.631,31.631,0,0,0,1.558-10.007q0-.694-.03-1.351c.007-.042.015-.083.022-.125l-.028,0c-.245-4.879-1.719-8.145-3.946-8.766V22.444a4.779,4.779,0,1,0-9.558,0V43.879a3.961,3.961,0,0,0-2.389-.8H42.749a3.965,3.965,0,0,0-.69-1.07,4,4,0,0,0,.225-1.319c0-.088,0-.175-.01-.262A11.111,11.111,0,0,0,43.594,38.3h.282a3.979,3.979,0,0,0,2.869-6.74,2.423,2.423,0,0,0,.416-.332,2.39,2.39,0,0,0-1.691-4.079h-.8a11.148,11.148,0,1,0-22.3,0h-.8A2.388,2.388,0,0,0,20.3,31.56,3.979,3.979,0,0,0,23.168,38.3h.282a11.116,11.116,0,0,0,1.321,2.127c-.006.087-.01.174-.01.262a4,4,0,0,0,.225,1.319,3.962,3.962,0,0,0-.69,1.07H19.982A3.987,3.987,0,0,0,16,47.062V62.992a.8.8,0,0,0,.8.8H51.841A2.392,2.392,0,0,0,54.23,61.4V59.806H56.62a.8.8,0,0,0,.8-.8V56.62a.8.8,0,1,0-1.593,0v1.593H54.23V56.62a2.392,2.392,0,0,0-2.389-2.389h-.8V22.444a3.187,3.187,0,1,1,6.372,0v3.221c-2.227.621-3.7,3.887-3.946,8.766l-.028,0c.006.042.014.083.022.125q-.03.657-.03,1.351a32.6,32.6,0,0,0,1.2,8.909q.174.585.363,1.1a4.457,4.457,0,0,0-1.16.934c-1.383,1.548-1.6,3.728-.5,4.964a2.49,2.49,0,0,0,1.887.824,3.835,3.835,0,0,0,2.787-1.381q.1-.117.2-.24.1.123.2.24A3.835,3.835,0,0,0,61.2,52.638a2.49,2.49,0,0,0,1.887-.824c1.1-1.235.885-3.416-.5-4.964A4.457,4.457,0,0,0,61.434,45.919ZM49.452,47.062V62.2H46.266V44.673h.8A2.392,2.392,0,0,1,49.452,47.062Zm-4.779,8.761V62.2h-22.3V55.823Zm-18.034-14a2.358,2.358,0,0,1-.285-1.132A2.389,2.389,0,0,1,30.072,38.7a.8.8,0,0,0,1.2-.4,2.389,2.389,0,0,1,4.51,0,.8.8,0,0,0,1.2.4,2.389,2.389,0,0,1,3.433,3.118.8.8,0,0,0,.2,1,2.389,2.389,0,0,1-2.141,4.158.8.8,0,0,0-1,.655,3.982,3.982,0,0,1-7.882,0,.8.8,0,0,0-1-.655,2.389,2.389,0,0,1-2.141-4.158.8.8,0,0,0,.2-1ZM44.673,54.23H43.08V44.673h1.593ZM25.558,47.857a3.961,3.961,0,0,0,2.389.8q.115,0,.231-.007a5.575,5.575,0,0,0,10.689,0q.115.007.231.007a3.961,3.961,0,0,0,2.389-.8V54.23H25.558ZM44.212,36.684a11.147,11.147,0,0,0,.461-3.162V32.066a2.389,2.389,0,0,1-.461,4.618ZM33.522,17.593a9.67,9.67,0,0,1,9.555,9.558H23.967a9.67,9.67,0,0,1,9.555-9.558ZM21.01,28.977a.8.8,0,0,1,.565-.234H45.469a.8.8,0,0,1,0,1.593H21.575a.8.8,0,0,1-.565-1.359Zm-.232,5.342a2.393,2.393,0,0,1,1.593-2.252v1.456a11.147,11.147,0,0,0,.461,3.162A2.393,2.393,0,0,1,20.779,34.319Zm3.186-.8V31.929H43.08v1.593a9.576,9.576,0,0,1-1.427,5.022,3.982,3.982,0,0,0-4.766-1.577,3.989,3.989,0,0,0-3.364-1.852l-1.593.335a3.993,3.993,0,0,0-1.771,1.516,3.982,3.982,0,0,0-4.766,1.577,9.576,9.576,0,0,1-1.427-5.022Zm0,20.708H22.372V44.673h1.593Zm-6.372-7.168a2.392,2.392,0,0,1,2.389-2.389h.8V62.2H17.593Zm34.248,8.761a.8.8,0,0,1,.8.8V61.4a.8.8,0,0,1-.8.8h-.8V55.823Zm6.372-7.965c-.35,0-1.228-.73-2.053-3.494a30.61,30.61,0,0,1-1.106-7.17,5.064,5.064,0,0,0,6.317,0,30.6,30.6,0,0,1-1.106,7.17C59.441,47.129,58.562,47.859,58.213,47.859Zm0-20.708c1.442,0,2.9,2.5,3.148,7.285a3.317,3.317,0,0,1-6.3,0c.249-4.789,1.706-7.285,3.148-7.285ZM55.225,51.045a.9.9,0,0,1-.7-.292c-.6-.673-.22-2.037.5-2.841a2.934,2.934,0,0,1,.619-.53,4.02,4.02,0,0,0,1.759,1.9,3.275,3.275,0,0,1-.577.916A2.291,2.291,0,0,1,55.225,51.045Zm6.674-.292a.894.894,0,0,1-.7.292,2.291,2.291,0,0,1-1.6-.849,3.271,3.271,0,0,1-.58-.921,4.119,4.119,0,0,0,1.759-1.893,2.935,2.935,0,0,1,.62.53C62.119,48.715,62.5,50.08,61.9,50.753Z"/>
      <path id="Trazado_935166" data-name="Trazado 935166" d="M168.8,257.593h3.186a.8.8,0,1,0,0-1.593H168.8a.8.8,0,1,0,0,1.593Z" transform="translate(-136.867 -216.106)"/>
      <path id="Trazado_935167" data-name="Trazado 935167" d="M136.8,441.593h9.558a.8.8,0,1,0,0-1.593H136.8a.8.8,0,1,0,0,1.593Z" transform="translate(-108.053 -381.787)"/>
      <path id="Trazado_935168" data-name="Trazado 935168" d="M151.168,64h-4.779a2.389,2.389,0,0,0,0,4.779h4.779a2.389,2.389,0,1,0,0-4.779Zm0,3.186h-4.779a.8.8,0,0,1,0-1.593h4.779a.8.8,0,0,1,0,1.593Z" transform="translate(-115.257 -43.221)"/>
    </g>
  </g>
</svg>
